<svg width="128" height="128" viewBox="0 0 128 128" fill="none" xmlns="http://www.w3.org/2000/svg">
<rect width="128" height="128" fill="#FF9B05"/>
<path fill-rule="evenodd" clip-rule="evenodd" d="M23.906 93.5894H45.9525L51.6907 69.8964L55.3148 54.9325H69.8111H104.844V35H92.3071V43.7582H50.4827V35H26.6241L23 47.9863L26.0201 54.9325H34.1743L23.906 93.5894Z" fill="white"/>
<path d="M50.4827 35H26.6241L23 47.9863L26.0201 54.9325H34.1743L23.906 93.5894H45.9525L51.6907 69.8964L55.3148 54.9325H69.8111H104.844V35H92.3071M50.4827 35V43.7582H92.3071V35M50.4827 35H92.3071M34.1743 80.3011L41.4224 55.8385" stroke="#FF9B05" stroke-width="5" stroke-linecap="round" stroke-linejoin="round"/>
<path d="M50.4827 35V43.7582H92.3071V35H50.4827Z" fill="#FF9B05"/>
<path d="M55.3148 54.9325L51.6907 69.8964M55.3148 54.9325H69.8111M55.3148 54.9325C56.7814 60.3887 58.4068 62.2165 62.865 63.0867M51.6907 69.8964L45.9525 93.5894H23.906L34.1743 54.9325H26.0201L23 47.9863L26.6241 35H50.4827M51.6907 69.8964C66.681 71.3827 70.5983 68.0174 69.8111 54.9325M69.8111 54.9325H104.844V35H92.3071M50.4827 35V43.7582H92.3071V35M50.4827 35H92.3071" stroke="white" stroke-width="5" stroke-linecap="round" stroke-linejoin="round"/>
<path fill-rule="evenodd" clip-rule="evenodd" d="M23.906 93.5894H45.9525L51.6907 69.8964L55.3148 54.9325H69.8111H104.844V35H92.3071V43.7582H50.4827V35H26.6241L23 47.9863L26.0201 54.9325H34.1743L23.906 93.5894Z" fill="white"/>
<path d="M50.4827 35H26.6241L23 47.9863L26.0201 54.9325H34.1743L23.906 93.5894H45.9525L51.6907 69.8964L55.3148 54.9325H69.8111H104.844V35H92.3071M50.4827 35V43.7582H92.3071V35M50.4827 35H92.3071M34.1743 80.3011L41.4224 55.8385" stroke="#FF9B05" stroke-width="5" stroke-linecap="round" stroke-linejoin="round"/>
<path d="M50.4827 35V43.7582H92.3071V35H50.4827Z" fill="#FF9B05"/>
<path d="M55.3148 54.9325L51.6907 69.8964M55.3148 54.9325H69.8111M55.3148 54.9325C56.7814 60.3887 58.4068 62.2165 62.865 63.0867M51.6907 69.8964L45.9525 93.5894H23.906L34.1743 54.9325H26.0201L23 47.9863L26.6241 35H50.4827M51.6907 69.8964C66.681 71.3827 70.5983 68.0174 69.8111 54.9325M69.8111 54.9325H104.844V35H92.3071M50.4827 35V43.7582H92.3071V35M50.4827 35H92.3071" stroke="white" stroke-width="5" stroke-linecap="round" stroke-linejoin="round"/>
</svg>
