<svg width="128" height="128" viewBox="0 0 128 128" fill="none" xmlns="http://www.w3.org/2000/svg">
<g clip-path="url(#clip0_149_80)">
<rect width="128" height="128" fill="#FF9B05"/>
<path d="M16.3355 98L63.5 16.9419L110.665 98H16.3355Z" stroke="white" stroke-width="10"/>
<path d="M50.2278 27.4747H77.7722C84.3688 21.2803 86.0329 16.583 85.3384 6C96.1326 18.0225 95.9382 25.146 85.3384 38.4861C101.345 26.8176 111.781 29.1182 132 42.9365C124.103 54.9322 116.691 58.1101 98.4304 57.5393L87.2405 91.8988C93.1288 105.081 89.9654 109.917 77.7722 115.95C77.494 121.861 74.5693 123.414 64 122.822C55.0327 123.466 51.3054 122.618 50.2278 115.95C38.628 111.052 36.1333 105.928 39.8987 91.8988L29.5696 57.5393C11.1596 57.8797 3.28983 55.2691 -4 42.9365C18.8806 27.7507 28.6499 27.9273 42.481 38.4861C32.4104 25.6146 31.8571 18.4943 42.481 6C42.0684 17.6357 43.831 22.3156 50.2278 27.4747Z" fill="#FF9B05"/>
<path d="M29.5696 57.5393L39.8987 91.8988M29.5696 57.5393C11.1596 57.8797 3.28983 55.2692 -4 42.9365C18.8806 27.7507 28.6499 27.9273 42.481 38.4861M29.5696 57.5393C29.5696 57.0644 36.1452 47.5394 42.481 38.4861M50.2278 27.4747H77.7722M50.2278 27.4747C48.0999 30.483 45.3145 34.4374 42.481 38.4861M50.2278 27.4747C43.831 22.3156 42.0684 17.6357 42.481 6C31.8571 18.4943 32.4104 25.6146 42.481 38.4861M77.7722 27.4747L85.3384 38.4861M77.7722 27.4747C84.3688 21.2803 86.0329 16.583 85.3384 6C96.1326 18.0225 95.9382 25.146 85.3384 38.4861M98.4304 57.5393L87.2405 91.8988M98.4304 57.5393L85.3384 38.4861M98.4304 57.5393C116.691 58.1101 124.103 54.9322 132 42.9365C111.781 29.1182 101.345 26.8176 85.3384 38.4861M87.2405 91.8988C70.0558 80.1403 59.6662 80.4637 39.8987 91.8988M87.2405 91.8988C93.1288 105.081 89.9654 109.917 77.7722 115.95M39.8987 91.8988C36.1333 105.928 38.628 111.052 50.2278 115.95M50.2278 115.95C61.6545 109.673 67.6397 109.797 77.7722 115.95M50.2278 115.95C51.3054 122.618 55.0327 123.466 64 122.822C74.5693 123.414 77.494 121.861 77.7722 115.95" stroke="#FF9B05" stroke-width="2" stroke-linejoin="round"/>
<path d="M54.481 38.8671H73.519C78.0784 34.5787 79.2286 31.3267 78.7486 24C86.2093 32.3232 86.0749 37.2549 78.7486 46.4904C89.8117 38.4122 97.0251 40.0049 111 49.5714C105.542 57.8761 100.419 60.0762 87.7975 59.681L80.0633 83.4684C84.1332 92.5944 81.9467 95.9429 73.519 100.12C73.3268 104.212 71.3053 105.287 64 104.877C57.802 105.322 55.2258 104.736 54.481 100.12C46.4635 96.7281 44.7392 93.1808 47.3418 83.4684L40.2025 59.681C27.478 59.9167 22.0386 58.1094 17 49.5714C32.8146 39.0581 39.5668 39.1804 49.1266 46.4904C42.166 37.5793 41.7836 32.6499 49.1266 24C48.8414 32.0555 50.0597 35.2954 54.481 38.8671Z" fill="white"/>
<path d="M40.2025 59.681L47.3418 83.4684M40.2025 59.681C27.478 59.9167 22.0386 58.1094 17 49.5714C32.8146 39.0581 39.5668 39.1804 49.1266 46.4904M40.2025 59.681C40.2025 59.3523 44.7474 52.758 49.1266 46.4904M54.481 38.8671H73.519M54.481 38.8671C53.0102 40.9498 51.085 43.6874 49.1266 46.4904M54.481 38.8671C50.0597 35.2954 48.8414 32.0555 49.1266 24C41.7836 32.6499 42.166 37.5793 49.1266 46.4904M73.519 38.8671L78.7486 46.4904M73.519 38.8671C78.0784 34.5787 79.2286 31.3267 78.7486 24C86.2093 32.3232 86.0749 37.2549 78.7486 46.4904M87.7975 59.681L80.0633 83.4684M87.7975 59.681L78.7486 46.4904M87.7975 59.681C100.419 60.0762 105.542 57.8761 111 49.5714C97.0251 40.0049 89.8117 38.4122 78.7486 46.4904M80.0633 83.4684C68.1856 75.3279 61.0046 75.5518 47.3418 83.4684M80.0633 83.4684C84.1332 92.5944 81.9467 95.9429 73.519 100.12M47.3418 83.4684C44.7392 93.1808 46.4635 96.7282 54.481 100.12M54.481 100.12C62.3788 95.7736 66.5157 95.8595 73.519 100.12M54.481 100.12C55.2258 104.736 57.802 105.322 64 104.877C71.3053 105.287 73.3268 104.212 73.519 100.12" stroke="white" stroke-width="2" stroke-linejoin="round"/>
<circle cx="73" cy="89" r="4" fill="#FF9B05" stroke="white" stroke-width="2"/>
<circle cx="55" cy="89" r="4" fill="#FF9B05" stroke="white" stroke-width="2"/>
<circle cx="73" cy="89" r="4" fill="#FF9B05" stroke="white" stroke-width="2"/>
<circle cx="55" cy="89" r="4" fill="#FF9B05" stroke="white" stroke-width="2"/>
</g>
<defs>
<clipPath id="clip0_149_80">
<rect width="128" height="128" fill="white"/>
</clipPath>
</defs>
</svg>
