<svg width="128" height="128" viewBox="0 0 128 128" fill="none" xmlns="http://www.w3.org/2000/svg">
<g clip-path="url(#clip0_149_59)">
<rect width="128" height="128" fill="#FF9B05"/>
<rect x="47.3867" y="39.9702" width="99" height="13" rx="3" transform="rotate(45 47.3867 39.9702)" fill="white"/>
<path d="M20.3291 49.7945C27.9189 57.3844 40.2245 57.3844 47.8143 49.7945C55.4042 42.2047 55.4042 29.8992 47.8143 22.3093C44.2081 18.7031 39.5372 16.8103 34.8133 16.631C33.1847 16.5692 32.5317 18.4789 33.6841 19.6314L41.967 27.9143C42.3576 28.3048 42.5692 28.8395 42.5518 29.3916L42.1476 42.192C42.1142 43.247 41.2667 44.0946 40.2117 44.1279L27.4113 44.5321C26.8592 44.5495 26.3245 44.3379 25.9339 43.9473L17.6512 35.6645C16.4987 34.5121 14.589 35.1651 14.6508 36.7938C14.8301 41.5175 16.7229 46.1883 20.3291 49.7945Z" fill="white"/>
</g>
<defs>
<clipPath id="clip0_149_59">
<rect width="128" height="128" fill="white"/>
</clipPath>
</defs>
</svg>
