<svg width="787" height="390" viewBox="0 0 787 390" fill="none" xmlns="http://www.w3.org/2000/svg">
<g clip-path="url(#clip0_274_61)">
<path d="M290.164 256.72H277.382L275.881 263.422C275.881 263.422 266.218 274.731 277.141 274.731C288.064 274.731 306.549 278.082 306.549 273.893C306.549 269.705 293.105 267.191 293.105 267.191L290.164 256.72V256.72Z" fill="#2F2E41"/>
<path d="M209.829 224.736L210.07 211.994L203.378 210.371C203.378 210.371 192.219 200.526 192.013 211.415C191.808 222.303 188.099 240.667 192.3 240.746C196.5 240.825 199.273 227.471 199.273 227.471L209.829 224.736V224.736Z" fill="#2F2E41"/>
<path d="M247.767 82.705L245.16 92.3239L256.893 98.3032L261.326 85.5646L247.767 82.705Z" fill="#FFB6B6"/>
<path d="M255.437 60.4606C247.851 60.4606 241.701 66.5921 241.701 74.1558C241.701 81.7195 247.851 87.8511 255.437 87.8511C263.023 87.8511 269.173 81.7195 269.173 74.1558C269.173 66.5921 263.023 60.4606 255.437 60.4606Z" fill="#FFB6B6"/>
<path d="M239.705 143.894C238.921 142.562 237.828 141.436 236.518 140.61L229.021 126.295L222.293 130.051L230.623 144.168C230.748 145.707 231.242 147.195 232.062 148.505C234.07 151.813 237.408 153.461 239.519 152.187C241.63 150.914 241.713 147.201 239.705 143.894H239.705V143.894Z" fill="#FFB6B6"/>
<path d="M264.538 143.627L244.429 143.495C244.429 143.495 235.284 160.249 245.367 177.423L247.047 212.607L205.037 210.513V225.713C205.037 225.713 259.651 233.132 261.751 228.943C263.852 224.754 268.053 198.606 268.053 198.606L272.295 206.048L276.455 259.939H289.444L292.302 201.717L267.213 155.223L264.538 143.627H264.538V143.627Z" fill="#2F2E41"/>
<path d="M259.752 90.5719L244.363 89.549L238.72 106.939L244.363 143.765L265.395 147.345L270.012 108.985L259.752 90.5719Z" fill="#F9A826"/>
<path d="M243.912 92.1063L245.388 108.985L231.538 117.168L236.811 136.087L226.408 141.719C226.408 141.719 215.635 121.772 217.687 115.123C219.739 108.473 243.912 92.1063 243.912 92.1063H243.912Z" fill="#F9A826"/>
<path opacity="0.1" d="M247.719 107.096C247.719 107.096 247.555 137.017 254.366 137.809C261.177 138.6 265.915 136.7 265.915 136.7" fill="black"/>
<path d="M292.342 121.155C290.797 121.275 289.303 121.763 287.985 122.577L271.795 123.035L272.239 130.71L288.614 129.418C290.058 129.979 291.615 130.187 293.156 130.025C297.018 129.672 299.964 127.401 299.739 124.951C299.514 122.501 296.202 120.802 292.342 121.155V121.155L292.342 121.155Z" fill="#FFB6B6"/>
<path d="M283.939 130.662L284.11 130.596L281.928 121.637L267.633 121.563L264.961 99.4896C264.438 95.161 260.745 91.8969 256.372 91.8969C253.916 91.8969 251.567 92.9424 249.928 94.7651C248.29 96.5858 247.504 99.0245 247.77 101.455C249.404 116.352 252.443 134.4 257.646 135.784C258.636 136.047 259.794 136.162 261.065 136.162C269.642 136.162 283.28 130.917 283.939 130.662V130.662V130.662Z" fill="#F9A826"/>
<path d="M263.416 67.0487C264.402 68.7474 265.426 70.491 266.985 71.6894C268.543 72.8877 270.787 73.4205 272.503 72.4599C274.19 71.5159 274.916 69.3238 274.5 67.4404C274.085 65.557 272.718 63.9917 271.11 62.9206C269.501 61.8496 267.651 61.207 265.824 60.5754C263.031 59.6102 260.217 58.6398 257.291 58.2208C249.309 57.0779 240.831 60.4387 235.816 66.7335C233.448 69.7057 231.853 73.2027 230.282 76.6605C228.998 79.4869 227.685 82.4638 227.913 85.5584C228.079 87.8272 229.025 90.3125 227.8 92.2316C227.183 93.1985 226.13 93.7843 225.276 94.5513C224.422 95.3183 223.721 96.5074 224.143 97.5736C224.574 98.6646 225.934 99.058 226.66 99.9811C227.904 101.563 226.844 103.878 225.59 105.452C224.337 107.027 222.798 108.792 223.195 110.763C223.481 112.185 224.776 113.244 226.177 113.635C227.577 114.026 229.071 113.86 230.501 113.597C237.492 112.309 244.027 108.679 248.803 103.43C253.58 98.1815 256.571 91.3445 257.178 84.2829C257.446 81.1735 257.268 78.016 257.882 74.9559C258.496 71.8958 260.088 68.8154 262.887 67.4192" fill="#2F2E41"/>
</g>
<circle cx="547" cy="276" r="45" fill="white"/>
<circle cx="682" cy="276" r="45" fill="white"/>
<path d="M131 291L408 291" stroke="white" stroke-width="17" stroke-linecap="round"/>
<path d="M165 167H218M199 256.5H222M187.5 249H213.5M145 209.5C155.154 209.5 160.846 209.5 171 209.5M168.5 203H187.5M173.5 151.5H153.5M199.5 68.5H227.5M186.5 161.5H214.5M195.5 62H223.5" stroke="white" stroke-linecap="round"/>
<path d="M356 125H409M390 214.5H413M378.5 207H404.5M390.5 26.5H418.5M377.5 119.5H405.5M409 20H437" stroke="white" stroke-linecap="round"/>
<path d="M592.039 31H464C458.477 31 454 35.4772 454 41V171.795V260C454 265.523 458.477 270 464 270H592.039H764C769.523 270 774 265.523 774 260V171.795V41C774 35.4772 769.523 31 764 31H592.039Z" fill="#FF9B05" stroke="#FF9B05" stroke-width="25" stroke-linecap="round"/>
<path d="M764.5 175.5H536M764.5 186.5H592.5M764.5 196H619.5" stroke="white" stroke-linecap="round"/>
<rect x="470" y="47" width="87" height="109" rx="10" fill="#1E1E1E"/>
<rect x="583" y="47" width="145" height="109" rx="10" fill="#1E1E1E"/>
<defs>
<clipPath id="clip0_274_61">
<rect width="291" height="218" fill="white" transform="matrix(-1 0 0 1 418 58)"/>
</clipPath>
</defs>
</svg>
