<svg width="128" height="128" viewBox="0 0 128 128" fill="none" xmlns="http://www.w3.org/2000/svg">
<rect width="128" height="128" fill="#FF9B05"/>
<rect x="14" y="43" width="99" height="54" rx="4" fill="white"/>
<path d="M40 43V97M87 43V97" stroke="#FF9B05" stroke-width="2.5"/>
<path d="M62.7585 73.549V73.2472C62.7644 72.2114 62.8562 71.3858 63.0337 70.7702C63.2172 70.1547 63.4835 69.6576 63.8327 69.2788C64.1819 68.9 64.6022 68.5567 65.0934 68.2489C65.4603 68.0122 65.7888 67.7666 66.0788 67.5121C66.3688 67.2576 66.5997 66.9764 66.7713 66.6687C66.9429 66.355 67.0288 66.0058 67.0288 65.6211C67.0288 65.2127 66.9311 64.8546 66.7358 64.5469C66.5405 64.2391 66.2771 64.0024 65.9457 63.8366C65.6201 63.6709 65.2591 63.5881 64.8626 63.5881C64.4779 63.5881 64.1139 63.6739 63.7706 63.8455C63.4273 64.0112 63.1462 64.2598 62.9272 64.5913C62.7082 64.9168 62.5898 65.3222 62.5721 65.8075H58.9499C58.9795 64.6238 59.2636 63.6473 59.8022 62.8778C60.3408 62.1025 61.054 61.5254 61.9418 61.1467C62.8295 60.762 63.8091 60.5696 64.8803 60.5696C66.0581 60.5696 67.0998 60.7649 68.0053 61.1555C68.9109 61.5402 69.6211 62.0995 70.136 62.8335C70.6509 63.5674 70.9084 64.4522 70.9084 65.4879C70.9084 66.1804 70.793 66.7959 70.5621 67.3345C70.3372 67.8672 70.0206 68.3407 69.6122 68.755C69.2038 69.1634 68.7215 69.5333 68.1651 69.8647C67.6976 70.1429 67.3129 70.4329 67.011 70.7347C66.7151 71.0366 66.4931 71.3858 66.3452 71.7823C66.2031 72.1789 66.1291 72.6671 66.1232 73.2472V73.549H62.7585ZM64.5163 79.2308C63.9245 79.2308 63.4184 79.0237 62.9982 78.6094C62.5839 78.1892 62.3797 77.6861 62.3857 77.1001C62.3797 76.5201 62.5839 76.023 62.9982 75.6087C63.4184 75.1944 63.9245 74.9872 64.5163 74.9872C65.0786 74.9872 65.5728 75.1944 65.9989 75.6087C66.4251 76.023 66.6411 76.5201 66.647 77.1001C66.6411 77.4908 66.5375 77.8488 66.3363 78.1744C66.141 78.494 65.8835 78.7514 65.5639 78.9467C65.2443 79.1361 64.8951 79.2308 64.5163 79.2308Z" fill="#FF9B05"/>
<path d="M51 43V34C51 32.3431 52.3431 31 54 31H73C74.6569 31 76 32.3431 76 34V43" stroke="white" stroke-width="5" stroke-linecap="round"/>
</svg>
