<svg width="151" height="130" viewBox="0 0 151 130" fill="none" xmlns="http://www.w3.org/2000/svg">
<g clip-path="url(#clip0_488_23)">
<path d="M12.426 31.0317H82.7207V54.2162H80.058V60.2797L74.0227 54.2162H12.426V31.0317Z" fill="#E6E6E6"/>
<path d="M80.7679 33.2894H14.3784V51.837H80.7679V33.2894Z" fill="white"/>
<path d="M51.6821 38.7045H19.7173V39.6791H51.6821V38.7045Z" fill="#FF9B05"/>
<path d="M75.4293 42.0759H19.7173V43.0505H75.4293V42.0759Z" fill="#E6E6E6"/>
<path d="M75.3748 45.4473H19.7173V46.4219H75.3748V45.4473Z" fill="#E6E6E6"/>
<path d="M70.2947 62.0631H0V85.2478H2.6627V91.3114L8.69803 85.2478H70.2947V62.0631Z" fill="#E6E6E6"/>
<path d="M68.3421 64.321H1.95264V82.8686H68.3421V64.321Z" fill="white"/>
<path d="M39.7888 69.9144H7.82397V70.889H39.7888V69.9144Z" fill="#FF9B05"/>
<path d="M63.536 73.2858H7.82397V74.2604H63.536V73.2858Z" fill="#E6E6E6"/>
<path d="M63.4815 76.6573H7.82397V77.6318H63.4815V76.6573Z" fill="#E6E6E6"/>
<path d="M70.2947 0H0V23.1845H2.6627V29.2482L8.69803 23.1845H70.2947V0Z" fill="#E6E6E6"/>
<path d="M68.3421 2.25775H1.95264V20.8054H68.3421V2.25775Z" fill="white"/>
<path d="M39.7888 7.8512H7.82397V8.82579H39.7888V7.8512Z" fill="#FF9B05"/>
<path d="M63.536 11.2226H7.82397V12.1972H63.536V11.2226Z" fill="#E6E6E6"/>
<path d="M63.4815 14.594H7.82397V15.5686H63.4815V14.594Z" fill="#E6E6E6"/>
<path d="M123.502 127.038L120.609 127.038L119.232 115.826L123.502 115.826L123.502 127.038Z" fill="#FFB8B8"/>
<path d="M124.24 129.855L114.911 129.855V129.736C114.911 128.769 115.293 127.841 115.974 127.157C116.655 126.473 117.579 126.089 118.542 126.088H118.542L124.24 126.089L124.24 129.855Z" fill="#2F2E41"/>
<path d="M119.434 118.608L116.742 119.672L111.375 109.746L115.348 108.175L119.434 118.608Z" fill="#FFB8B8"/>
<path d="M121.147 120.959L112.466 124.39L112.423 124.28C112.07 123.38 112.088 122.376 112.473 121.489C112.857 120.601 113.576 119.904 114.472 119.55L114.472 119.55L119.775 117.453L121.147 120.959Z" fill="#2F2E41"/>
<path d="M118.552 123.395L119.473 89.3801L115.374 103.962L118.336 114.08L113.422 118.276L108.413 102.22L108.404 102.192L113.382 75.7529L128.107 75.0372L128.212 75.0319L128.229 75.1365C128.243 75.2245 129.635 84.0028 128.465 90.3511C127.299 96.6752 124.482 123.502 124.454 123.773L124.442 123.888L118.552 123.395Z" fill="#2F2E41"/>
<path d="M114.146 77.8735L114.062 77.8402L116.795 52.655L116.875 52.635C119.652 51.9374 123.393 51.9984 125.377 52.0967C125.677 52.1123 125.963 52.2315 126.187 52.4341C126.41 52.6368 126.557 52.9106 126.604 53.2095L129.889 74.9476L129.862 74.9865C127.59 78.2461 124.12 79.1322 121.017 79.1322C118.673 79.102 116.35 78.6765 114.146 77.8735Z" fill="#FF9B05"/>
<path d="M127.158 85.2316L127.059 85.2226L125.314 52.0316L130.617 53.2349C131.197 53.3683 131.706 53.7133 132.046 54.2029C132.386 54.6925 132.533 55.2918 132.458 55.8841L131.77 61.4012L132.006 71.1073C132.17 71.7035 134.855 81.5798 133.364 84.1531C133.288 84.2989 133.184 84.4276 133.057 84.5311C132.93 84.6345 132.783 84.7106 132.625 84.7544C131.193 85.1001 129.724 85.2728 128.251 85.2686C127.582 85.2684 127.168 85.2325 127.158 85.2316Z" fill="#3F3D56"/>
<path d="M111.541 85.4567C111.283 85.3406 111.054 85.1675 110.872 84.9503C110.691 84.7331 110.56 84.4775 110.49 84.2024C110.144 82.8046 111.311 81.0468 111.479 80.8027L112.89 67.3351L110.792 54.8937C110.756 54.6809 110.763 54.463 110.814 54.2533C110.865 54.0436 110.958 53.8465 111.087 53.6742C111.217 53.5018 111.38 53.3578 111.566 53.2509C111.753 53.1441 111.959 53.0766 112.173 53.0527L118.151 52.3829L117.848 65.1817C120.414 73.8952 114.826 86.459 114.769 86.5849L114.737 86.6546H114.661C114.631 86.6546 113.898 86.641 111.541 85.4567Z" fill="#3F3D56"/>
<path d="M123.825 49.1133C126.634 47.5706 127.667 44.0324 126.131 41.2104C124.596 38.3884 121.074 37.3512 118.265 38.8939C115.456 40.4365 114.424 43.9748 115.959 46.7968C117.495 49.6188 121.017 50.6559 123.825 49.1133Z" fill="#FFB8B8"/>
<path d="M127.682 79.2248C127.63 78.9041 127.649 78.5757 127.736 78.2629C127.824 77.9501 127.979 77.6604 128.191 77.4143C128.402 77.1682 128.664 76.9717 128.96 76.8385C129.255 76.7054 129.575 76.6388 129.899 76.6436L131.905 71.9801L135.023 72.5138L132.098 79.0596C132.054 79.605 131.812 80.1153 131.419 80.4937C131.025 80.8721 130.507 81.0923 129.963 81.1127C129.419 81.1331 128.886 80.9521 128.466 80.6042C128.045 80.2562 127.767 79.7655 127.682 79.2248V79.2248Z" fill="#FFB8B8"/>
<path d="M130.507 74.9516L132.164 64.9647L129.334 60.226L130.055 53.4656L130.215 53.4253C130.752 53.2921 131.318 53.3484 131.818 53.5847C132.318 53.821 132.723 54.2229 132.963 54.723L137.586 64.4157L137.604 64.4544L134.247 77.7067L130.507 74.9516Z" fill="#3F3D56"/>
<path d="M124.844 48.6994C124.977 48.7379 125.533 48.1067 126.142 47.3501C126.782 46.5614 127.244 45.6425 127.495 44.6569C127.747 43.6713 127.783 42.6426 127.6 41.6418C127.592 41.5968 127.583 41.554 127.575 41.5138C127.373 40.5493 126.457 39.6609 125.498 39.8652C125.57 39.0108 124.997 38.206 124.271 37.755C123.545 37.304 122.685 37.1368 121.846 36.9778C120.89 36.7964 119.921 36.6141 118.949 36.676C118.012 36.7339 117.104 37.0253 116.307 37.524C115.339 38.1637 114.593 39.0905 114.173 40.1756C113.753 41.2607 113.68 42.4502 113.964 43.5789C115.185 42.1857 116.632 40.6702 118.724 41.274C119.198 41.4157 119.64 41.6479 120.026 41.9579C121.297 42.9611 121.936 44.4384 122.554 45.8819C122.863 45.0919 124.009 44.7947 124.66 45.3357C125.077 45.683 125.249 46.2603 125.234 46.8048C125.19 47.3488 125.065 47.8829 124.863 48.3892" fill="#2F2E41"/>
<path d="M124.097 70.4547H123.824V69.3768C123.824 69.0573 123.697 68.7509 123.472 68.525C123.247 68.299 122.942 68.1719 122.624 68.1716H119.206C118.888 68.1719 118.583 68.299 118.358 68.525C118.133 68.7509 118.007 69.0573 118.006 69.3768V76.8296C118.007 77.1492 118.133 77.4555 118.358 77.6815C118.583 77.9074 118.888 78.0345 119.206 78.0349H122.624C122.942 78.0345 123.247 77.9074 123.472 77.6815C123.697 77.4555 123.824 77.1492 123.824 76.8296V71.7333H124.097V70.4547Z" fill="#2F2E41"/>
<path d="M121.006 72.4639C121.408 72.4639 121.733 72.1368 121.733 71.7333C121.733 71.3298 121.408 71.0027 121.006 71.0027C120.604 71.0027 120.279 71.3298 120.279 71.7333C120.279 72.1368 120.604 72.4639 121.006 72.4639Z" fill="white"/>
<path d="M121.6 74.6445C121.461 74.3507 121.26 74.0909 121.011 73.8835C120.762 73.6761 120.471 73.5261 120.158 73.444C119.845 73.3619 119.518 73.3498 119.2 73.4085C118.881 73.4671 118.58 73.5952 118.316 73.7836L114.03 71.0885L111.764 73.3062L117.871 77.0268C118.215 77.4507 118.703 77.733 119.24 77.8201C119.778 77.9073 120.329 77.7932 120.788 77.4995C121.248 77.2059 121.584 76.7531 121.734 76.2269C121.883 75.7007 121.836 75.1376 121.6 74.6445V74.6445Z" fill="#FFB8B8"/>
<path d="M106.268 69.5104L110.19 54.623C110.293 54.2384 110.536 53.9065 110.871 53.6928C111.205 53.4791 111.608 53.3992 111.998 53.4687L113.347 53.7149L114.784 61.6554L111.861 68.3485L117.148 71.5373L116.404 77.5121L106.268 69.5104Z" fill="#3F3D56"/>
<path d="M150.818 130H81.5509C81.5027 130 81.4565 129.981 81.4224 129.946C81.3883 129.912 81.3691 129.866 81.3691 129.817C81.3691 129.769 81.3883 129.722 81.4224 129.688C81.4565 129.654 81.5027 129.635 81.5509 129.635H150.818C150.866 129.635 150.913 129.654 150.947 129.688C150.981 129.722 151 129.769 151 129.817C151 129.866 150.981 129.912 150.947 129.946C150.913 129.981 150.866 130 150.818 130Z" fill="#3F3D56"/>
</g>
<defs>
<clipPath id="clip0_488_23">
<rect width="151" height="130" fill="white"/>
</clipPath>
</defs>
</svg>
