<svg width="287" height="218" viewBox="0 0 287 218" fill="none" xmlns="http://www.w3.org/2000/svg">
<path d="M10.8528 109.325C10.8528 109.325 4.76278 126.266 10.8528 144.069C16.9428 161.872 19.125 186.871 41.6783 175.96C64.2316 165.049 62.9933 153.194 62.9933 153.194L33.7309 106.321L10.8528 109.325Z" fill="#F4A28C"/>
<path opacity="0.04" d="M10.8528 109.325C10.8528 109.325 4.76278 126.266 10.8528 144.069C16.9428 161.872 19.125 186.871 41.6783 175.96C64.2316 165.049 62.9933 153.194 62.9933 153.194L33.7309 106.321L10.8528 109.325Z" fill="black"/>
<path d="M268.145 19.2539H88.1349V144.16H268.145V19.2539Z" fill="#C1C1C1"/>
<path d="M253.59 30.6323H102.335V131.584H253.59V30.6323Z" fill="#E6E6E6"/>
<path opacity="0.04" d="M116.565 73.8408C116.565 73.8408 124.482 74.1859 119.732 80.7428C114.982 87.2997 118.006 87.4621 121.254 91.5323C124.502 95.6024 112.302 144.15 112.302 144.15H88.145L99.1172 122.429L111.561 80.7428L116.565 73.8408Z" fill="black"/>
<path d="M52.3663 57.7024C53.2515 57.2837 54.2275 57.0933 55.2052 57.1485C56.1829 57.2037 57.1312 57.5027 57.9637 58.0184C58.7962 58.534 59.4864 59.2499 59.9713 60.1006C60.4562 60.9514 60.7205 61.91 60.74 62.889C60.8923 67.5377 60.2021 74.1149 55.0154 73.4653C47.0578 72.4503 48.0322 62.1278 48.0322 62.1278C49.0104 60.2586 50.5179 58.7193 52.3663 57.7024V57.7024Z" fill="#F4A28C"/>
<path d="M75 93C67.3722 86.2632 60.7858 82.18 50.6715 81.0538C40.5572 79.9276 30.3418 81.9493 21.4189 86.8431C13.4816 91.2279 7.02622 98.2822 8.62992 109.518C12.3956 135.908 30.5641 154.706 29.0619 177.432L76.1173 178.66L78.8375 149.479C79.0821 146.718 79.8967 144.038 81.2297 141.608C82.5627 139.178 84.3851 137.05 86.5819 135.36C91.0073 131.98 58.0428 135.933 70.5 133C68.6832 125.286 83.3737 100.43 75 93Z" fill="#FF9B05"/>
<path opacity="0.04" d="M58.2126 119.191C58.2126 119.191 68.7483 130.66 54.8631 139.674C40.9779 148.687 50.0114 177.99 50.0114 177.99L29.0618 177.442C29.0618 177.442 30.9396 164.673 19.2772 141.399C7.61489 118.125 53.0057 93.5215 53.0057 93.5215L58.2126 119.191Z" fill="black"/>
<path d="M47.951 91.1466C47.9303 88.7573 48.5815 86.4104 49.8302 84.3733C51.0789 82.3363 52.875 80.6912 55.0135 79.6256C57.1521 78.5601 59.547 78.1169 61.9253 78.3468C64.3035 78.5766 66.5693 79.4701 68.4642 80.9255L68.8194 81.1996C80.8675 90.6594 84.7752 126.052 84.7752 126.052C84.7752 126.052 103.675 93.5724 107.105 84.9754C110.536 76.3783 114.038 69.5575 116.809 69.994C119.58 70.4304 113.672 78.2561 113.672 78.2561C113.672 78.2561 120.95 80.0729 119.509 84.7115C119.024 86.0885 118.199 87.3203 117.109 88.2913C116.019 89.2623 114.7 89.9409 113.276 90.2635C113.276 90.2635 104.882 163.08 78.6751 150.95C65.0842 144.647 48.2758 117.263 47.951 91.1466Z" fill="#F4A28C"/>
<path d="M61.1967 50.1914C61.1967 50.1914 63.2268 57.2964 56.5887 60.6865C49.9506 64.0766 68.3018 79.7076 53.6452 94.4048C38.9886 109.102 63.4094 124.033 45.0684 133.513C26.7273 142.993 12.4565 146.586 4.31615 129.554C-3.82415 112.523 2.7632 97.6528 15.065 86.0717C27.3668 74.4905 34.1978 71.7196 35.6695 57.7329C37.1413 43.7462 59.0957 39.9501 61.1967 50.1914Z" fill="#24285B"/>
<path d="M29.275 58.0068L70.7378 45.7557L59.725 44.4058L58.9942 42.9949C57.9439 40.7951 56.1275 39.0538 53.8853 38.0971C51.6432 37.1405 49.1291 37.0342 46.8142 37.7981L42.8253 39.1176C40.6385 39.8404 38.768 41.2952 37.5291 43.2366C36.2903 45.1781 35.759 47.4875 36.0248 49.7751L36.106 50.5059L29.275 58.0068Z" fill="#FF9B05"/>
<path opacity="0.04" d="M36.0857 50.4858C36.0857 50.4858 46.5097 48.2427 59.6743 44.3958C59.2068 43.307 58.6393 42.2639 57.9792 41.2798C50.7996 43.4744 43.5042 45.2703 36.1263 46.6593C35.8926 47.923 35.8789 49.2175 36.0857 50.4858V50.4858Z" fill="black"/>
<path d="M56.4973 127.92L83.8312 117.09C83.8312 117.09 80.3701 81.4836 63.653 77.3525C46.936 73.2215 38.9073 91.4509 56.4973 127.92Z" fill="#FF9B05"/>
<path opacity="0.44" d="M56.4973 127.92L83.8312 117.09C83.8312 117.09 80.3701 81.4836 63.653 77.3525C46.936 73.2215 38.9073 91.4509 56.4973 127.92Z" fill="white"/>
<path d="M29.0618 177.432L23.7838 217.808H85.4451L76.1172 178.66L29.0618 177.432Z" fill="#24285B"/>
<path d="M227.413 131.645H199.937V155.223H227.413V131.645Z" fill="#FF9B05"/>
<path opacity="0.53" d="M216.969 126.418H210.381V136.162H216.969V126.418Z" fill="white"/>
<path d="M264.156 131.645H236.68V155.223H264.156V131.645Z" fill="#FF9B05"/>
<path opacity="0.53" d="M253.712 126.418H247.125V136.162H253.712V126.418Z" fill="white"/>
<g opacity="0.51">
<path d="M176.612 62.544C176.684 62.7127 176.704 62.8985 176.672 63.0787C176.639 63.2589 176.555 63.4258 176.43 63.559C176.413 63.626 176.413 63.6958 176.429 63.7629C176.445 63.8299 176.476 63.8922 176.521 63.9447C176.674 64.0963 176.875 64.1896 177.089 64.2086C177.394 64.2086 177.749 63.9143 177.922 64.3913C178.541 64.3913 178.988 63.7417 179.657 64.0665C179.82 64.1477 180.145 63.8838 180.419 63.7722C180.398 63.5765 180.398 63.3792 180.419 63.1835C180.571 62.3613 180.713 62.3207 181.373 62.8384C181.627 62.6151 181.728 62.4121 181.373 62.1177C181.018 61.8234 181.18 61.6813 181.525 61.5798C181.87 61.4783 182.033 61.5087 182.286 61.4884L183.301 61.4072V61.2651C183.125 61.2018 182.94 61.1642 182.753 61.1535C182.396 61.2672 182.029 61.3454 181.657 61.3869C181.241 61.3552 180.837 61.2266 180.48 61.0114C180.297 60.8896 180.54 59.8644 180.754 59.7122C181.129 59.4077 181.515 59.1032 182.033 58.6972C181.769 58.6058 181.535 58.4434 181.352 58.4942C181.036 58.5884 180.742 58.7474 180.49 58.9611C180.277 59.1438 180.145 59.3975 179.942 59.6005C179.739 59.8035 179.424 59.9152 179.231 60.1283C178.856 60.5242 178.906 60.8084 179.333 61.1433C179.385 61.1672 179.431 61.2013 179.47 61.2436C179.508 61.2859 179.538 61.3356 179.557 61.3896C179.576 61.4435 179.584 61.5008 179.58 61.5579C179.576 61.615 179.561 61.6708 179.536 61.7219C179.483 61.826 179.392 61.9059 179.282 61.9452C179.138 62.0124 179.015 62.1181 178.927 62.2507C178.84 62.3832 178.79 62.5374 178.785 62.6963C178.785 63.0109 178.785 63.4677 178.186 63.3459C177.495 64.2492 177.516 63.3459 177.323 63.0109C177.295 62.9404 177.261 62.8724 177.221 62.8079C177.029 62.4933 176.886 62.0365 176.602 61.9147C176.318 61.7929 176.024 62.1989 175.709 62.341C175.536 62.4022 175.347 62.3954 175.179 62.3219C175.011 62.2483 174.878 62.1136 174.806 61.9452C174.671 61.6202 174.579 61.279 174.532 60.9302C174.526 60.8102 174.546 60.6905 174.59 60.5786C174.634 60.4668 174.7 60.3652 174.785 60.2806C175.193 59.9029 175.683 59.6249 176.217 59.4686C176.622 59.2667 176.971 58.9667 177.232 58.5957C177.658 58.1186 178.054 57.5807 178.409 57.1442L177.617 57.3371C177.801 57.1651 178.002 57.012 178.216 56.8803C178.443 56.8023 178.678 56.7478 178.916 56.7179C179.15 56.586 179.536 56.1394 179.83 56.2003C180.358 56.3018 180.743 55.9059 181.241 56.0277C181.474 56.0785 181.779 55.8044 182.164 55.6217L181.961 56.048C182.172 55.9408 182.398 55.8687 182.631 55.8349C183.016 55.8858 183.396 55.9673 183.768 56.0785L183.636 56.2815C184.448 56.4743 185.27 56.6266 186.062 56.86C186.513 57.0016 186.948 57.1886 187.361 57.4183C187.706 57.5908 187.727 57.8446 187.361 58.0273C186.681 58.2864 185.93 58.2864 185.25 58.0273C185.037 57.9444 184.807 57.9165 184.58 57.9461L185.22 58.281C185.22 59.0423 185.687 59.4381 186.438 59.2148L185.93 58.89V58.7682L187.229 58.9712L186.996 58.4942C187.25 58.3724 187.514 58.2607 187.777 58.1592C188.065 58.0981 188.357 58.0574 188.65 58.0374C188.554 57.9069 188.485 57.7585 188.447 57.601C188.422 57.3682 188.422 57.1334 188.447 56.9006L189.462 57.1138V57.3066L188.985 57.4792C189.351 58.0374 189.493 57.9867 190 57.6111C190.426 57.3373 190.887 57.1222 191.371 56.9717C191.546 56.919 191.726 56.8816 191.908 56.86C192.294 57.4792 192.863 56.86 193.37 56.86C193.593 56.86 193.847 56.5352 194.04 56.9514C194.243 56.9012 194.443 56.8402 194.639 56.7687L193.624 56.0176C194.331 56.1084 195.033 56.2406 195.725 56.4134C196.275 56.6981 196.874 56.8771 197.491 56.9412C197.273 56.8242 197.092 56.6497 196.967 56.4367C196.841 56.2237 196.777 55.9805 196.78 55.7334C196.984 55.4354 197.223 55.1628 197.491 54.9214C197.762 54.787 198.062 54.7208 198.364 54.7285C198.59 54.749 198.812 54.8002 199.024 54.8808L198.699 55.3477L198.942 56.992L199.176 57.063L198.161 58.078C198.335 58.1221 198.516 58.1253 198.691 58.0872C198.866 58.0492 199.03 57.971 199.17 57.8588C199.31 57.7466 199.422 57.6035 199.496 57.4408C199.571 57.278 199.608 57.1001 199.602 56.9209C199.937 56.9209 200.363 56.7585 200.394 57.3574C200.78 57.0224 200.688 56.7281 200.221 56.6976H199.277C199.277 56.3018 199.196 55.9059 199.156 55.439L199.825 55.0026V55.5811L200.414 55.6725L199.978 55.2969L200.688 55.3883V55.2665L200.343 55.033V54.9112C200.78 55.0432 201.206 55.1853 201.673 55.3172C201.847 55.3584 202.023 55.3889 202.201 55.4086C202.205 55.3613 202.205 55.3137 202.201 55.2665C202.048 55.1853 201.886 55.1244 201.652 55.0229L201.5 54.5154L203.774 54.3225L203.439 53.9571C204.482 53.4607 205.637 53.2472 206.788 53.338C207.197 53.3277 207.603 53.2663 207.996 53.1553C207.996 53.1553 208.057 53.1553 208.088 53.1045C208.461 53.0658 208.814 52.9175 209.103 52.6782C209.539 52.3737 210.036 52.0083 210.503 52.6782C210.595 52.8102 210.879 52.8 211.062 52.8609C211.673 52.8102 212.287 52.8102 212.899 52.8609C213.122 52.8609 213.284 53.2872 213.487 53.5308L210.93 54.4443V54.5458C211.092 54.5458 211.265 54.5458 211.437 54.5458C211.61 54.5458 211.873 54.5458 211.995 54.5458C212.574 54.1094 213.163 54.3733 213.751 54.4443C213.985 54.4443 214.249 54.3022 214.472 54.3428C214.751 54.4122 215.013 54.5364 215.243 54.7082C215.487 54.8557 215.777 54.9072 216.056 54.8528C216.336 54.7984 216.585 54.642 216.756 54.4139C216.817 54.3677 216.888 54.3349 216.963 54.3174C217.038 54.3 217.116 54.2982 217.192 54.3124L218.918 54.5864C218.847 55.2462 218.918 55.8044 219.74 55.8247L219.973 55.439H222.704L222.419 54.9721C223.086 54.8317 223.771 54.7941 224.449 54.8605C225.048 55.0229 225.82 54.8605 226.479 55.3883C227.034 55.6561 227.653 55.7617 228.266 55.6928C228.875 55.6928 229.514 55.5811 229.951 56.2409C230.052 56.383 230.428 56.3627 230.671 56.383C231.057 56.4033 231.443 56.4033 231.828 56.383C232.109 56.352 232.387 56.3011 232.661 56.2307C232.836 56.2206 233.013 56.2206 233.189 56.2307L233.3 56.4134L232.955 56.5149V56.6266L233.889 56.9108L233.798 56.1901C234.792 56.2212 235.78 56.3677 236.741 56.6266C237.634 56.9717 238.659 57.063 239.197 58.007C239.492 57.5908 239.756 57.6314 240.821 58.3013C240.476 58.5855 239.908 58.6058 239.806 59.1438L238.7 58.7987C238.507 58.7378 238.324 58.6566 238.132 58.5855C237.986 58.5421 237.843 58.4879 237.705 58.4231C237.617 58.3474 237.542 58.2584 237.482 58.1592C237.442 58.2724 237.408 58.3876 237.38 58.5043C237.38 58.616 237.38 58.6058 237.38 58.6769L236.365 59.0321C236.548 59.1461 236.695 59.3096 236.788 59.5037C236.882 59.6978 236.918 59.9144 236.893 60.1283C235.513 59.8746 234.589 60.6561 233.584 61.3057C233.447 61.1368 233.249 61.0283 233.033 61.0037C232.816 60.979 232.599 61.0401 232.427 61.1738V61.1738C232.282 61.2432 232.12 61.2679 231.96 61.2448C231.209 61.1839 231.098 61.8843 230.61 62.2598L231.077 62.3512C231.077 62.6557 231.148 62.9196 231.189 63.2139C230.681 63.2139 230.519 63.488 230.813 63.9447C230.55 64.2188 229.798 64.0056 230.083 64.7466C229.24 64.6248 229.524 65.6804 228.854 65.8529C228.651 64.6755 227.992 63.5286 228.854 62.5034C229.942 61.9085 230.888 61.0842 231.625 60.0877L231.534 59.9456C231.412 59.9456 231.199 60.0268 231.199 60.0573C231.199 60.4531 230.925 60.4937 230.661 60.6054C230.397 60.717 230.052 61.3057 229.9 60.4734C229.559 60.4349 229.214 60.466 228.885 60.5648C228.616 60.6984 228.388 60.9017 228.225 61.1535C228.134 61.255 228.164 61.458 228.124 61.7016L226.824 61.8741L227.078 61.4884C226.475 61.5944 225.862 61.6284 225.251 61.5899C223.952 61.3159 223.221 62.1482 222.429 62.8282L221.293 63.8432C221.453 64.0464 221.634 64.2333 221.831 64.4015C221.979 64.4525 222.139 64.4525 222.287 64.4015C222.48 64.4015 222.724 64.1274 222.815 64.1883C222.907 64.2492 223.333 64.5943 223.302 64.7567C223.099 65.6398 223.241 66.6243 222.683 67.4262C222.125 68.228 221.668 68.8979 221.171 69.6186C221.107 69.7106 221.026 69.7891 220.931 69.8497C220.837 69.9102 220.732 69.9515 220.621 69.9713C220.511 69.9911 220.398 69.989 220.288 69.965C220.179 69.9411 220.075 69.8958 219.983 69.8317C219.73 70.2073 219.222 70.3392 219.182 70.9584C219.182 71.2121 218.674 71.4354 218.593 71.679C218.806 72.1994 218.989 72.7314 219.141 73.2726C219.324 74.1353 218.512 74.0846 217.964 74.4195C217.964 73.8714 218.065 73.4045 218.075 72.8767C218.075 72.7549 217.933 72.5012 217.872 72.5113C217.192 72.5824 217.537 72.1865 217.588 71.9226C217.618 71.8464 217.651 71.7718 217.689 71.6993C217.514 71.5644 217.294 71.5028 217.074 71.5274C216.854 71.552 216.653 71.661 216.512 71.8313L216.421 71.9632L216.258 71.8516L216.502 70.9888C215.984 70.8772 215.832 71.3948 215.487 71.608C215.406 71.6689 215.355 71.7805 215.264 71.8313C215.157 71.8789 215.044 71.913 214.929 71.9328L215.172 72.3185C215.253 72.4301 215.375 72.6128 215.406 72.6433H216.817L215.538 73.7395C215.873 74.5616 216.147 75.2214 216.431 75.9014L215.994 76.2871L216.624 76.3886C216.35 76.9266 216.076 77.4747 215.791 78.0126C215.618 78.4389 215.396 78.8441 215.132 79.2205C214.787 79.6163 214.543 80.134 213.873 80.2355C213.433 80.3274 213.013 80.4995 212.635 80.743C212.452 80.8445 212.33 81.0678 212.127 81.2809L212.056 80.7633C211.753 80.7265 211.448 80.8009 211.196 80.9726C210.944 81.1444 210.762 81.4018 210.686 81.6971C210.503 82.57 211.193 83.0775 211.701 83.5951L212.472 83.4023L212.564 83.5342C212.409 83.7178 212.267 83.9111 212.137 84.1128C212.047 84.2119 211.987 84.3353 211.965 84.468C212.016 85.2597 212.077 85.9905 211.122 86.3864C210.859 86.4879 210.737 86.9548 210.432 87.2187V86.6401L208.839 84.7725C208.767 84.8541 208.709 84.9466 208.666 85.0466C208.65 85.2695 208.612 85.4904 208.554 85.7063C208.169 86.498 208.697 87.1679 208.839 87.8683C208.9 88.1626 209.356 88.3453 209.529 88.6397C209.693 88.9591 209.81 89.3012 209.874 89.6547C209.992 90.0776 210.05 90.5149 210.047 90.9539C209.705 90.7119 209.401 90.4212 209.143 90.0911C208.981 89.6938 208.868 89.2778 208.808 88.8528C208.771 88.5954 208.677 88.3494 208.534 88.1322C208.305 87.8534 208.149 87.5213 208.082 87.1665C208.014 86.8118 208.037 86.4457 208.148 86.1022C208.331 84.9857 207.814 84.0011 207.661 82.8846C207.286 83.1993 207.184 83.7474 206.565 83.4226C206.951 82.5598 206.453 81.8798 205.966 81.1794C205.822 80.8988 205.723 80.5974 205.672 80.2862C205.235 80.3776 204.809 80.4486 204.413 80.5501C204.261 80.5501 204.038 80.6922 204.017 80.7937C203.865 81.6159 203.073 81.9407 202.678 82.5598C202.414 82.9658 201.977 83.2602 201.663 83.656C201.55 83.9108 201.511 84.1923 201.551 84.468C201.618 85.576 201.254 86.6669 200.536 87.513C200.039 86.3727 199.654 85.1862 199.389 83.9707C199.085 82.773 198.922 81.5347 198.719 80.4791L198.293 81.0069L197.43 80.2761L197.795 80.134C197.359 79.6569 196.953 79.119 196.496 78.6724C195.796 78.6724 195.014 78.6724 194.233 78.6724C193.451 78.6724 193.411 78.5404 193.147 77.8705C192.98 77.958 192.797 78.0114 192.609 78.0276C192.421 78.0438 192.232 78.0225 192.053 77.9649C191.873 77.9072 191.707 77.8145 191.564 77.692C191.421 77.5695 191.303 77.4197 191.218 77.2514C191.185 77.1898 191.158 77.1253 191.137 77.0585C191.137 76.957 191.056 76.8555 191.005 76.754C190.64 76.0537 190.528 76.0334 189.99 76.6119L190.954 78.6419L191.168 78.1141C191.239 78.4085 191.269 78.5506 191.289 78.6622C191.31 78.7739 191.36 79.0581 191.391 79.2611C191.716 79.2002 192.101 79.4945 192.345 79.0073C192.531 78.7159 192.741 78.4409 192.974 78.1852C192.974 78.435 193.005 78.6838 193.066 78.9261C193.119 79.1192 193.247 79.2833 193.421 79.3829C194.284 79.8193 194.436 80.3979 193.766 81.1185C193.656 81.2514 193.564 81.3981 193.492 81.555C193.411 81.6869 193.34 81.8392 193.238 81.9813C192.886 82.4084 192.447 82.7546 191.949 82.9963C191.401 83.3211 190.934 83.7981 190.416 84.1432C189.908 84.4538 189.383 84.7351 188.843 84.9857C188.549 85.1379 188.407 84.9857 188.346 84.6913C188.314 83.7508 188.075 82.8288 187.645 81.9914C187.442 81.7248 187.259 81.4432 187.097 81.149C186.989 80.8808 186.898 80.6062 186.823 80.3268C186.681 79.9513 186.529 79.5859 186.387 79.2205C186.245 78.8551 185.981 78.3171 185.768 77.8705C185.636 77.6066 185.473 77.3529 185.362 77.16L184.54 77.4036L184.489 77.2412L184.925 76.9164L184.063 76.0232C184.164 75.9522 184.367 75.7289 184.58 75.7187C185.128 75.7187 185.291 75.3838 185.392 74.9473L185.89 72.7448L184.966 73.1812C184.966 73.1812 184.966 73.1812 184.905 73.1812C184.54 73.0899 184.002 72.8057 183.839 72.9478C183.332 73.3944 183.078 72.8767 182.824 72.7448C182.57 72.6128 182.459 72.2474 182.296 72.0038L182.367 70.9888C182.002 70.7757 182.012 70.7858 181.586 71.1715C181.495 71.2527 181.261 71.1715 181.018 71.1715C181.181 71.3984 181.324 71.6396 181.444 71.8922C181.524 72.0522 181.546 72.2355 181.505 72.4098C181.383 72.6831 181.237 72.9446 181.068 73.1914C180.683 72.3286 179.901 71.6384 179.891 70.5321C179.891 70.2885 179.546 69.984 179.282 69.8216C178.856 69.5678 178.399 69.3953 178.267 68.8066C178.267 68.8066 178.064 68.8066 178.003 68.6949C177.924 68.5866 177.863 68.4668 177.82 68.3397C177.272 68.4818 177.191 68.7457 177.587 69.2329C177.759 69.4257 177.851 69.6693 178.023 69.8825C178.118 70.022 178.247 70.1341 178.399 70.2073C178.916 70.3189 179.16 70.796 179.556 71.07C179.556 71.07 179.556 71.1715 179.607 71.2832L178.927 70.9888L179.119 71.679L178.683 72.2474C178.937 71.2933 178.257 70.9787 177.668 70.5422C177.323 70.2425 177.016 69.9016 176.755 69.5272C176.582 69.3344 176.43 69.1314 176.277 68.9284C176.051 69.0585 175.834 69.2043 175.628 69.3648C175.524 69.4862 175.381 69.5676 175.224 69.5954C175.066 69.6232 174.904 69.5955 174.765 69.5171C174.44 69.3851 174.085 69.3547 174.116 69.9434C174.116 70.1362 173.862 70.3494 173.71 70.5321C173.45 70.7844 173.206 71.0522 172.979 71.3339C172.898 71.4456 172.979 71.6689 172.979 71.9734C172.695 72.7651 171.811 72.897 170.949 73.1102L170.593 72.6433L169.995 72.7143C169.396 71.6993 170.228 70.6843 169.731 69.6693C170.593 69.1314 171.527 69.5577 172.441 69.4866C172.502 68.9791 172.877 68.4716 172.441 67.954C172.079 67.604 171.74 67.2311 171.426 66.8375H172.512L172.451 66.33C172.666 66.4311 172.913 66.443 173.137 66.3632C173.362 66.2834 173.545 66.1182 173.649 65.9037C173.649 65.9037 173.649 65.9037 173.649 65.9037C173.649 65.9037 173.862 65.7311 173.963 65.6296L174.917 64.6857L176.146 64.1883C176.156 64.0159 176.156 63.8431 176.146 63.6707C175.79 62.9906 175.78 63.0008 176.612 62.544Z" fill="#C1C1C1"/>
<path d="M128.826 69.4967H129.466C129.235 69.0255 128.832 68.6618 128.339 68.4817C127.599 68.106 127.037 67.4529 126.776 66.6648C126.695 66.472 126.39 66.3705 126.218 66.2385L126.076 66.6344C125.852 66.1269 125.213 65.9239 125.71 65.3149C125.71 65.3149 125.385 64.7972 125.274 64.8175C125.033 64.8365 124.79 64.8078 124.56 64.7329C124.33 64.658 124.117 64.5384 123.934 64.3811C123.659 64.2484 123.37 64.1496 123.071 64.0867L120.98 63.7112L121.051 64.0258L119.6 64.4014L119.711 63.6401L118.849 64.3506C119.011 64.6856 117.631 65.8528 116.768 66.0863L117.062 66.3603V66.5329C116.392 65.9442 115.844 66.5329 115.195 66.5329L116.118 66.0457C116.47 65.8976 116.81 65.7211 117.133 65.5179C117.416 65.2573 117.671 64.9682 117.895 64.6551H116.23L116.108 63.9751C115.205 64.6247 115.245 63.5488 114.819 63.3661C115.053 62.4526 115.895 62.5744 116.545 62.3511L116.433 61.8537C115.418 61.9451 115.235 62.2394 114.17 61.4173C114.403 61.3462 114.606 61.2853 114.809 61.2041C115.012 61.1229 115.205 61.0011 115.398 60.9098C115.753 61.3361 116.037 61.3665 116.545 61.0113L114.423 60.1688C114.738 60.047 114.931 59.9861 115.114 59.8948C115.296 59.8034 115.58 59.6309 115.834 59.5395C116.311 59.3365 116.788 59.1538 117.275 58.9914C118.068 58.8068 118.896 58.8419 119.671 59.0929C120.306 59.2029 120.946 59.2775 121.589 59.3162C122.58 59.3744 123.56 59.5621 124.502 59.8745C124.719 59.9255 124.94 59.9561 125.162 59.9658C125.162 59.2046 125.741 59.8136 126.004 59.6004C126.341 59.4227 126.723 59.3519 127.101 59.3974L125.913 59.8745L125.994 60.0369L127.73 59.235L128.339 59.773L128.765 59.4279L128.999 59.8136C129.273 59.3467 129.658 59.4989 130.064 59.6004C130.47 59.7019 131.171 59.8034 131.729 59.9049C131.912 59.9049 132.074 60.0064 132.328 60.0775L131.973 60.3515V60.4936C132.41 60.4329 132.851 60.4024 133.292 60.4023C133.682 60.4727 134.066 60.5745 134.439 60.7068L134.378 60.2703C134.815 60.2703 135.19 60.2703 135.566 60.2703C136.286 60.2703 136.987 60.6357 137.728 60.179C137.88 60.0978 138.245 60.382 138.601 60.5241L139.24 60.0064L138.276 59.2756C138.195 58.9001 138.377 58.5854 138.875 58.5448C139.372 58.5042 139.788 59.1335 139.737 59.5598L140.357 59.6613L140.286 60.2906L140.823 59.6613L141.392 60.8692L142.316 59.5801L143.331 59.7527V60.7068L143.452 60.859L142.519 61.062L142.823 61.5391L141.808 60.9504C141.93 61.468 141.676 61.5695 141.351 61.5391C141.042 61.4604 140.726 61.4161 140.407 61.4071L141.676 61.7827L140.742 62.209C140.604 62.2684 140.477 62.3507 140.367 62.4526C139.89 63.0514 138.925 63.2747 138.976 64.2593C138.981 64.3446 139.004 64.4279 139.045 64.5032C139.085 64.5786 139.141 64.6443 139.21 64.6957C139.687 64.8074 139.717 65.1322 139.687 65.5585C140.306 65.2235 140.702 65.5585 141.27 65.8427C141.88 66.1231 142.507 66.3638 143.148 66.5633C143.148 66.9592 143.148 67.5783 143.696 67.9336C143.808 68.0046 144.011 68.1467 144.041 68.1163C144.071 68.0858 144.396 67.7813 144.396 67.6189C144.348 67.2735 144.267 66.9336 144.153 66.6039C144.477 66.3197 145.015 66.0863 145.076 65.7412C145.137 65.3961 144.772 64.9698 144.559 64.5232C145.086 64.1476 144.559 63.5691 144.62 62.9905C145.628 62.849 146.652 63.1076 147.472 63.7112C147.428 63.8022 147.403 63.9011 147.398 64.002C147.393 64.1029 147.409 64.2038 147.444 64.2986C147.479 64.3933 147.532 64.4801 147.602 64.5535C147.671 64.627 147.755 64.6857 147.847 64.7262C147.908 64.7571 147.973 64.7777 148.04 64.7871C148.73 64.9596 148.801 64.2491 149.055 63.8431C149.349 64.2796 149.664 64.6348 149.918 65.0408C150.06 65.2844 149.999 65.6904 150.182 65.863C150.563 66.1521 150.97 66.4037 151.4 66.6141L151.075 66.8272C151.327 66.8471 151.574 66.9088 151.806 67.0099C151.889 67.0691 151.958 67.1446 152.011 67.232C152.063 67.3193 152.097 67.4165 152.11 67.5174C152.097 67.6022 152.064 67.6827 152.015 67.753C151.966 67.8234 151.901 67.8816 151.826 67.9234C151.047 68.4736 150.095 68.7225 149.146 68.6238C148.466 68.4715 148.01 69.0805 147.543 69.5271C147.817 69.3941 148.098 69.2755 148.385 69.1719C148.604 69.1198 148.831 69.1027 149.055 69.1211C149.106 69.1211 149.197 69.4155 149.167 69.4561C148.73 69.8519 148.883 70.1767 149.289 70.4711C149.695 70.7654 149.999 70.8162 150.364 70.2884C150.383 70.2499 150.412 70.2173 150.448 70.194C150.483 70.1708 150.525 70.1578 150.567 70.1564L150.436 70.6233L150.679 70.4812L150.77 70.6335L148.801 71.6485H148.659L149.065 70.7857C148.426 71.0665 147.805 71.3886 147.208 71.75C147.056 71.8515 147.127 72.2778 147.096 72.5518L147.259 72.633C147.075 72.6843 146.889 72.725 146.7 72.7548C146.223 72.7548 145.949 72.8868 145.888 73.4552C145.888 73.7698 145.574 74.0642 145.361 74.4702L145.147 73.648C145.113 73.9855 145.113 74.3256 145.147 74.663C145.371 75.678 145.32 75.81 144.457 76.2972C143.95 76.5915 143.351 77.4847 143.442 77.8704C143.534 78.2561 143.757 78.8854 143.879 79.4538C143.897 79.7458 143.88 80.0389 143.828 80.3267H143.554L142.691 78.0633L142.204 78.2764C141.778 77.5456 141.189 78.0125 140.62 77.9821L140.854 78.5099C140.357 78.4084 139.961 78.3475 139.555 78.246C139.149 78.1445 139.037 78.1546 138.854 78.4693C138.763 78.6215 138.56 78.7027 138.418 78.8245C138.276 78.9463 138.093 79.0681 138.083 79.2001C138.083 80.1542 138.083 81.1083 138.083 82.0624C138.113 82.377 138.233 82.6764 138.428 82.9251C138.621 83.1586 138.966 83.4631 139.199 83.4326C139.626 83.3514 140.214 83.4326 140.357 82.7526C140.499 82.0725 140.742 81.8797 141.595 82.0116L140.996 84.61C141.273 84.6305 141.551 84.6305 141.828 84.61C142.559 84.5187 142.843 84.8435 142.752 85.554C142.661 86.2645 142.478 87.3505 143.493 87.8885C144.315 87.4825 144.305 87.4926 144.975 88.1828C145.157 88.329 145.354 88.4549 145.564 88.5584C145.756 87.4114 146.721 87.1171 147.594 86.5994C147.522 87.0765 147.238 87.5129 147.522 87.9595L147.959 86.8126L149.167 87.3911C149.576 87.5245 150.016 87.5245 150.425 87.3911C150.831 87.3099 151.045 87.7464 151.339 87.9494C151.44 88.0375 151.532 88.1361 151.613 88.2437C151.781 88.4472 151.968 88.6341 152.171 88.802C152.422 89.0163 152.722 89.1661 153.044 89.2384C154.11 89.2993 154.627 89.5835 154.881 90.6188C154.977 91.0388 155.203 91.4176 155.528 91.7004C155.853 91.9832 156.259 92.1554 156.688 92.1921C157.063 92.2834 157.236 92.3951 157.165 92.7503C158.028 92.7503 158.901 92.5778 159.52 93.4101C159.581 93.4811 159.672 93.5725 159.743 93.5725C159.87 93.5776 159.995 93.6082 160.11 93.6623C160.225 93.7164 160.329 93.793 160.414 93.8875C160.499 93.9821 160.564 94.0928 160.606 94.213C160.648 94.3332 160.665 94.4605 160.657 94.5875V94.6585C160.657 95.0848 160.251 95.5517 159.987 95.9476C159.723 96.3434 159.428 96.6479 159.154 96.9626C159.139 97.0362 159.139 97.1122 159.154 97.1859C159.112 97.8661 159.034 98.5437 158.921 99.2159C158.763 99.7014 158.545 100.165 158.271 100.596C158.192 100.698 158.081 100.769 157.957 100.799C157.429 101.002 156.871 101.155 156.363 101.398C156.157 101.493 155.985 101.647 155.867 101.84C155.75 102.034 155.693 102.258 155.703 102.484C155.591 102.982 155.399 103.458 155.135 103.895C155.064 104.068 154.973 104.23 154.851 104.474L154.759 103.925C154.201 105.032 153.744 106.26 152.191 105.225C152.384 105.58 152.537 105.813 152.658 106.057C152.748 106.211 152.774 106.394 152.73 106.567C152.687 106.739 152.577 106.888 152.425 106.981C152.347 107.02 152.266 107.051 152.181 107.072C151.775 107.184 151.339 107.234 150.902 107.316C150.902 108.107 150.781 108.249 149.887 107.975C150.324 108.99 149.766 109.609 148.943 110.076C149.056 110.198 149.182 110.307 149.319 110.401C149.755 110.645 149.755 110.716 149.319 111.061C148.883 111.406 148.639 111.568 148.578 111.883C148.527 112.297 148.628 112.715 148.862 113.06C149.035 113.324 149.441 113.436 149.806 113.659C149.242 113.794 148.66 113.842 148.081 113.801C147.492 113.639 146.959 113.32 146.538 112.878C146.301 112.496 146.171 112.058 146.162 111.609C146.081 111.162 146.02 110.706 146.589 110.462H146.162L146.65 109.224H146.761L146.853 109.731H146.924L147.147 108.432C146.619 108.371 146.619 108.057 146.802 107.681C146.802 107.61 146.934 107.529 146.913 107.498C146.548 106.686 147.279 106.128 147.38 105.468C147.482 104.809 147.522 104.118 147.614 103.438C147.736 102.576 147.888 101.713 147.989 100.82C148.081 100.32 148.081 99.8072 147.989 99.3072C147.929 99.1158 147.827 98.9397 147.692 98.7908C147.558 98.642 147.392 98.5239 147.208 98.4445C146.091 98.0486 145.787 97.0336 145.35 96.1506C145.105 95.4071 144.719 94.7179 144.214 94.1206C144.098 94.0029 144.033 93.8443 144.033 93.6791C144.033 93.5138 144.098 93.3553 144.214 93.2375C144.342 93.108 144.451 92.9611 144.538 92.8011C144.132 92.6691 144.021 92.3951 144.214 92.05C144.464 91.5814 144.756 91.1364 145.086 90.7203C145.201 90.6179 145.291 90.4907 145.349 90.3484C145.408 90.2061 145.433 90.0524 145.423 89.8989C145.413 89.7454 145.369 89.5961 145.293 89.4624C145.217 89.3286 145.112 89.2139 144.985 89.1268C144.782 88.888 144.621 88.617 144.508 88.3249L144.295 87.9189H144.122L143.808 88.7208L143.493 88.4873C143.392 88.3985 143.275 88.3296 143.148 88.2843C142.904 88.2234 142.661 88.2234 142.671 87.8783C142.102 87.7261 142.052 87.2186 141.859 86.7821C141.758 86.5414 141.598 86.3298 141.394 86.1667C141.19 86.0035 140.949 85.8941 140.692 85.8483C140.217 85.71 139.809 85.4032 139.545 84.9856C139.301 84.7014 139.067 84.5085 138.682 84.7927C138.592 84.8331 138.496 84.854 138.398 84.854C138.3 84.854 138.203 84.8331 138.113 84.7927C137.281 84.3157 136.459 83.7777 135.667 83.2905C135.579 83.2238 135.506 83.1381 135.456 83.0398C135.405 82.9414 135.376 82.8329 135.373 82.7221C135.419 82.4542 135.404 82.1794 135.331 81.9178C135.257 81.6562 135.126 81.4143 134.947 81.2098C134.541 80.6312 134.084 80.073 133.729 79.4843C133.373 78.8956 133.17 78.3982 132.856 77.8806C132.744 77.6979 132.5 77.5964 132.308 77.4441L132.145 77.5659C132.318 77.9313 132.5 78.2967 132.683 78.6723L133.698 80.5805C133.769 80.7226 133.861 80.8444 133.921 80.9865C133.982 81.1286 134.053 81.3417 134.124 81.5244L133.891 81.6259C133.671 81.1105 133.413 80.6118 133.12 80.1339C132.906 79.8872 132.657 79.675 132.379 79.5046C132.379 79.1696 132.49 78.9057 132.379 78.8347C131.918 78.2567 131.573 77.5949 131.364 76.8859C131.282 76.7336 131.151 76.5205 130.998 76.4799C130.136 76.2667 129.983 75.4649 129.648 74.8457C129.467 74.5885 129.32 74.3087 129.212 74.0134C128.996 73.2724 128.941 72.4938 129.049 71.7297C129.043 70.9801 128.968 70.2327 128.826 69.4967V69.4967Z" fill="#C1C1C1"/>
<path d="M179.942 105.458C179.754 105.37 179.6 105.224 179.503 105.041C179.406 104.858 179.371 104.648 179.404 104.443C179.382 103.963 179.179 103.51 178.835 103.174C178.359 102.627 178.106 101.921 178.125 101.195C178.046 100.503 177.791 99.8422 177.384 99.2769C177.174 98.8539 177.084 98.3816 177.123 97.911C177.163 97.4405 177.33 96.9897 177.607 96.6075C177.79 96.2319 177.952 95.968 177.678 95.5925C177.616 95.4962 177.587 95.3819 177.597 95.2677C177.628 94.8507 177.573 94.4319 177.435 94.0372C177.297 93.6426 177.079 93.2806 176.795 92.9738C176.508 92.6877 176.312 92.3221 176.235 91.9241C176.157 91.5261 176.2 91.114 176.359 90.7407C176.412 90.4606 176.357 90.1708 176.206 89.9288C176.132 89.85 176.039 89.7897 175.937 89.7527C175.835 89.7157 175.726 89.703 175.618 89.7156C175.191 89.7156 174.917 89.7156 174.755 89.2792C174.593 88.8427 174.065 88.9544 173.689 89.0356C173.314 89.1168 172.948 89.3096 172.573 89.4314C172.396 89.474 172.216 89.5012 172.035 89.5126C171.558 89.5141 171.082 89.5617 170.614 89.6547C170.472 89.7147 170.316 89.7342 170.164 89.7109C170.011 89.6876 169.868 89.6225 169.751 89.5227C169.293 89.1881 168.859 88.8218 168.452 88.4266C168.08 87.9742 167.741 87.4959 167.437 86.9954C167.366 86.904 167.234 86.8431 167.153 86.7416C167.071 86.6401 166.939 86.5082 166.939 86.3864C166.865 85.8043 166.913 85.213 167.082 84.6508C167.249 84.2268 167.249 83.7552 167.082 83.3312C166.716 82.773 167.082 82.4381 167.274 82.0422C167.548 81.484 167.873 80.9561 168.198 80.4283C168.281 80.3111 168.404 80.2281 168.543 80.1949C169.091 80.0224 169.467 79.7584 169.457 79.0885C169.46 78.8771 169.522 78.6707 169.635 78.4917C169.747 78.3128 169.907 78.1681 170.096 78.0735C170.427 77.8126 170.717 77.5048 170.959 77.1601C171.578 77.6574 172.258 77.4138 172.928 77.1601C173.358 76.9861 173.808 76.8668 174.268 76.8048C174.914 76.7255 175.565 76.6814 176.217 76.6729C176.47 76.6817 176.721 76.7157 176.968 76.7744C176.836 77.1601 176.704 77.5254 176.562 77.9619C176.866 78.5303 177.577 78.2359 178.135 78.4694C178.196 78.4694 178.328 78.4694 178.328 78.4694C178.46 79.1291 179.13 78.9668 179.515 79.251C179.901 79.5352 180.023 79.3119 180.053 78.9363C180.058 78.7693 180.128 78.6107 180.247 78.4935C180.366 78.3763 180.526 78.3095 180.693 78.307C180.806 78.3158 180.916 78.3468 181.017 78.3983C181.58 78.6326 182.156 78.8326 182.743 78.9972C183.045 79.0481 183.354 79.0272 183.646 78.9363C184.032 78.8247 184.316 78.7841 184.479 79.2814C184.704 79.9527 184.968 80.6102 185.27 81.2505C185.514 81.7682 185.991 82.2655 186.042 82.7527C186.252 83.5162 186.552 84.2521 186.935 84.9451C187.026 85.163 187.161 85.3599 187.331 85.5237C187.635 85.8282 187.991 86.0819 188.265 86.4168C188.407 86.5894 188.386 86.8939 188.518 87.1071C188.565 87.1701 188.626 87.2207 188.697 87.2543C188.768 87.2879 188.846 87.3036 188.924 87.2999C189.665 87.1375 190.396 86.9345 191.218 86.7214C191.199 87.0917 191.128 87.4574 191.005 87.8074C190.501 89.0111 189.747 90.094 188.792 90.9843C188.028 91.7628 187.366 92.636 186.823 93.5827C186.762 93.6639 186.742 93.8669 186.823 93.8974C187.219 94.2222 186.965 94.6485 187.036 95.024C187.107 95.3996 187.321 95.6635 187.371 96.039C187.489 96.5307 187.517 97.0397 187.453 97.5413C187.382 97.8661 187.016 98.1604 186.742 98.404C186.316 98.7998 185.879 99.1551 185.453 99.5408C185.382 99.5916 185.402 99.7743 185.453 99.8859C185.504 99.9976 185.595 100.282 185.656 100.475C185.739 100.689 185.735 100.927 185.644 101.138C185.553 101.349 185.382 101.515 185.169 101.601V101.601C184.986 101.693 184.814 101.804 184.732 101.845C184.732 102.21 184.793 102.525 184.672 102.708C184.167 103.831 183.257 104.722 182.124 105.204C181.611 105.299 181.092 105.353 180.571 105.367C180.358 105.372 180.147 105.403 179.942 105.458V105.458Z" fill="#C1C1C1"/>
<path d="M152.902 59.9659L152.293 59.4787L153.643 58.7885V58.2201L152.516 57.7938V57.6213L153.694 57.7837L152.8 57.2051C152.252 57.5299 152.08 57.398 152.059 56.5758H152.445C152.202 56.2206 151.999 55.8755 151.745 55.5608C151.445 55.1178 151.012 54.7811 150.509 54.5988C150.006 54.4165 149.458 54.398 148.943 54.5458C148.737 54.6253 148.515 54.6599 148.294 54.6473C148.06 54.6473 147.644 54.8605 147.614 54.3022C147.614 54.2312 147.177 54.1804 146.913 54.1297V53.9267L148.05 53.8658L146.122 53.3177C146.259 53.2261 146.406 53.1479 146.558 53.0842C147.116 52.9929 147.685 52.9421 148.243 52.8305C148.578 52.7696 148.994 52.7594 148.994 52.2113H148.182V52.0185L150.05 51.5313V51.1862C150.05 51.1862 150.131 51.1862 150.161 51.1862C150.699 51.379 151.176 50.973 151.653 50.9629C151.804 50.9559 151.953 50.9823 152.092 51.0402C152.231 51.0981 152.355 51.1861 152.455 51.2978C152.597 51.4196 152.892 50.8309 153.277 51.1659C153.349 51.2268 153.531 51.1659 153.704 51.1659L153.491 50.7903L155.439 51.2877V51.1151C155.275 51.1034 155.114 51.0657 154.962 51.0035C154.907 50.9799 154.858 50.9437 154.819 50.8979C154.781 50.8521 154.753 50.7979 154.739 50.7396C154.739 50.6685 154.891 50.5264 154.983 50.5163C155.47 50.5163 155.998 50.5163 156.465 50.4148C156.8 50.355 157.139 50.3143 157.48 50.293C158.85 50.293 160.22 50.293 161.59 50.4046C162.213 50.5037 162.825 50.6635 163.417 50.8817L161.946 51.1253V51.3587H162.352C162.593 51.3467 162.834 51.3196 163.072 51.2775L162.788 51.7444C163.416 51.6653 164.036 51.5397 164.645 51.3689C164.982 51.2416 165.341 51.1875 165.7 51.2103C166.059 51.233 166.409 51.3321 166.726 51.5008C165.539 52.0692 164.26 52.4346 163.499 53.5308C163.771 53.5103 164.044 53.5308 164.311 53.5917C164.483 53.6628 164.564 53.9368 164.717 54.1703H163.894C163.894 54.5052 164.706 54.7285 164.057 55.1853L164.422 55.571L163.58 55.6928L163.965 56.1292H162.666C162.412 56.4642 162.463 56.7281 162.95 56.9209C163.054 56.9502 163.152 56.9997 163.236 57.0665C163.321 57.1334 163.392 57.2163 163.445 57.3106C163.498 57.4049 163.531 57.5086 163.544 57.6159C163.557 57.7232 163.548 57.8319 163.519 57.9359V57.9359L162.382 57.469L161.996 57.9359L163.427 58.078C162.465 58.7363 161.364 59.1635 160.21 59.3265C160.017 59.3265 159.784 59.5701 159.652 59.7528C159.453 60.1049 159.153 60.3896 158.792 60.5705C158.43 60.7513 158.023 60.82 157.622 60.7678C157.5 60.7678 157.226 61.0621 157.226 61.2042C157.262 61.4231 157.23 61.6478 157.134 61.8477C157.037 62.0476 156.882 62.2128 156.688 62.3207C156.627 62.3207 156.597 62.4527 156.576 62.5339C156.485 62.9399 156.363 63.356 156.292 63.7722C156.221 64.1883 155.988 64.0868 155.734 63.9752C155.386 63.8538 155.046 63.7079 154.719 63.5387C154.498 63.4156 154.312 63.2373 154.181 63.0211C153.714 62.1482 153.277 61.2854 152.861 60.4227C152.846 60.2692 152.86 60.1142 152.902 59.9659V59.9659Z" fill="#C1C1C1"/>
<path d="M224.155 97.0745C224.348 97.2136 224.519 97.3813 224.662 97.5718C224.823 97.7989 224.918 98.0658 224.936 98.3432C224.936 98.9827 225.373 99.2161 225.748 99.5308C225.82 99.5836 225.885 99.6449 225.941 99.7135C226.079 100.03 226.296 100.306 226.571 100.515C227.004 100.916 227.326 101.424 227.504 101.987C227.649 102.377 227.703 102.794 227.661 103.208C227.618 103.622 227.482 104.02 227.261 104.372C226.848 104.993 226.542 105.68 226.357 106.402C225.886 106.712 225.338 106.884 224.774 106.9L224.48 106.737C224.344 106.822 224.193 106.88 224.035 106.906C223.877 106.932 223.715 106.927 223.559 106.89C223.404 106.853 223.257 106.786 223.127 106.691C222.998 106.597 222.888 106.478 222.805 106.341C222.754 106.262 222.713 106.177 222.683 106.088C222.524 105.803 222.333 105.538 222.115 105.296L221.912 105.438L222.074 104.596L221.303 105.469C221.069 105.073 220.927 104.596 220.613 104.393C220.208 104.166 219.744 104.07 219.283 104.119C218.652 104.171 218.036 104.34 217.466 104.616C217.079 104.904 216.609 105.058 216.126 105.052C215.762 105.058 215.408 105.175 215.111 105.387C214.958 105.496 214.77 105.544 214.583 105.523C214.396 105.503 214.223 105.415 214.096 105.276C214.016 105.145 213.984 104.991 214.005 104.839C214.005 104.596 214.157 104.322 214.106 104.098C213.967 103.613 213.8 103.135 213.609 102.667C213.518 102.424 213.335 102.18 213.609 101.916C213.609 101.916 213.528 101.693 213.508 101.571C213.508 101.175 213.274 100.668 213.457 100.414C213.64 100.16 214.218 99.9571 214.614 99.7236C215.182 99.3988 216.086 99.6424 216.339 98.7797C216.339 98.6477 216.339 98.5158 216.421 98.394L216.644 98.0895L216.847 98.2519C217.132 97.8908 217.445 97.5515 217.781 97.2369C218.166 96.8918 218.4 97.1049 218.542 97.7038C218.741 97.4036 218.958 97.1156 219.192 96.841C219.422 96.6569 219.666 96.4906 219.922 96.3437C220.011 96.2631 220.093 96.1748 220.166 96.0798L221.648 96.435C221.079 97.3079 221.079 97.3079 221.942 97.9474L222.429 98.2823L223.049 98.668L223.312 97.1861C223.394 96.7294 223.465 96.2422 223.536 95.7651H223.729L224.155 97.0745Z" fill="#C1C1C1"/>
<path d="M145.208 58.8492C145.269 58.1996 144.65 58.2199 144.346 57.9053C144.193 58.2504 144.102 58.6158 143.676 58.2301C143.594 58.159 143.391 58.2301 143.249 58.2301C142.549 58.159 141.859 58.088 141.219 57.9865C141.077 57.9865 140.966 57.8342 140.783 57.7327L141.402 57.5297C140.813 57.4181 140.316 57.3876 140.57 56.7279C140.672 56.4307 140.886 56.1854 141.167 56.0449C141.448 55.9044 141.773 55.8799 142.072 55.9768C141.95 56.2407 141.717 56.5249 141.737 56.7685C141.757 57.0121 142.031 57.2861 142.214 57.5196C142.031 56.3219 142.123 56.1087 142.985 55.9971C143.412 55.9362 143.625 56.1899 143.665 56.9309C144.018 56.7214 144.427 56.6238 144.836 56.651C145.246 56.6782 145.637 56.8288 145.959 57.0831C146.138 57.1671 146.331 57.2154 146.528 57.2252H146.7C147.09 57.4001 147.467 57.6037 147.827 57.8342C148.09 58.0806 148.328 58.3526 148.537 58.6462L148.03 58.7376L147.959 58.8695L150.243 60.0977L149.38 61.1939L148.243 60.1789L148.02 60.7168C148.456 61.1127 149.248 61.407 149.035 62.4017L148.385 62.3408L148.669 63.0107C147.868 62.6758 147.076 62.6555 146.568 61.9348C146.42 61.7408 146.217 61.5962 145.985 61.5201C145.753 61.444 145.503 61.44 145.269 61.5085C145.052 61.5104 144.836 61.4761 144.63 61.407C144.63 61.2243 144.691 61.0518 144.741 60.8792C144.761 60.7673 144.802 60.6603 144.863 60.5646C144.955 60.4244 145.081 60.3094 145.229 60.2296C145.289 60.2296 145.432 60.3514 145.533 60.4225L145.158 60.9097L145.98 60.8183V60.6762L145.706 60.5849C145.838 60.1484 146.65 60.118 146.365 59.4887C146.281 59.2614 146.117 59.072 145.905 58.9547C145.693 58.8374 145.446 58.8 145.208 58.8492Z" fill="#C1C1C1"/>
<path d="M141.554 51.7648C141.026 52.0693 140.539 51.5516 139.961 51.1253C140.765 50.983 141.58 50.9015 142.397 50.8817C143.133 50.8613 143.863 50.7278 144.559 50.4859C145.101 50.4097 145.651 50.4097 146.193 50.4859C147.208 50.4859 148.223 50.5468 149.238 50.6178C149.553 50.684 149.859 50.7862 150.151 50.9223C149.938 51.034 149.755 51.1456 149.573 51.2268C148.71 51.6024 147.827 51.9779 146.924 52.3332C146.739 52.4165 146.545 52.4746 146.345 52.5057C146.107 52.5211 145.881 52.6201 145.708 52.7853C145.536 52.9506 145.427 53.1715 145.401 53.4091L144.153 53.9267L144.691 54.2414C144.224 54.3124 143.858 54.7387 143.422 54.2414C143.422 54.2414 143.209 54.2414 143.097 54.2414C142.235 54.411 141.345 54.3763 140.499 54.1399L141.361 53.8861L141.26 53.6019L142.041 53.6628L142.092 53.5309L141.412 53.2061C141.818 52.5768 142.427 53.1147 142.894 52.9828L141.676 52.252L141.828 52.1302C142.559 52.4144 143.229 51.9779 143.99 51.9678C143.249 51.4806 142.427 52.1302 141.554 51.7648Z" fill="#C1C1C1"/>
<path d="M131.272 58.0372L132.846 57.9357V57.8342C132.521 57.8342 132.196 57.7632 131.831 57.753C131.465 57.7429 131.191 57.753 130.876 57.753V57.5703L131.526 57.3267L130.633 57.1034C130.937 56.3828 131.577 56.2914 132.287 56.1899V56.5756H132.47C132.764 56.2914 133.018 56.3929 133.292 56.6264C133.566 56.8598 133.678 56.2001 133.952 56.5452C134.106 56.7605 134.295 56.9491 134.51 57.1034L134.307 56.2001H135.129C135.259 56.6554 135.454 57.0896 135.708 57.4891C135.972 57.8139 136.449 57.956 136.794 58.291L136.266 58.3417L136.5 58.768C136.194 58.8188 135.882 58.8188 135.576 58.768C134.918 58.6168 134.229 58.6882 133.617 58.971C133.262 59.0725 132.754 59.2654 132.48 58.6868C132.48 58.6056 132.247 58.6056 132.135 58.5752L131.222 58.3113L131.272 58.0372Z" fill="#C1C1C1"/>
<path d="M225.647 94.0495L225.211 94.354L226.51 95.7141C226.221 95.7069 225.939 95.6303 225.686 95.4907C225.433 95.3511 225.218 95.1527 225.058 94.9123C225 94.7765 224.891 94.6687 224.755 94.6119C224.618 94.555 224.465 94.5536 224.328 94.6078C224.251 94.6408 224.183 94.6895 224.127 94.7507C224.071 94.8119 224.029 94.8843 224.003 94.963C223.959 95.0812 223.871 95.1773 223.757 95.2306C223.643 95.2838 223.512 95.2898 223.394 95.2472C223.331 95.2233 223.273 95.189 223.221 95.1457C222.876 94.7397 222.501 94.7499 221.932 94.9326L222.399 94.283C222.36 94.0734 222.261 93.8798 222.113 93.7264C221.965 93.573 221.775 93.4665 221.567 93.4202C221.156 93.3244 220.752 93.1989 220.359 93.0447C220.237 92.9939 220.166 92.8011 220.054 92.659L220.481 92.456L219.395 91.9383C219.623 91.8476 219.857 91.773 220.095 91.715C220.157 91.6943 220.222 91.6861 220.288 91.6907C220.353 91.6953 220.416 91.7127 220.475 91.742C220.533 91.7712 220.585 91.8116 220.628 91.861C220.671 91.9104 220.704 91.9677 220.724 92.0297C220.724 92.0297 220.724 92.0906 220.724 92.1109C220.795 92.3735 220.884 92.6311 220.988 92.8823H221.171C221.245 92.7514 221.337 92.6318 221.445 92.527C221.78 92.2327 222.064 91.9688 222.592 92.3748C223.12 92.7808 223.607 92.6691 224.114 92.9229C224.653 93.259 225.165 93.6357 225.647 94.0495V94.0495Z" fill="#C1C1C1"/>
<path d="M211.863 90.6999L212.401 90.8826L214.695 88.7207L215.375 89.4008C214.705 90.0402 214.675 90.4766 215.304 91.1364C214.99 91.3647 214.743 91.6742 214.591 92.0318C214.439 92.3894 214.387 92.7816 214.441 93.1664L212.269 92.7401C212.178 92.0397 211.589 91.4815 211.863 90.6999Z" fill="#C1C1C1"/>
<path d="M188.701 97.947C189.838 97.9978 189.899 96.9321 190.528 96.4956C190.705 96.655 190.82 96.8713 190.853 97.107C190.887 97.3426 190.836 97.5824 190.711 97.7846C190.674 97.868 190.653 97.9575 190.65 98.0486C190.345 99.1346 190.061 100.211 189.726 101.297C189.7 101.375 189.658 101.448 189.604 101.511C189.549 101.574 189.482 101.625 189.408 101.662C189.333 101.698 189.252 101.72 189.169 101.725C189.086 101.731 189.003 101.719 188.924 101.692C188.843 101.662 188.767 101.618 188.701 101.56C188.537 101.342 188.433 101.085 188.399 100.815C188.365 100.544 188.403 100.269 188.508 100.018C188.626 99.6922 188.688 99.3489 188.691 99.0026C188.721 98.6575 188.701 98.3226 188.701 97.947Z" fill="#C1C1C1"/>
<path d="M171.761 65.65L171.294 65.5079V64.8278C171.294 64.7466 171.416 64.6147 171.436 64.6248C171.72 64.7466 171.862 64.5436 171.832 64.3508C171.801 64.1579 171.517 64.0666 171.344 63.9245C171.172 63.7824 171.233 63.9245 171.141 63.9245L171.213 63.5692C170.715 63.1023 170.522 62.7572 170.654 62.5542C170.938 62.1482 171.568 61.9046 171.842 62.0772C172.116 62.2497 172.268 62.5847 171.964 63.1734L173.192 64.8684C173.305 64.8857 173.41 64.9351 173.496 65.0105C173.496 65.0714 173.405 65.2744 173.354 65.4064L173.171 65.9342L170.918 66.2894L171.761 65.65Z" fill="#C1C1C1"/>
<path d="M210.635 93.8364L209.996 93.7857C209.508 93.0853 208.981 92.2835 208.402 91.5019C207.824 90.7204 207.387 90.02 206.758 89.208C207.925 89.34 208.372 90.223 209.102 90.7914C209.594 91.1895 209.996 91.6877 210.28 92.253C210.371 92.3951 210.635 92.4357 210.787 92.5169L210.625 93.8567L210.635 93.8364Z" fill="#C1C1C1"/>
<path d="M193.482 55.9974C193.077 56.0631 192.662 56.0409 192.266 55.9324C191.87 55.8238 191.503 55.6314 191.188 55.3681C191.669 54.9693 192.121 54.5351 192.538 54.069C193.02 53.59 193.649 53.2863 194.324 53.2062C195.016 53.0726 195.713 52.9744 196.415 52.9118C196.73 52.8408 197.044 52.7494 197.359 52.6479L197.45 52.8611C197.304 52.9834 197.135 53.0765 196.953 53.1351C196.299 53.2186 195.651 53.3474 195.014 53.5208C194.176 53.817 193.431 54.328 192.852 55.0027C192.771 55.1042 192.852 55.429 192.944 55.561C193.099 55.7338 193.281 55.8811 193.482 55.9974Z" fill="#C1C1C1"/>
<path d="M163.6 61.7826L162.798 61.5492L163.519 61.1736H162.717L162.636 61.0721L163.387 60.6357L163.326 60.453L163.752 61.0112L165.488 60.5748V60.3921C165.792 60.6152 166.065 60.8781 166.3 61.1736C166.543 61.6101 166.046 61.7319 165.823 61.9146C165.519 62.1339 165.174 62.2893 164.808 62.3713C164.587 62.4221 164.358 62.4221 164.138 62.3713C163.794 62.2892 163.455 62.1876 163.123 62.0668L163.6 61.7826Z" fill="#C1C1C1"/>
<path d="M221.039 74.0642L219.658 74.3991C220.075 73.7191 220.298 73.6176 221.333 73.6176C221.414 73.4653 221.516 73.3131 221.587 73.1507C221.634 73.0519 221.675 72.9502 221.709 72.8462C221.932 72.8462 222.196 72.8462 222.226 72.8462C222.429 72.4199 222.592 71.9834 222.754 71.547C222.866 71.2729 222.754 70.8466 223.282 70.8669C223.43 71.0798 223.51 71.3331 223.51 71.5926C223.51 71.8522 223.43 72.1055 223.282 72.3184C223.119 72.6556 223.059 73.0333 223.109 73.4044C223.17 74.0033 222.643 74.0033 222.389 74.0743C221.922 74.1961 221.526 74.3179 221.374 74.8559H221.201L221.039 74.0642Z" fill="#C1C1C1"/>
<path d="M128.745 55.4595C129.78 55.4349 130.812 55.5965 131.79 55.9365L130.379 56.7993C129.963 57.0632 129.658 57.3169 129.364 57.5199L128.349 56.8805C128.532 56.5049 129.1 56.1903 128.745 55.4595Z" fill="#C1C1C1"/>
<path d="M139.22 52.9524L139.524 52.6885L138.306 52.455C138.54 51.8359 138.824 51.4908 139.413 51.5923C139.563 51.6313 139.71 51.6857 139.849 51.7547C140.013 51.8249 140.188 51.8661 140.367 51.8765C140.61 52.1201 140.803 52.4753 141.189 52.1505L141.717 52.5768C141.108 53.4193 140.357 53.5411 139.22 52.9524Z" fill="#C1C1C1"/>
<path d="M176.866 51.3588L178.693 51.5111L178.48 51.1152L181.525 52.3434V52.5464H180.51C180.439 52.3941 180.419 52.2216 180.327 52.1607C180.267 52.1304 180.201 52.1146 180.134 52.1146C180.067 52.1146 180.001 52.1304 179.942 52.1607C179.617 52.3738 179.312 52.6377 178.927 52.9321L178.054 52.7088L178.429 52.5159H177.881V52.4144L178.581 52.1708V52.0287C178.289 52.1195 177.984 52.1606 177.678 52.1505C177.387 52.0155 177.119 51.8338 176.886 51.6126L176.866 51.3588Z" fill="#C1C1C1"/>
<path d="M139.626 54.3226L140.052 54.2109V54.5053C141.311 55.3782 142.701 54.5053 144.021 54.9417C143.949 55.1528 143.797 55.3269 143.597 55.4258C143.397 55.5247 143.166 55.5405 142.955 55.4695H142.864C142.688 55.4493 142.511 55.4493 142.336 55.4695C141.563 55.483 140.791 55.4559 140.022 55.3883C139.9 55.3883 139.758 55.1346 139.687 54.962C139.641 54.752 139.621 54.5374 139.626 54.3226V54.3226Z" fill="#C1C1C1"/>
<path d="M131.729 54.8196H131.556H131.404C131.353 54.8196 131.404 54.7384 131.404 54.7181C131.962 54.0076 132.561 54.4339 133.14 54.6369C133.394 54.7283 133.637 54.8196 134.003 54.9719L133.698 54.2817L134.053 54.0381C134.114 54.0381 134.165 54.1091 134.185 54.1497C134.307 54.4542 134.398 54.7892 134.865 54.5456C134.926 54.5456 135.17 54.6471 135.2 54.7384C135.2 54.8065 135.184 54.8736 135.152 54.9337C135.12 54.9939 135.074 55.0454 135.018 55.0835C134.155 55.2459 133.292 55.3779 132.429 55.52C132.429 55.52 132.348 55.4591 132.237 55.3576L133.099 55.1343V55.0023L131.171 55.1647V55.0734L131.749 54.8602L131.729 54.8196Z" fill="#C1C1C1"/>
<path d="M232.184 109.904L234.569 107.874C234.672 107.916 234.768 107.974 234.853 108.047C234.934 108.118 235.026 108.31 234.995 108.341C234.741 108.615 234.731 109.102 234.264 109.204C234.158 109.238 234.065 109.305 234 109.397C233.29 110.28 233.29 110.28 232.184 109.904Z" fill="#C1C1C1"/>
<path d="M216.309 92.2736L216.745 93.1871L216.38 93.4611L215.944 92.5983C215.944 93.5423 215.944 93.6134 215.619 93.8062C215.548 93.4611 215.467 93.116 215.395 92.7912H215.274C215.456 92.1924 215.639 91.6037 215.822 90.9845C216.38 90.9033 217.03 91.5224 217.547 90.7104C217.365 91.3093 217.304 91.3499 216.827 91.3195C216.568 91.2789 216.304 91.2789 216.045 91.3195C215.538 91.492 215.873 91.7559 215.974 91.9792L216.888 91.6747L216.938 91.7965L216.309 92.2736Z" fill="#C1C1C1"/>
<path d="M169.345 65.3251V64.4623C169.544 64.2897 169.734 64.1067 169.913 63.9142C170.218 63.5691 170.522 63.8026 170.786 63.9142C171.05 64.0259 170.999 64.2593 170.736 64.4217C170.736 64.4217 170.675 64.5334 170.675 64.6044C170.675 64.6755 170.736 65.1627 170.675 65.2134C170.3 65.4003 169.905 65.5433 169.497 65.6397C169.416 65.6397 169.304 65.4976 169.203 65.4164L169.345 65.3251Z" fill="#C1C1C1"/>
<path d="M138.124 55.9973L137.748 56.3018L138.296 56.5454C138.458 57.1239 137.86 57.1036 137.626 57.3371C137.626 57.3371 137.322 57.1645 137.159 57.0732L136.205 56.5251V56.3525L137.037 56.4946L136.601 56.0379C136.799 55.8327 137.069 55.7135 137.354 55.706C137.639 55.6984 137.915 55.803 138.124 55.9973V55.9973Z" fill="#C1C1C1"/>
<path d="M224.307 66.7461H223.83C223.881 67.2333 223.932 67.7103 223.982 68.1468H223.515C223.82 66.8577 223.11 65.4672 223.85 64.0259C224.013 65.0206 224.155 65.8833 224.307 66.7461Z" fill="#C1C1C1"/>
<path d="M210.625 93.8567C210.956 93.969 211.295 94.0539 211.64 94.1105C212.178 94.1714 212.716 94.1714 213.264 94.2018C213.397 94.1895 213.531 94.2256 213.64 94.3033L213.315 94.4759L214.157 94.8108V94.9428C213.736 94.9441 213.315 94.9136 212.899 94.8514C212.247 94.762 211.602 94.6264 210.97 94.4454C210.859 94.4188 210.763 94.3497 210.702 94.2529C210.641 94.1561 210.621 94.0394 210.645 93.9278C210.641 93.8974 210.641 93.8668 210.645 93.8364L210.625 93.8567Z" fill="#C1C1C1"/>
<path d="M223.201 70.1665L222.947 70.7248C222.724 70.0244 222.825 69.791 223.302 69.7808L223.465 68.5933C223.901 68.847 224.003 69.5474 224.662 69.3241L224.764 69.8214L223.851 70.3492L223.201 70.1665Z" fill="#C1C1C1"/>
<path d="M222.947 53.8656C222.658 53.8553 222.369 53.8247 222.084 53.7743C221.993 53.7743 221.851 53.5611 221.871 53.4799C221.892 53.3987 222.044 53.2668 222.155 53.1957C222.191 53.1806 222.229 53.1729 222.267 53.1729C222.305 53.1729 222.343 53.1806 222.379 53.1957C223.018 53.292 223.668 53.292 224.307 53.1957C224.429 53.1957 224.551 53.3581 224.662 53.4393C224.561 53.5307 224.47 53.7032 224.348 53.7235C223.881 53.7946 223.424 53.825 222.947 53.8656Z" fill="#C1C1C1"/>
<path d="M236.599 106.615C236.539 106.768 236.464 106.914 236.376 107.052C236.112 107.417 235.827 107.772 235.543 108.067C235.535 108.076 235.524 108.083 235.513 108.087C235.502 108.092 235.49 108.095 235.477 108.095C235.465 108.095 235.453 108.092 235.441 108.087C235.43 108.083 235.42 108.076 235.411 108.067C235.401 108.041 235.401 108.012 235.411 107.985L235.005 107.194L235.371 106.24C235.736 106.067 236.01 107.123 236.589 106.392L236.599 106.615Z" fill="#C1C1C1"/>
<path d="M136.459 54.6372V54.2921L137.109 54.6372L136.956 54.2616C137.213 54.2312 137.472 54.2312 137.728 54.2616C137.819 54.2616 137.931 54.556 137.91 54.6981C137.89 54.8402 137.768 55.2056 137.636 55.2259C137.504 55.2462 137.21 55.0939 136.997 55.0229C136.784 54.9518 136.682 54.9518 136.53 54.9112C136.37 54.8793 136.214 54.8317 136.063 54.7691C135.911 54.6734 135.766 54.5683 135.627 54.4545C135.698 54.3733 135.799 54.2312 135.82 54.2413C135.988 54.3307 136.148 54.4361 136.297 54.556C136.332 54.5927 136.363 54.6336 136.388 54.6778L136.459 54.6372Z" fill="#C1C1C1"/>
<path d="M142.63 82.8645C142.801 82.5744 143.07 82.356 143.389 82.2496C143.709 82.1432 144.055 82.1561 144.366 82.2859C145.046 82.631 145.706 83.0167 146.467 83.4227L145.452 83.5445C145.229 83.2705 145.086 82.9964 144.863 82.8746C144.458 82.6575 144.019 82.5132 143.564 82.4483C143.27 82.428 142.955 82.7021 142.63 82.8645Z" fill="#C1C1C1"/>
<path d="M215.801 83.9604C216.573 84.1939 216.705 84.539 216.41 84.9754C216.116 85.4119 216.228 85.625 216.766 85.7367C216.928 85.7801 217.088 85.8344 217.243 85.8991L217.06 86.295C216.705 85.96 216.116 86.0311 215.761 85.5642C215.406 85.0973 216.187 84.61 215.801 83.9604Z" fill="#C1C1C1"/>
<path d="M140.296 55.8451C140.289 55.943 140.263 56.0386 140.219 56.1263C140.175 56.2139 140.114 56.2918 140.039 56.3553C139.964 56.4187 139.877 56.4665 139.784 56.4957C139.69 56.5248 139.591 56.5349 139.494 56.5251V56.5251C139.423 56.5251 139.291 56.5251 139.281 56.586C139.22 57.0225 138.895 56.8702 138.804 56.6977C138.712 56.5251 138.601 56.0684 138.733 55.9161C138.97 55.7522 139.256 55.6735 139.545 55.6928C139.8 55.713 140.052 55.7641 140.296 55.8451V55.8451Z" fill="#C1C1C1"/>
<path d="M217.649 88.7207L217.73 89.1267L217.568 89.218L216.959 88.4263L216.492 88.5177L216.421 88.3959L217.882 87.5737L217.984 88.7207H217.649Z" fill="#C1C1C1"/>
<path d="M207.793 50.9932L205.377 51.5514C205.377 51.3992 205.377 51.186 205.459 51.1251C205.787 50.8651 206.187 50.7129 206.605 50.6893C207.023 50.6657 207.438 50.7718 207.793 50.9932Z" fill="#C1C1C1"/>
<path d="M129.425 54.4647C129.791 54.2383 130.175 54.0415 130.572 53.876C130.965 53.7764 131.366 53.7118 131.77 53.6831L131.861 53.876C131.677 54.0616 131.48 54.2345 131.272 54.3936C131.166 54.3267 131.064 54.2521 130.968 54.1703C130.582 54.6372 129.618 54.8199 129.425 54.4647Z" fill="#C1C1C1"/>
<path d="M146.365 84.0115L147.228 84.0826L146.802 83.5852C147.624 83.3721 148.527 83.6867 148.487 84.1942C147.766 84.1333 147.015 84.4886 146.365 84.0115Z" fill="#C1C1C1"/>
<path d="M143.868 62.3513C143.564 62.3513 143.29 62.463 143.188 62.3513C142.874 62.0874 142.681 62.3513 142.407 62.3513C142.121 62.3923 141.83 62.3923 141.544 62.3513C142.133 61.4277 142.285 61.3363 143.016 61.7829L143.158 61.8641L143.868 62.3513Z" fill="#C1C1C1"/>
<path d="M208.595 51.1758L208.433 51.734C207.265 51.9167 206.941 51.8761 206.352 51.3686L208.595 51.1758Z" fill="#C1C1C1"/>
<path d="M182.54 51.4502C181.977 51.5129 181.411 51.54 180.845 51.5314C180.41 51.4572 179.989 51.3168 179.596 51.1152H182.54V51.4502Z" fill="#C1C1C1"/>
<path d="M137.372 53.5407L135.474 53.1449L135.901 52.9622L135.281 52.7896V52.6069C135.537 52.6223 135.791 52.6528 136.043 52.6983C136.294 52.7484 136.539 52.8268 136.774 52.9317C137.011 53.0593 137.239 53.2052 137.454 53.3682L137.372 53.5407Z" fill="#C1C1C1"/>
<path d="M210.513 52.1303L208.392 52.3028L208.301 52.2115C208.646 52.0085 208.981 51.6735 209.316 51.6431C209.734 51.6756 210.143 51.7822 210.524 51.9577L210.513 52.1303Z" fill="#C1C1C1"/>
<path d="M201.561 87.5132C201.783 87.8343 201.976 88.1739 202.14 88.5282C202.14 88.6398 201.957 88.9646 201.795 89.0154C201.48 89.1372 201.358 88.924 201.389 88.6195C201.419 88.315 201.389 87.9293 201.389 87.6045L201.561 87.5132Z" fill="#C1C1C1"/>
<path d="M225.109 109.092L224.551 107.874C224.888 107.842 225.228 107.842 225.566 107.874C225.667 107.874 225.809 108.229 225.759 108.331C225.574 108.61 225.356 108.866 225.109 109.092Z" fill="#C1C1C1"/>
<path d="M219.425 74.46C220.044 74.9573 220.004 75.5562 219.344 75.9216V75.0588L219.09 74.9066L219.425 74.46Z" fill="#C1C1C1"/>
<path d="M175.932 70.9989L176.298 70.8467C176.298 70.9583 176.43 71.0801 176.399 71.141C176.277 71.4151 176.572 71.9327 175.932 71.9632V70.9989Z" fill="#C1C1C1"/>
<path d="M178.247 73.1101L177.313 72.5417V72.4199H178.328L178.247 73.1101Z" fill="#C1C1C1"/>
<path d="M143.594 55.8755L144.985 56.1901L144.924 56.4134C144.508 56.1901 143.899 56.8397 143.594 55.8755Z" fill="#C1C1C1"/>
<path d="M137.596 52.8711C138.052 52.9624 138.357 53.0132 138.672 53.0944C138.698 53.1143 138.72 53.1405 138.734 53.1705C138.748 53.2006 138.754 53.2337 138.753 53.2669C138.721 53.3479 138.659 53.4134 138.58 53.4496C138.154 53.5816 137.88 53.4192 137.596 52.8711Z" fill="#C1C1C1"/>
<path d="M216.471 81.3013L216.015 82.6715C215.629 82.0625 215.73 81.7073 216.471 81.3013Z" fill="#C1C1C1"/>
<path d="M225.931 93.6739C226.166 93.7144 226.407 93.7144 226.642 93.6739C226.824 93.5927 226.956 93.3592 227.241 93.2476C227.159 93.4246 227.056 93.5915 226.936 93.7449C226.828 93.8708 226.674 93.9488 226.509 93.9621C226.344 93.9755 226.18 93.9229 226.053 93.816C226.002 93.7785 225.96 93.7299 225.931 93.6739V93.6739Z" fill="#C1C1C1"/>
<path d="M138.255 55.0735L139.179 54.769L139.26 55.3476C139.071 55.3577 138.881 55.3577 138.692 55.3476C138.547 55.3108 138.404 55.2633 138.266 55.2055L138.255 55.0735Z" fill="#C1C1C1"/>
<path d="M218.248 94.8615L216.817 95.8765C216.881 95.5567 217.065 95.2735 217.331 95.0848C217.597 94.8962 217.925 94.8163 218.248 94.8615V94.8615Z" fill="#C1C1C1"/>
<path d="M137.88 59.4688L138.672 59.9356V60.0574L137.413 59.9458L137.88 59.4688Z" fill="#C1C1C1"/>
<path d="M138.195 53.9976L139.342 54.0991C138.915 54.6167 138.56 54.2919 138.184 54.0991L138.195 53.9976Z" fill="#C1C1C1"/>
<path d="M132.541 53.5307L133.698 53.3379C133.495 53.886 133.099 53.9672 132.541 53.5307Z" fill="#C1C1C1"/>
<path d="M220.795 74.2368C221.12 74.9879 220.247 74.6733 220.247 75.0691C219.943 74.4601 220.552 74.5312 220.795 74.2368Z" fill="#C1C1C1"/>
<path d="M219.577 92.9333H218.481C218.481 92.8217 218.572 92.6187 218.623 92.6187C218.989 92.5882 219.384 92.5172 219.577 92.9333Z" fill="#C1C1C1"/>
</g>
<path d="M116.25 67.6494C117.158 67.6494 117.895 66.9133 117.895 66.0051C117.895 65.097 117.158 64.3608 116.25 64.3608C115.342 64.3608 114.606 65.097 114.606 66.0051C114.606 66.9133 115.342 67.6494 116.25 67.6494Z" fill="#24285B"/>
<path d="M154.15 59.854C155.059 59.854 155.795 59.1178 155.795 58.2097C155.795 57.3016 155.059 56.5654 154.15 56.5654C153.242 56.5654 152.506 57.3016 152.506 58.2097C152.506 59.1178 153.242 59.854 154.15 59.854Z" fill="#24285B"/>
<path d="M189.635 71.3032C190.543 71.3032 191.279 70.5671 191.279 69.6589C191.279 68.7508 190.543 68.0146 189.635 68.0146C188.727 68.0146 187.99 68.7508 187.99 69.6589C187.99 70.5671 188.727 71.3032 189.635 71.3032Z" fill="#24285B"/>
<path d="M210.859 95.1153C211.767 95.1153 212.503 94.3791 212.503 93.471C212.503 92.5628 211.767 91.8267 210.859 91.8267C209.95 91.8267 209.214 92.5628 209.214 93.471C209.214 94.3791 209.95 95.1153 210.859 95.1153Z" fill="#24285B"/>
<path d="M138.783 73.8408C139.691 73.8408 140.428 73.1047 140.428 72.1965C140.428 71.2884 139.691 70.5522 138.783 70.5522C137.875 70.5522 137.139 71.2884 137.139 72.1965C137.139 73.1047 137.875 73.8408 138.783 73.8408Z" fill="#24285B"/>
<path d="M220.572 62.0362C221.48 62.0362 222.216 61.3 222.216 60.3919C222.216 59.4837 221.48 58.7476 220.572 58.7476C219.664 58.7476 218.928 59.4837 218.928 60.3919C218.928 61.3 219.664 62.0362 220.572 62.0362Z" fill="#24285B"/>
<path d="M117.895 62.4121C117.895 62.4121 117.945 62.2396 118.057 61.9351" stroke="#24285B" stroke-width="0.25375" stroke-linecap="round" stroke-linejoin="round"/>
<path d="M120.625 57.5499C122.908 54.6983 125.979 52.5805 129.455 51.4599C138.773 48.354 157.226 49.1152 153.673 58.1792C150.121 67.2431 139.179 69.3848 138.783 72.7647C138.387 76.1447 135.85 84.3865 146.802 83.5948C157.754 82.8031 163.894 66.6646 189.635 69.669C207.793 71.7903 215.73 66.2992 218.826 62.8888" stroke="#24285B" stroke-width="0.25375" stroke-linecap="round" stroke-linejoin="round" stroke-dasharray="1.01 5.09"/>
<path d="M220.339 60.8387C220.501 60.5545 220.572 60.3921 220.572 60.3921C220.572 60.3921 220.714 60.5037 220.948 60.727" stroke="#24285B" stroke-width="0.25375" stroke-linecap="round" stroke-linejoin="round"/>
<path d="M223.779 64.8379C224.76 67.0745 225.228 69.502 225.15 71.9429C224.997 78.9058 222.836 85.6657 216.796 89.5836" stroke="#24285B" stroke-width="0.25375" stroke-linecap="round" stroke-linejoin="round" stroke-dasharray="1 5.02"/>
<path d="M214.584 90.8218L214.127 91.0248" stroke="#24285B" stroke-width="0.25375" stroke-linecap="round" stroke-linejoin="round"/>
<path d="M259.457 54.038C274.317 54.038 286.364 41.991 286.364 27.1303C286.364 12.2696 274.317 0.222656 259.457 0.222656C244.596 0.222656 232.549 12.2696 232.549 27.1303C232.549 41.991 244.596 54.038 259.457 54.038Z" fill="#24285B"/>
<path d="M268.145 197.62H171.527V217.808H268.145V197.62Z" fill="#E6E6E6"/>
<path opacity="0.58" d="M250.423 187.338C250.423 187.338 241.978 185.034 240.141 177.188C240.141 177.188 253.225 174.539 253.59 188.049L250.423 187.338Z" fill="#FF9B05"/>
<path opacity="0.73" d="M251.459 186.506C251.459 186.506 245.561 177.178 250.748 168.459C250.748 168.459 260.695 174.772 256.27 186.526L251.459 186.506Z" fill="#FF9B05"/>
<path d="M252.971 186.506C252.971 186.506 256.087 176.661 265.516 174.793C265.516 174.793 267.282 181.187 259.426 186.537L252.971 186.506Z" fill="#FF9B05"/>
<path d="M246.85 186.292L248.566 197.995L259.345 198.046L260.928 186.343L246.85 186.292Z" fill="#24285B"/>
<path d="M232.184 192.169H187.99V198.046H232.184V192.169Z" fill="#C1C1C1"/>
<path opacity="0.55" d="M236.152 186.292H191.959V192.169H236.152V186.292Z" fill="#C1C1C1"/>
<path d="M269.282 23.5681C269.279 22.0532 268.927 20.5595 268.252 19.2032C267.577 17.847 266.598 16.6649 265.392 15.7492C264.185 14.8336 262.783 14.209 261.295 13.9243C259.807 13.6396 258.274 13.7024 256.814 14.1078C255.355 14.5133 254.008 15.2504 252.881 16.2617C251.753 17.273 250.874 18.5311 250.312 19.938C249.751 21.3449 249.521 22.8625 249.643 24.3725C249.764 25.8824 250.233 27.344 251.012 28.6431V28.6431L259.416 42.3963L267.8 28.7852C268.776 27.2208 269.29 25.4121 269.282 23.5681V23.5681ZM259.457 28.7852C258.505 28.7872 257.574 28.5067 256.781 27.9793C255.989 27.4519 255.37 26.7012 255.005 25.8223C254.639 24.9433 254.542 23.9757 254.727 23.0417C254.911 22.1078 255.369 21.2496 256.041 20.5757C256.713 19.9019 257.571 19.4426 258.504 19.2562C259.438 19.0697 260.406 19.1644 261.285 19.5282C262.165 19.8921 262.917 20.5087 263.446 21.3001C263.975 22.0915 264.258 23.0221 264.258 23.9741C264.258 25.2483 263.752 26.4705 262.852 27.3725C261.952 28.2744 260.731 28.7825 259.457 28.7852V28.7852Z" fill="#FF9B05"/>
</svg>
