<svg width="9" height="13" viewBox="0 0 9 13" fill="none" xmlns="http://www.w3.org/2000/svg">
<path d="M2.95831 3.1499C3.79161 3.1499 4.46761 2.4739 4.46761 1.6406C4.46891 0.806005 3.79291 0.130005 2.95831 0.130005C2.12371 0.130005 1.44771 0.806005 1.44771 1.6393C1.44901 2.4739 2.12501 3.1499 2.95831 3.1499ZM7.48361 6.59361H5.13191L4.44941 4.4967C4.04641 2.7196 1.54001 3.2474 1.81171 4.9855L2.60211 7.2943C2.72171 7.8884 3.19621 8.29661 3.95541 8.29661C3.95541 8.29661 6.67241 8.19391 6.86871 8.39151C6.94541 8.46821 6.95711 10.9551 6.95711 12.0107C6.95711 13.1495 8.61331 13.1547 8.61331 12.0315V7.74411C8.61461 7.19421 8.22721 6.59361 7.48361 6.59361ZM5.82091 8.71521H3.87481C2.70741 8.71521 2.53321 8.52801 2.26801 7.39051C2.07301 6.54941 1.57771 5.6524 1.57771 5.6524C1.40741 4.8308 0.251711 5.0986 0.398611 5.9007C0.398611 5.9007 0.930311 6.91081 1.12661 7.79221C1.56991 9.78641 1.77531 9.96451 3.69151 9.96451C4.27651 9.96451 5.83261 9.96451 5.83261 9.96451C6.66201 9.96451 6.66721 8.71521 5.82091 8.71521Z" fill="white"/>
</svg>
