<svg width="16" height="14" viewBox="0 0 16 14" fill="none" xmlns="http://www.w3.org/2000/svg">
<path d="M9.51092 9.44456C9.51092 9.73775 9.27324 9.97543 8.98005 9.97543H7.02009C6.72691 9.97543 6.48922 9.73775 6.48922 9.44456C6.48922 9.15138 6.72691 8.9137 7.02009 8.9137H8.98005C9.27324 8.9137 9.51092 9.15138 9.51092 9.44456ZM16 1.50487V4.80189C16 5.09507 15.7623 5.33276 15.4691 5.33276H15.125V12.4951C15.125 12.7883 14.8874 13.026 14.5942 13.026H1.40588C1.1127 13.026 0.875014 12.7883 0.875014 12.4951V5.3328H0.530867C0.237684 5.3328 0 5.09512 0 4.80194V1.50487C0 1.21168 0.237684 0.973999 0.530867 0.973999H15.4691C15.7623 0.973999 16 1.21168 16 1.50487ZM14.0633 5.3328H10.6772C10.4295 6.58435 9.32324 7.53084 8.00007 7.53084C6.67691 7.53084 5.57063 6.58435 5.32296 5.3328H1.93675V11.9643H14.0633V5.3328ZM8.00007 6.4691C8.73388 6.4691 9.35847 5.99262 9.58061 5.3328H6.41949C6.64168 5.99262 7.26627 6.4691 8.00007 6.4691ZM14.9383 2.03573H1.06173V4.27102H14.9383V2.03573Z" fill="white"/>
</svg>
