<svg width="128" height="128" viewBox="0 0 128 128" fill="none" xmlns="http://www.w3.org/2000/svg">
<circle cx="63.5" cy="64.5" r="50.5" stroke="#FF9B05" stroke-width="4"/>
<circle cx="64" cy="48.4545" r="16.4545" stroke="#FF9B05" stroke-width="4"/>
<mask id="path-3-inside-1_10_17" fill="white">
<path d="M93 94.5153C93 86.1248 89.9447 78.078 84.5061 72.145C79.0675 66.212 71.6913 62.8789 64 62.8789C56.3087 62.8789 48.9325 66.212 43.4939 72.145C38.0554 78.0779 35 86.1248 35 94.5153L64 94.5153H93Z"/>
</mask>
<path d="M93 94.5153C93 86.1248 89.9447 78.078 84.5061 72.145C79.0675 66.212 71.6913 62.8789 64 62.8789C56.3087 62.8789 48.9325 66.212 43.4939 72.145C38.0554 78.0779 35 86.1248 35 94.5153L64 94.5153H93Z" stroke="#FF9B05" stroke-width="8" mask="url(#path-3-inside-1_10_17)"/>
</svg>
