<svg width="128" height="128" viewBox="0 0 128 128" fill="none" xmlns="http://www.w3.org/2000/svg">
<rect width="128" height="128" fill="#FF9B05"/>
<circle r="3" transform="matrix(-1 0 0 1 109 47)" fill="#FF9B05"/>
<rect x="31.2664" y="24.1951" width="104.044" height="10" transform="rotate(45 31.2664 24.1951)" fill="white"/>
<rect x="48" y="26" width="32" height="76" rx="8" fill="#FF9B05"/>
<circle cx="64" cy="64" r="50" stroke="white" stroke-width="10"/>
<rect x="52" y="36" width="24" height="57" rx="8" fill="white"/>
<circle cx="64" cy="64" r="50" stroke="white" stroke-width="10"/>
<rect x="52" y="36" width="24" height="57" rx="8" fill="white"/>
<circle r="3" transform="matrix(-1 0 0 1 109 47)" fill="#FF9B05"/>
<rect x="31.2664" y="24.1951" width="104.044" height="10" transform="rotate(45 31.2664 24.1951)" fill="white"/>
<rect x="48" y="26" width="32" height="76" rx="8" fill="#FF9B05"/>
<circle cx="64" cy="64" r="50" stroke="white" stroke-width="10"/>
<rect x="52" y="36" width="24" height="57" rx="8" fill="white"/>
<circle cx="64" cy="64" r="50" stroke="white" stroke-width="10"/>
<rect x="52" y="36" width="24" height="57" rx="8" fill="white"/>
<circle cx="64" cy="47" r="8" fill="#FF9B05"/>
<circle cx="64" cy="64" r="8" fill="#FF9B05"/>
<circle cx="64" cy="82" r="8" fill="#FF9B05"/>
</svg>
