<svg width="788" height="414" viewBox="0 0 788 414" fill="none" xmlns="http://www.w3.org/2000/svg">
<g clip-path="url(#clip0_247_29)">
<path d="M291.164 271.72H278.382L276.881 278.422C276.881 278.422 267.218 289.731 278.141 289.731C289.064 289.731 307.549 293.082 307.549 288.893C307.549 284.705 294.105 282.191 294.105 282.191L291.164 271.72V271.72V271.72Z" fill="#2F2E41"/>
<path d="M210.829 239.736L211.07 226.994L204.378 225.371C204.378 225.371 193.219 215.526 193.013 226.415C192.808 237.303 189.099 255.667 193.3 255.746C197.5 255.824 200.273 242.47 200.273 242.47L210.829 239.736V239.736V239.736Z" fill="#2F2E41"/>
<path d="M248.767 97.7049L246.16 107.324L257.893 113.303L262.326 100.565L248.767 97.7049Z" fill="#FFB6B6"/>
<path d="M256.437 75.4606C248.851 75.4606 242.701 81.5922 242.701 89.1559C242.701 96.7196 248.851 102.851 256.437 102.851C264.023 102.851 270.173 96.7196 270.173 89.1559C270.173 81.5922 264.023 75.4606 256.437 75.4606V75.4606Z" fill="#FFB6B6"/>
<path d="M240.705 158.894C239.921 157.562 238.828 156.436 237.518 155.61L230.021 141.295L223.293 145.051L231.623 159.168C231.748 160.707 232.242 162.195 233.062 163.505C235.07 166.813 238.408 168.461 240.519 167.187C242.63 165.914 242.713 162.201 240.705 158.894H240.705V158.894V158.894Z" fill="#FFB6B6"/>
<path d="M265.538 158.627L245.429 158.495C245.429 158.495 236.284 175.249 246.367 192.423L248.047 227.607L206.037 225.513V240.713C206.037 240.713 260.651 248.132 262.751 243.943C264.852 239.755 269.053 213.606 269.053 213.606L273.295 221.049L277.455 274.939H290.444L293.302 216.717L268.213 170.223L265.538 158.627H265.538V158.627V158.627Z" fill="#2F2E41"/>
<path d="M260.752 105.572L245.363 104.549L239.72 121.939L245.363 158.765L266.395 162.345L271.012 123.985L260.752 105.572Z" fill="#F9A826"/>
<path d="M244.912 107.106L246.388 123.985L232.538 132.168L237.811 151.087L227.408 156.719C227.408 156.719 216.635 136.772 218.687 130.123C220.739 123.473 244.912 107.106 244.912 107.106H244.912V107.106Z" fill="#F9A826"/>
<path opacity="0.1" d="M248.719 122.096C248.719 122.096 248.555 152.017 255.366 152.809C262.177 153.6 266.915 151.7 266.915 151.7" fill="black"/>
<path d="M293.342 136.155C291.797 136.275 290.303 136.763 288.985 137.576L272.795 138.035L273.239 145.71L289.614 144.418C291.058 144.979 292.615 145.187 294.156 145.025C298.018 144.672 300.964 142.401 300.739 139.951C300.514 137.501 297.202 135.802 293.342 136.155V136.155L293.342 136.155V136.155Z" fill="#FFB6B6"/>
<path d="M284.939 145.662L285.11 145.596L282.928 136.637L268.633 136.563L265.961 114.49C265.438 110.161 261.745 106.897 257.372 106.897C254.916 106.897 252.567 107.942 250.928 109.765C249.29 111.586 248.504 114.025 248.77 116.455C250.404 131.352 253.443 149.4 258.646 150.784C259.636 151.047 260.794 151.162 262.065 151.162C270.642 151.162 284.28 145.917 284.939 145.662V145.662V145.662Z" fill="#F9A826"/>
<path d="M264.416 82.0487C265.402 83.7474 266.426 85.491 267.985 86.6894C269.543 87.8877 271.787 88.4205 273.503 87.4599C275.19 86.5159 275.916 84.3238 275.5 82.4404C275.085 80.557 273.718 78.9917 272.11 77.9206C270.501 76.8496 268.651 76.207 266.824 75.5754C264.031 74.6102 261.217 73.6398 258.291 73.2208C250.309 72.0779 241.831 75.4387 236.816 81.7335C234.448 84.7057 232.853 88.2027 231.282 91.6605C229.998 94.4869 228.685 97.4638 228.913 100.558C229.079 102.827 230.025 105.312 228.8 107.232C228.183 108.198 227.13 108.784 226.276 109.551C225.422 110.318 224.721 111.507 225.143 112.574C225.574 113.665 226.934 114.058 227.66 114.981C228.904 116.563 227.844 118.878 226.59 120.452C225.337 122.027 223.798 123.792 224.195 125.763C224.481 127.185 225.776 128.244 227.177 128.635C228.577 129.026 230.071 128.86 231.501 128.597C238.492 127.309 245.027 123.679 249.803 118.43C254.58 113.182 257.571 106.345 258.178 99.2829C258.446 96.1735 258.268 93.016 258.882 89.9559C259.496 86.8958 261.088 83.8154 263.887 82.4192" fill="#2F2E41"/>
</g>
<path d="M8.5 321.5H380.5V384H8.5V321.5Z" fill="white"/>
<path d="M380.5 307C385.194 307 389 303.194 389 298.5C389 293.806 385.194 290 380.5 290V307ZM8.5 321.5V313H0V321.5H8.5ZM380.5 321.5H389V313H380.5V321.5ZM380.5 384V392.5H389V384H380.5ZM8.5 384H0V392.5H8.5V384ZM1 307H380.5V290H1V307ZM8.5 330H380.5V313H8.5V330ZM372 321.5V384H389V321.5H372ZM380.5 375.5H8.5V392.5H380.5V375.5ZM17 384V321.5H0V384H17Z" fill="white"/>
<path d="M1 400H773.5M412.5 405H462M513 405H562.5M613 405H664M714.5 405H773.5" stroke="white" stroke-width="17"/>
<path d="M166 182H219M200 271.5H223M188.5 264H214.5M146 224.5C156.154 224.5 161.846 224.5 172 224.5M169.5 218H188.5M174.5 166.5H154.5M200.5 83.5H228.5M187.5 176.5H215.5M196.5 77H224.5" stroke="white" stroke-linecap="round"/>
<path d="M357 140H410M391 229.5H414M379.5 222H405.5M391.5 41.5H419.5M378.5 134.5H406.5M410 35H438" stroke="white" stroke-linecap="round"/>
<path d="M432 256.5V75" stroke="white" stroke-width="25" stroke-linecap="round"/>
<path d="M759.002 30H774.002V0H759.002V30ZM459 0C450.716 0 444 6.71573 444 15C444 23.2843 450.716 30 459 30V0ZM759.002 0L459 0V30L759.002 30V0Z" fill="white"/>
<rect x="614" y="291" width="115" height="65" fill="#D9D9D9"/>
<circle cx="603" cy="344" r="45" fill="white"/>
<circle cx="738" cy="344" r="45" fill="white"/>
<path d="M595.882 285H765C770.523 285 775 280.523 775 275V186.795H595.882V285Z" fill="#FF9B05"/>
<path d="M460 275C460 280.523 464.477 285 470 285H595.882V186.795H460V275Z" fill="#FF9B05"/>
<path d="M470 58.5H595.882V33.5H470V58.5ZM595.882 58.5H765V33.5H595.882V58.5ZM765 272.5H595.882V297.5H765V272.5ZM595.882 272.5H470V297.5H595.882V272.5ZM472.5 275V186.795H447.5V275H472.5ZM472.5 186.795V56H447.5V186.795H472.5ZM762.5 56V186.795H787.5V56H762.5ZM762.5 186.795V275H787.5V186.795H762.5ZM775 174.295H595.882V199.295H775V174.295ZM583.382 186.795V285H608.382V186.795H583.382ZM460 199.295H595.882V174.295H460V199.295ZM583.382 46V186.795H608.382V46H583.382ZM765 297.5C777.426 297.5 787.5 287.426 787.5 275H762.5C762.5 273.619 763.619 272.5 765 272.5V297.5ZM765 58.5C763.619 58.5 762.5 57.3807 762.5 56H787.5C787.5 43.5736 777.426 33.5 765 33.5V58.5ZM470 33.5C457.574 33.5 447.5 43.5736 447.5 56H472.5C472.5 57.3807 471.381 58.5 470 58.5V33.5ZM470 272.5C471.381 272.5 472.5 273.619 472.5 275H447.5C447.5 287.426 457.574 297.5 470 297.5V272.5Z" fill="#FF9B05"/>
<rect x="611" y="59" width="150" height="115" rx="20" stroke="#FF9B05" stroke-width="25"/>
<rect x="475" y="57" width="107" height="115" rx="20" stroke="#FF9B05" stroke-width="25"/>
<path d="M765.5 190.5H537M765.5 201.5H593.5M765.5 211H620.5" stroke="white" stroke-linecap="round"/>
<defs>
<clipPath id="clip0_247_29">
<rect width="291" height="218" fill="white" transform="matrix(-1 0 0 1 419 73)"/>
</clipPath>
</defs>
</svg>
