<svg width="128" height="128" viewBox="0 0 128 128" fill="none" xmlns="http://www.w3.org/2000/svg">
<rect width="128" height="128" fill="#FF9B05"/>
<rect x="31.2664" y="24.1951" width="104.044" height="10" transform="rotate(45 31.2664 24.1951)" fill="white"/>
<path d="M40.553 72H63C63.5523 72 64 72.4477 64 73V107.383C64 108.459 65.4653 108.776 65.9104 107.797L88.3574 58.4138C88.6583 57.7517 88.1743 57 87.447 57H65C64.4477 57 64 56.5523 64 56V21.6166C64 20.5412 62.5347 20.2238 62.0896 21.2028L39.6426 70.5862C39.3417 71.2483 39.8257 72 40.553 72Z" fill="#FF9B05"/>
<path d="M45.553 70H63C63.5523 70 64 70.4477 64 71V97.3834C64 98.4588 65.4653 98.7762 65.9104 97.7972L83.3574 59.4138C83.6583 58.7517 83.1743 58 82.447 58H65C64.4477 58 64 57.5523 64 57V30.6166C64 29.5412 62.5347 29.2238 62.0896 30.2028L44.6426 68.5862C44.3417 69.2483 44.8257 70 45.553 70Z" fill="white"/>
<circle cx="64" cy="64" r="50" stroke="white" stroke-width="10"/>
</svg>
