<svg width="128" height="128" viewBox="0 0 128 128" fill="none" xmlns="http://www.w3.org/2000/svg">
<rect width="128" height="128" fill="#FF9B05"/>
<path d="M52.1872 56.3242L46.6392 78.8242C45.5512 83.2367 48.891 87.5 53.4357 87.5H74.9449C79.5268 87.5 82.8733 83.171 81.7192 78.7368L75.863 56.2368C75.0603 53.1527 72.2756 51 69.0887 51H64H58.9836C55.7631 51 52.9582 53.1973 52.1872 56.3242Z" fill="white"/>
<path d="M83.75 95.5H43.25C40.9028 95.5 39 97.4028 39 99.75C39 102.097 40.9028 104 43.25 104H83.75C86.0972 104 88 102.097 88 99.75C88 97.4028 86.0972 95.5 83.75 95.5Z" fill="white"/>
<path d="M17.5 71.5H33.5M31 38.5L42 49.5M64 25V41M85.5 50L97 38.5M94.5 71.5H111.5M64 51H58.9836C55.7631 51 52.9582 53.1973 52.1872 56.3242L46.6392 78.8242C45.5512 83.2367 48.891 87.5 53.4357 87.5H74.9449C79.5268 87.5 82.8733 83.171 81.7192 78.7368L75.863 56.2368C75.0603 53.1527 72.2756 51 69.0887 51H64ZM88 99.75V99.75C88 97.4028 86.0972 95.5 83.75 95.5H43.25C40.9028 95.5 39 97.4028 39 99.75V99.75C39 102.097 40.9028 104 43.25 104H83.75C86.0972 104 88 102.097 88 99.75Z" stroke="white" stroke-width="5" stroke-linecap="round" stroke-linejoin="round"/>
</svg>
