<svg width="128" height="128" viewBox="0 0 128 128" fill="none" xmlns="http://www.w3.org/2000/svg">
<rect width="128" height="128" fill="#FF9B05"/>
<rect x="7" y="33" width="114" height="8" fill="white"/>
<rect x="16" y="94" width="64" height="5" transform="rotate(-90 16 94)" fill="white"/>
<rect x="61" y="94" width="64" height="5" transform="rotate(-90 61 94)" fill="white"/>
<rect x="31" y="94" width="64" height="5" transform="rotate(-90 31 94)" fill="white"/>
<rect x="76" y="94" width="64" height="5" transform="rotate(-90 76 94)" fill="white"/>
<rect x="46" y="94" width="64" height="5" transform="rotate(-90 46 94)" fill="white"/>
<rect x="91" y="94" width="64" height="5" transform="rotate(-90 91 94)" fill="white"/>
<rect x="106" y="94" width="64" height="5" transform="rotate(-90 106 94)" fill="white"/>
<rect x="7" y="82" width="114" height="8" fill="white"/>
<path d="M24.6857 98.2265L22.5858 96.1266L55.7124 63L22.5858 29.8734C21.0237 28.3113 21.0237 25.7786 22.5858 24.2165L26.2165 20.5858L28.3378 22.7071L26.2165 20.5858C27.7786 19.0237 30.3113 19.0237 31.8734 20.5858L65 53.7124L98.1266 20.5858L100.248 22.7071L98.1266 20.5858C99.6887 19.0237 102.221 19.0237 103.783 20.5858L107.414 24.2165L105.299 26.3317L107.414 24.2165C108.976 25.7786 108.976 28.3113 107.414 29.8734L74.2876 63L107.414 96.1266C108.976 97.6887 108.976 100.221 107.414 101.784L103.784 105.414L101.662 103.293L103.783 105.414C102.221 106.976 99.6887 106.976 98.1266 105.414L65 72.2876L31.8734 105.414C30.3113 106.976 27.7786 106.976 26.2165 105.414M24.6857 98.2265L26.2165 105.414M24.6857 98.2265L22.5858 96.1266C21.0237 97.6887 21.0237 100.221 22.5858 101.783L24.7071 99.6622L22.5858 101.784L26.2165 105.414M24.6857 98.2265L26.2165 105.414" fill="#FF9B05" stroke="#FF9B05" stroke-width="6"/>
<path d="M23.6464 28.8127L57.8337 63L23.6464 97.1873C22.6701 98.1636 22.6701 99.7465 23.6464 100.723L27.2772 104.354C28.2535 105.33 29.8364 105.33 30.8127 104.354L65 70.1663L99.1873 104.354C100.164 105.33 101.747 105.33 102.723 104.354L106.354 100.723C107.33 99.7465 107.33 98.1636 106.354 97.1873L72.1663 63L106.354 28.8127C107.33 27.8364 107.33 26.2535 106.354 25.2772L102.723 21.6464C101.747 20.6701 100.164 20.6701 99.1873 21.6464L65 55.8337L30.8127 21.6464L29.752 22.7071L30.8127 21.6464C29.8364 20.6701 28.2535 20.6701 27.2772 21.6464L23.6464 25.2772C22.6701 26.2535 22.6701 27.8364 23.6464 28.8127L24.7071 27.752L23.6464 28.8127Z" fill="#FF9B05" stroke="white" stroke-width="3"/>
</svg>
