<svg width="795" height="414" viewBox="0 0 795 414" fill="none" xmlns="http://www.w3.org/2000/svg" style="">
<g clip-path="url(#clip0_247_29)">
<path d="M298.164 271.72H285.382L283.881 278.422C283.881 278.422 274.218 289.731 285.141 289.731C296.064 289.731 314.549 293.082 314.549 288.893C314.549 284.705 301.105 282.191 301.105 282.191L298.164 271.72V271.72Z" fill="#2F2E41" class="vscvtbCn_0"></path>
<path d="M217.829 239.736L218.07 226.994L211.378 225.371C211.378 225.371 200.219 215.526 200.013 226.415C199.808 237.303 196.099 255.667 200.3 255.746C204.5 255.824 207.273 242.47 207.273 242.47L217.829 239.736V239.736Z" fill="#2F2E41" class="vscvtbCn_1"></path>
<path d="M255.767 97.7049L253.16 107.324L264.893 113.303L269.326 100.565L255.767 97.7049Z" fill="#FFB6B6" class="vscvtbCn_2"></path>
<path d="M263.437 75.4606C255.851 75.4606 249.701 81.5922 249.701 89.1559C249.701 96.7196 255.851 102.851 263.437 102.851C271.023 102.851 277.173 96.7196 277.173 89.1559C277.173 81.5922 271.023 75.4606 263.437 75.4606Z" fill="#FFB6B6" class="vscvtbCn_3"></path>
<path d="M247.705 158.894C246.921 157.562 245.828 156.436 244.518 155.61L237.021 141.295L230.293 145.051L238.623 159.168C238.748 160.707 239.242 162.195 240.062 163.505C242.07 166.813 245.408 168.461 247.519 167.187C249.63 165.914 249.713 162.201 247.705 158.894H247.705V158.894Z" fill="#FFB6B6" class="vscvtbCn_4"></path>
<path d="M272.538 158.627L252.429 158.495C252.429 158.495 243.284 175.249 253.367 192.423L255.047 227.607L213.037 225.513V240.713C213.037 240.713 267.651 248.132 269.751 243.943C271.852 239.755 276.053 213.606 276.053 213.606L280.295 221.049L284.455 274.939H297.444L300.302 216.717L275.213 170.223L272.538 158.627H272.538V158.627Z" fill="#2F2E41" class="vscvtbCn_5"></path>
<path d="M267.752 105.572L252.363 104.549L246.72 121.939L252.363 158.765L273.395 162.345L278.012 123.985L267.752 105.572Z" fill="#F9A826" class="vscvtbCn_6"></path>
<path d="M251.912 107.106L253.388 123.985L239.538 132.168L244.811 151.087L234.408 156.719C234.408 156.719 223.635 136.772 225.687 130.123C227.739 123.473 251.912 107.106 251.912 107.106H251.912Z" fill="#F9A826" class="vscvtbCn_7"></path>
<path opacity="0.1" d="M255.719 122.096C255.719 122.096 255.555 152.017 262.366 152.809C269.177 153.6 273.915 151.7 273.915 151.7" fill="black" class="vscvtbCn_8"></path>
<path d="M300.342 136.155C298.797 136.275 297.303 136.763 295.985 137.576L279.795 138.035L280.239 145.71L296.614 144.418C298.058 144.979 299.615 145.187 301.156 145.025C305.018 144.672 307.964 142.401 307.739 139.951C307.514 137.501 304.202 135.802 300.342 136.155V136.155L300.342 136.155Z" fill="#FFB6B6" class="vscvtbCn_9"></path>
<path d="M291.939 145.662L292.11 145.596L289.928 136.637L275.633 136.563L272.961 114.49C272.438 110.161 268.745 106.897 264.372 106.897C261.916 106.897 259.567 107.942 257.928 109.765C256.29 111.586 255.504 114.025 255.77 116.455C257.404 131.352 260.443 149.4 265.646 150.784C266.636 151.047 267.794 151.162 269.065 151.162C277.642 151.162 291.28 145.917 291.939 145.662V145.662V145.662Z" fill="#F9A826" class="vscvtbCn_10"></path>
<path d="M271.416 82.0487C272.402 83.7474 273.426 85.491 274.985 86.6894C276.543 87.8877 278.787 88.4205 280.503 87.4599C282.19 86.5159 282.916 84.3238 282.5 82.4404C282.085 80.557 280.718 78.9917 279.11 77.9206C277.501 76.8496 275.651 76.207 273.824 75.5754C271.031 74.6102 268.217 73.6398 265.291 73.2208C257.309 72.0779 248.831 75.4387 243.816 81.7335C241.448 84.7057 239.853 88.2027 238.282 91.6605C236.998 94.4869 235.685 97.4638 235.913 100.558C236.079 102.827 237.025 105.312 235.8 107.232C235.183 108.198 234.13 108.784 233.276 109.551C232.422 110.318 231.721 111.507 232.143 112.574C232.574 113.665 233.934 114.058 234.66 114.981C235.904 116.563 234.844 118.878 233.59 120.452C232.337 122.027 230.798 123.792 231.195 125.763C231.481 127.185 232.776 128.244 234.177 128.635C235.577 129.026 237.071 128.86 238.501 128.597C245.492 127.309 252.027 123.679 256.803 118.43C261.58 113.182 264.571 106.345 265.178 99.2829C265.446 96.1735 265.268 93.016 265.882 89.9559C266.496 86.8958 268.088 83.8154 270.887 82.4192" fill="#2F2E41" class="vscvtbCn_11"></path>
</g>
<path d="M16.4901 336.865C16.4901 328.581 23.2058 321.865 31.4901 321.865H373C381.284 321.865 388 328.581 388 336.865V369C388 377.284 381.284 384 373 384H31.4901C23.2058 384 16.4901 377.284 16.4901 369V336.865Z" fill="white" class="vscvtbCn_12"></path>
<path d="M9 299H388M31.4901 384H373C381.284 384 388 377.284 388 369V336.865C388 328.581 381.284 321.865 373 321.865H31.4901C23.2058 321.865 16.4901 328.581 16.4901 336.865V369C16.4901 377.284 23.2058 384 31.4901 384Z" stroke="white" stroke-width="17" stroke-linecap="round" class="vscvtbCn_13"></path>
<path d="M780.5 400C780.5 400 330.675 400 31.3861 400C23.1018 400 16.5 393.286 16.5 385.001C16.5 379.513 16.5 373.641 16.5 369.5M419.5 405H469M520 405H569.5M620 405H671M721.5 405H780.5" stroke="white" stroke-width="17" stroke-linecap="round" class="vscvtbCn_14"></path>
<path d="M173 182H226M207 271.5H230M195.5 264H221.5M153 224.5C163.154 224.5 168.846 224.5 179 224.5M176.5 218H195.5M181.5 166.5H161.5M207.5 83.5H235.5M194.5 176.5H222.5M203.5 77H231.5" stroke="white" stroke-linecap="round" class="vscvtbCn_15"></path>
<path d="M364 140H417M398 229.5H421M386.5 222H412.5M398.5 41.5H426.5M385.5 134.5H413.5M417 35H445" stroke="white" stroke-linecap="round" class="vscvtbCn_16"></path>
<path d="M439 256.5V75" stroke="white" stroke-width="25" stroke-linecap="round" class="vscvtbCn_17"></path>
<path d="M766.002 15L466 15" stroke="white" stroke-width="30" stroke-linecap="round" class="vscvtbCn_18"></path>
<path width="115" height="65" fill="#D9D9D9" d="M621 291 L736 291 L736 356 L621 356 Z" class="vscvtbCn_19"></path>
<path fill="white" d="M565,344A45,45 0,1,1 655,344A45,45 0,1,1 565,344" class="vscvtbCn_20"></path>
<path fill="white" d="M700,344A45,45 0,1,1 790,344A45,45 0,1,1 700,344" class="vscvtbCn_21"></path>
<path d="M602.882 285H772C777.523 285 782 280.523 782 275V186.795H602.882V285Z" fill="#FF9B05" class="vscvtbCn_22"></path>
<path d="M467 275C467 280.523 471.477 285 477 285H602.882V186.795H467V275Z" fill="#FF9B05" class="vscvtbCn_23"></path>
<path d="M477 58.5H602.882V33.5H477V58.5ZM602.882 58.5H772V33.5H602.882V58.5ZM772 272.5H602.882V297.5H772V272.5ZM602.882 272.5H477V297.5H602.882V272.5ZM479.5 275V186.795H454.5V275H479.5ZM479.5 186.795V56H454.5V186.795H479.5ZM769.5 56V186.795H794.5V56H769.5ZM769.5 186.795V275H794.5V186.795H769.5ZM782 174.295H602.882V199.295H782V174.295ZM590.382 186.795V285H615.382V186.795H590.382ZM467 199.295H602.882V174.295H467V199.295ZM590.382 46V186.795H615.382V46H590.382ZM772 297.5C784.426 297.5 794.5 287.426 794.5 275H769.5C769.5 273.619 770.619 272.5 772 272.5V297.5ZM772 58.5C770.619 58.5 769.5 57.3807 769.5 56H794.5C794.5 43.5736 784.426 33.5 772 33.5V58.5ZM477 33.5C464.574 33.5 454.5 43.5736 454.5 56H479.5C479.5 57.3807 478.381 58.5 477 58.5V33.5ZM477 272.5C478.381 272.5 479.5 273.619 479.5 275H454.5C454.5 287.426 464.574 297.5 477 297.5V272.5Z" fill="#FF9B05" class="vscvtbCn_24"></path>
<path width="150" height="115" stroke="#FF9B05" stroke-width="25" d="M 638,59 L 748,59 A 20,20,0,0,1,768,79 L 768,154 A 20,20,0,0,1,748,174 L 638,174 A 20,20,0,0,1,618,154 L 618,79 A 20,20,0,0,1,638,59" class="vscvtbCn_25"></path>
<path width="107" height="115" stroke="#FF9B05" stroke-width="25" d="M 502,57 L 569,57 A 20,20,0,0,1,589,77 L 589,152 A 20,20,0,0,1,569,172 L 502,172 A 20,20,0,0,1,482,152 L 482,77 A 20,20,0,0,1,502,57" class="vscvtbCn_26"></path>
<path d="M772.5 190.5H544M772.5 201.5H600.5M772.5 211H627.5" stroke="white" stroke-linecap="round" class="vscvtbCn_27"></path>
<defs>
<clipPath id="clip0_247_29">
<path width="291" height="218" fill="white" transform="matrix(-1 0 0 1 426 73)" d="M0 0 L291 0 L291 218 L0 218 Z" class="vscvtbCn_28"></path>
</clipPath>
</defs>
<style data-made-with="vivus-instant">.vscvtbCn_0{stroke-dasharray:93 95;stroke-dashoffset:94;animation:vscvtbCn_draw_0 7200ms linear 0ms infinite,vscvtbCn_fade 7200ms linear 0ms infinite;}.vscvtbCn_1{stroke-dasharray:93 95;stroke-dashoffset:94;animation:vscvtbCn_draw_1 7200ms linear 0ms infinite,vscvtbCn_fade 7200ms linear 0ms infinite;}.vscvtbCn_2{stroke-dasharray:51 53;stroke-dashoffset:52;animation:vscvtbCn_draw_2 7200ms linear 0ms infinite,vscvtbCn_fade 7200ms linear 0ms infinite;}.vscvtbCn_3{stroke-dasharray:87 89;stroke-dashoffset:88;animation:vscvtbCn_draw_3 7200ms linear 0ms infinite,vscvtbCn_fade 7200ms linear 0ms infinite;}.vscvtbCn_4{stroke-dasharray:68 70;stroke-dashoffset:69;animation:vscvtbCn_draw_4 7200ms linear 0ms infinite,vscvtbCn_fade 7200ms linear 0ms infinite;}.vscvtbCn_5{stroke-dasharray:435 437;stroke-dashoffset:436;animation:vscvtbCn_draw_5 7200ms linear 0ms infinite,vscvtbCn_fade 7200ms linear 0ms infinite;}.vscvtbCn_6{stroke-dasharray:153 155;stroke-dashoffset:154;animation:vscvtbCn_draw_6 7200ms linear 0ms infinite,vscvtbCn_fade 7200ms linear 0ms infinite;}.vscvtbCn_7{stroke-dasharray:129 131;stroke-dashoffset:130;animation:vscvtbCn_draw_7 7200ms linear 0ms infinite,vscvtbCn_fade 7200ms linear 0ms infinite;}.vscvtbCn_8{stroke-dasharray:45 47;stroke-dashoffset:46;animation:vscvtbCn_draw_8 7200ms linear 0ms infinite,vscvtbCn_fade 7200ms linear 0ms infinite;}.vscvtbCn_9{stroke-dasharray:68 70;stroke-dashoffset:69;animation:vscvtbCn_draw_9 7200ms linear 0ms infinite,vscvtbCn_fade 7200ms linear 0ms infinite;}.vscvtbCn_10{stroke-dasharray:137 139;stroke-dashoffset:138;animation:vscvtbCn_draw_10 7200ms linear 0ms infinite,vscvtbCn_fade 7200ms linear 0ms infinite;}.vscvtbCn_11{stroke-dasharray:183 185;stroke-dashoffset:184;animation:vscvtbCn_draw_11 7200ms linear 0ms infinite,vscvtbCn_fade 7200ms linear 0ms infinite;}.vscvtbCn_12{stroke-dasharray:842 844;stroke-dashoffset:843;animation:vscvtbCn_draw_12 7200ms linear 0ms infinite,vscvtbCn_fade 7200ms linear 0ms infinite;}.vscvtbCn_13{stroke-dasharray:1221 1223;stroke-dashoffset:1222;animation:vscvtbCn_draw_13 7200ms linear 0ms infinite,vscvtbCn_fade 7200ms linear 0ms infinite;}.vscvtbCn_14{stroke-dasharray:998 1000;stroke-dashoffset:999;animation:vscvtbCn_draw_14 7200ms linear 0ms infinite,vscvtbCn_fade 7200ms linear 0ms infinite;}.vscvtbCn_15{stroke-dasharray:251 253;stroke-dashoffset:252;animation:vscvtbCn_draw_15 7200ms linear 0ms infinite,vscvtbCn_fade 7200ms linear 0ms infinite;}.vscvtbCn_16{stroke-dasharray:186 188;stroke-dashoffset:187;animation:vscvtbCn_draw_16 7200ms linear 0ms infinite,vscvtbCn_fade 7200ms linear 0ms infinite;}.vscvtbCn_17{stroke-dasharray:182 184;stroke-dashoffset:183;animation:vscvtbCn_draw_17 7200ms linear 0ms infinite,vscvtbCn_fade 7200ms linear 0ms infinite;}.vscvtbCn_18{stroke-dasharray:301 303;stroke-dashoffset:302;animation:vscvtbCn_draw_18 7200ms linear 0ms infinite,vscvtbCn_fade 7200ms linear 0ms infinite;}.vscvtbCn_19{stroke-dasharray:360 362;stroke-dashoffset:361;animation:vscvtbCn_draw_19 7200ms linear 0ms infinite,vscvtbCn_fade 7200ms linear 0ms infinite;}.vscvtbCn_20{stroke-dasharray:283 285;stroke-dashoffset:284;animation:vscvtbCn_draw_20 7200ms linear 0ms infinite,vscvtbCn_fade 7200ms linear 0ms infinite;}.vscvtbCn_21{stroke-dasharray:283 285;stroke-dashoffset:284;animation:vscvtbCn_draw_21 7200ms linear 0ms infinite,vscvtbCn_fade 7200ms linear 0ms infinite;}.vscvtbCn_22{stroke-dasharray:551 553;stroke-dashoffset:552;animation:vscvtbCn_draw_22 7200ms linear 0ms infinite,vscvtbCn_fade 7200ms linear 0ms infinite;}.vscvtbCn_23{stroke-dasharray:464 466;stroke-dashoffset:465;animation:vscvtbCn_draw_23 7200ms linear 0ms infinite,vscvtbCn_fade 7200ms linear 0ms infinite;}.vscvtbCn_24{stroke-dasharray:4122 4124;stroke-dashoffset:4123;animation:vscvtbCn_draw_24 7200ms linear 0ms infinite,vscvtbCn_fade 7200ms linear 0ms infinite;}.vscvtbCn_25{stroke-dasharray:496 498;stroke-dashoffset:497;animation:vscvtbCn_draw_25 7200ms linear 0ms infinite,vscvtbCn_fade 7200ms linear 0ms infinite;}.vscvtbCn_26{stroke-dasharray:410 412;stroke-dashoffset:411;animation:vscvtbCn_draw_26 7200ms linear 0ms infinite,vscvtbCn_fade 7200ms linear 0ms infinite;}.vscvtbCn_27{stroke-dasharray:546 548;stroke-dashoffset:547;animation:vscvtbCn_draw_27 7200ms linear 0ms infinite,vscvtbCn_fade 7200ms linear 0ms infinite;}.vscvtbCn_28{stroke-dasharray:1018 1020;stroke-dashoffset:1019;animation:vscvtbCn_draw_28 7200ms linear 0ms infinite,vscvtbCn_fade 7200ms linear 0ms infinite;}@keyframes vscvtbCn_draw{100%{stroke-dashoffset:0;}}@keyframes vscvtbCn_fade{0%{stroke-opacity:1;}94.44444444444444%{stroke-opacity:1;}100%{stroke-opacity:0;}}@keyframes vscvtbCn_draw_0{11.11111111111111%{stroke-dashoffset: 94}38.88888888888889%{ stroke-dashoffset: 0;}100%{ stroke-dashoffset: 0;}}@keyframes vscvtbCn_draw_1{11.607142857142856%{stroke-dashoffset: 94}39.38492063492063%{ stroke-dashoffset: 0;}100%{ stroke-dashoffset: 0;}}@keyframes vscvtbCn_draw_2{12.103174603174603%{stroke-dashoffset: 52}39.88095238095239%{ stroke-dashoffset: 0;}100%{ stroke-dashoffset: 0;}}@keyframes vscvtbCn_draw_3{12.599206349206348%{stroke-dashoffset: 88}40.37698412698412%{ stroke-dashoffset: 0;}100%{ stroke-dashoffset: 0;}}@keyframes vscvtbCn_draw_4{13.095238095238097%{stroke-dashoffset: 69}40.87301587301588%{ stroke-dashoffset: 0;}100%{ stroke-dashoffset: 0;}}@keyframes vscvtbCn_draw_5{13.59126984126984%{stroke-dashoffset: 436}41.36904761904761%{ stroke-dashoffset: 0;}100%{ stroke-dashoffset: 0;}}@keyframes vscvtbCn_draw_6{14.087301587301587%{stroke-dashoffset: 154}41.86507936507937%{ stroke-dashoffset: 0;}100%{ stroke-dashoffset: 0;}}@keyframes vscvtbCn_draw_7{14.583333333333334%{stroke-dashoffset: 130}42.36111111111111%{ stroke-dashoffset: 0;}100%{ stroke-dashoffset: 0;}}@keyframes vscvtbCn_draw_8{15.07936507936508%{stroke-dashoffset: 46}42.85714285714286%{ stroke-dashoffset: 0;}100%{ stroke-dashoffset: 0;}}@keyframes vscvtbCn_draw_9{15.575396825396828%{stroke-dashoffset: 69}43.35317460317461%{ stroke-dashoffset: 0;}100%{ stroke-dashoffset: 0;}}@keyframes vscvtbCn_draw_10{16.07142857142857%{stroke-dashoffset: 138}43.84920634920634%{ stroke-dashoffset: 0;}100%{ stroke-dashoffset: 0;}}@keyframes vscvtbCn_draw_11{16.567460317460316%{stroke-dashoffset: 184}44.3452380952381%{ stroke-dashoffset: 0;}100%{ stroke-dashoffset: 0;}}@keyframes vscvtbCn_draw_12{17.06349206349206%{stroke-dashoffset: 843}44.841269841269835%{ stroke-dashoffset: 0;}100%{ stroke-dashoffset: 0;}}@keyframes vscvtbCn_draw_13{17.559523809523807%{stroke-dashoffset: 1222}45.33730158730159%{ stroke-dashoffset: 0;}100%{ stroke-dashoffset: 0;}}@keyframes vscvtbCn_draw_14{18.055555555555554%{stroke-dashoffset: 999}45.83333333333333%{ stroke-dashoffset: 0;}100%{ stroke-dashoffset: 0;}}@keyframes vscvtbCn_draw_15{18.551587301587304%{stroke-dashoffset: 252}46.32936507936508%{ stroke-dashoffset: 0;}100%{ stroke-dashoffset: 0;}}@keyframes vscvtbCn_draw_16{19.04761904761905%{stroke-dashoffset: 187}46.82539682539682%{ stroke-dashoffset: 0;}100%{ stroke-dashoffset: 0;}}@keyframes vscvtbCn_draw_17{19.543650793650794%{stroke-dashoffset: 183}47.32142857142857%{ stroke-dashoffset: 0;}100%{ stroke-dashoffset: 0;}}@keyframes vscvtbCn_draw_18{20.03968253968254%{stroke-dashoffset: 302}47.817460317460316%{ stroke-dashoffset: 0;}100%{ stroke-dashoffset: 0;}}@keyframes vscvtbCn_draw_19{20.535714285714285%{stroke-dashoffset: 361}48.31349206349206%{ stroke-dashoffset: 0;}100%{ stroke-dashoffset: 0;}}@keyframes vscvtbCn_draw_20{21.03174603174603%{stroke-dashoffset: 284}48.80952380952381%{ stroke-dashoffset: 0;}100%{ stroke-dashoffset: 0;}}@keyframes vscvtbCn_draw_21{21.52777777777778%{stroke-dashoffset: 284}49.30555555555556%{ stroke-dashoffset: 0;}100%{ stroke-dashoffset: 0;}}@keyframes vscvtbCn_draw_22{22.023809523809526%{stroke-dashoffset: 552}49.801587301587304%{ stroke-dashoffset: 0;}100%{ stroke-dashoffset: 0;}}@keyframes vscvtbCn_draw_23{22.51984126984127%{stroke-dashoffset: 465}50.297619047619044%{ stroke-dashoffset: 0;}100%{ stroke-dashoffset: 0;}}@keyframes vscvtbCn_draw_24{23.015873015873016%{stroke-dashoffset: 4123}50.79365079365079%{ stroke-dashoffset: 0;}100%{ stroke-dashoffset: 0;}}@keyframes vscvtbCn_draw_25{23.511904761904763%{stroke-dashoffset: 497}51.289682539682545%{ stroke-dashoffset: 0;}100%{ stroke-dashoffset: 0;}}@keyframes vscvtbCn_draw_26{24.007936507936506%{stroke-dashoffset: 411}51.78571428571428%{ stroke-dashoffset: 0;}100%{ stroke-dashoffset: 0;}}@keyframes vscvtbCn_draw_27{24.503968253968253%{stroke-dashoffset: 547}52.28174603174603%{ stroke-dashoffset: 0;}100%{ stroke-dashoffset: 0;}}@keyframes vscvtbCn_draw_28{25%{stroke-dashoffset: 1019}52.77777777777778%{ stroke-dashoffset: 0;}100%{ stroke-dashoffset: 0;}}</style></svg>
