<?xml version="1.0" encoding="UTF-8" standalone="no"?>
<!-- Created with Inkscape (http://www.inkscape.org/) -->

<svg
   version="1.1"
   id="svg2"
   xml:space="preserve"
   width="1600"
   height="1600"
   viewBox="0 0 1600 1600"
   sodipodi:docname="vector60-5850-01.eps"
   xmlns:inkscape="http://www.inkscape.org/namespaces/inkscape"
   xmlns:sodipodi="http://sodipodi.sourceforge.net/DTD/sodipodi-0.dtd"
   xmlns="http://www.w3.org/2000/svg"
   xmlns:svg="http://www.w3.org/2000/svg"><defs
     id="defs6" /><sodipodi:namedview
     id="namedview4"
     pagecolor="#ffffff"
     bordercolor="#666666"
     borderopacity="1.0"
     inkscape:pageshadow="2"
     inkscape:pageopacity="0.0"
     inkscape:pagecheckerboard="0" /><g
     id="g8"
     inkscape:groupmode="layer"
     inkscape:label="ink_ext_XXXXXX"
     transform="matrix(1.3333333,0,0,-1.3333333,0,1600)"><g
       id="g10"
       transform="scale(0.1)"><path
         d="M 7059.68,9570 C 5481.28,9570 4140.4,8520.07 3680,7072.89 h 876.58 c 421.06,978.78 1384.48,1664.74 2503.1,1664.74 1505.02,0 2729.43,-1241.55 2729.43,-2767.63 0,-1526.08 -1224.41,-2767.63 -2729.43,-2767.63 -1062.27,0 -1984.65,618.57 -2435.47,1519.08 H 3729.65 C 4231.38,3349.99 5534.73,2370 7059.68,2370 9017.33,2370 10610,3984.95 10610,5970 c 0,1985.05 -1592.67,3600 -3550.32,3600"
         style="fill:#211d1d;fill-opacity:1;fill-rule:nonzero;stroke:none"
         id="path12" /><path
         d="M 6318.69,6585.87 H 3453.68 v 924.01 L 1210,5892.86 3453.68,4242.83 v 1023.02 h 2865.01 v 1320.02"
         style="fill:#211d1d;fill-opacity:1;fill-rule:nonzero;stroke:none"
         id="path14" /></g></g></svg>
