<svg width="30" height="30" viewBox="0 0 30 30" fill="none" xmlns="http://www.w3.org/2000/svg">
<path d="M26.228 0H3.772C1.762 0 0.125 1.637 0.125 3.646V18.377C0.125 20.388 1.761 22.023 3.772 22.023H16.07V29.109C16.07 29.481 16.3 29.814 16.648 29.942C16.751 29.981 16.855 30 16.96 30C17.213 30 17.459 29.893 17.633 29.693L24.277 22.024H26.228C28.239 22.024 29.875 20.388 29.875 18.378V3.646C29.875 1.637 28.238 0 26.228 0ZM28.096 18.378C28.096 19.406 27.258 20.245 26.228 20.245C26.228 20.245 23.925 20.245 23.913 20.245C23.649 20.232 23.384 20.338 23.197 20.551L17.85 26.724V21.135C17.85 20.643 17.452 20.245 16.96 20.245H3.772C2.743 20.245 1.906 19.406 1.906 18.378V3.646C1.906 2.618 2.743 1.781 3.772 1.781H26.227C27.257 1.781 28.095 2.618 28.095 3.646L28.096 18.378Z" fill="white"/>
<path d="M24.965 5.87H5.03502C4.54402 5.87 4.14502 6.269 4.14502 6.762C4.14502 7.252 4.54302 7.652 5.03502 7.652H24.965C25.457 7.652 25.856 7.253 25.856 6.762C25.855 6.27 25.457 5.87 24.965 5.87Z" fill="white"/>
<path d="M24.965 10.123H5.03502C4.54402 10.123 4.14502 10.52 4.14502 11.013C4.14502 11.502 4.54302 11.903 5.03502 11.903H24.965C25.457 11.903 25.856 11.503 25.856 11.013C25.855 10.521 25.457 10.123 24.965 10.123Z" fill="white"/>
<path d="M14.469 14.373H5.03502C4.54402 14.373 4.14502 14.772 4.14502 15.263C4.14502 15.755 4.54302 16.155 5.03502 16.155H14.469C14.96 16.155 15.359 15.756 15.359 15.263C15.358 14.772 14.96 14.373 14.469 14.373Z" fill="white"/>
</svg>
