<svg width="1073" height="781" viewBox="0 0 1073 781" fill="none" xmlns="http://www.w3.org/2000/svg">
<g clip-path="url(#clip0_214_52)">
<path opacity="0.1" d="M1054.17 623.33C1027.61 678.14 973.65 714.79 917.75 738.96C872.994 758.184 825.684 770.809 777.3 776.44C768.033 777.54 758.737 778.393 749.41 779C725.578 780.553 701.669 780.527 677.84 778.92C663.507 777.967 649.223 776.443 634.99 774.35C585.534 767.135 537.318 753.095 491.72 732.63C478.56 726.703 465.667 720.233 453.04 713.22C431.95 701.531 411.743 688.316 392.58 673.68C388.34 670.44 384.153 667.13 380.02 663.75L378.32 662.36C375.07 659.68 371.85 656.94 368.58 654.28C363.145 649.727 357.375 645.589 351.32 641.9C350.91 641.66 350.5 641.42 350.08 641.19C348.96 640.54 347.82 639.93 346.66 639.35C344.27 638.145 341.82 637.064 339.32 636.11C327.77 631.71 315.4 630.11 302.86 630.38C300.78 630.38 298.7 630.52 296.61 630.66C293.69 630.86 290.76 631.16 287.84 631.54L286.76 631.69C277.455 633.007 268.255 634.982 259.23 637.6C245.29 641.6 231.6 646.6 217.82 651.11C211.97 653.04 206.11 654.88 200.2 656.53L198.9 656.89C190.495 659.254 181.938 661.045 173.29 662.25C153.638 664.763 133.677 663.155 114.68 657.53L114.02 657.34L112.8 656.98L111.13 656.46C108.33 655.58 105.553 654.617 102.8 653.57L101.13 652.93C98.4634 651.903 95.8534 650.8 93.3 649.62L91.6301 648.86C88.9634 647.62 86.3534 646.31 83.8 644.93C82.88 644.45 81.97 643.93 81.07 643.44C78.35 641.92 75.6834 640.327 73.07 638.66C70.2967 636.893 67.5834 635.05 64.93 633.13C63.7034 632.25 62.49 631.347 61.29 630.42C54.3725 625.129 47.8947 619.287 41.92 612.95C41.59 612.62 41.28 612.28 40.97 611.95C39.38 610.23 37.82 608.48 36.31 606.69C35.75 606.03 35.19 605.37 34.64 604.69C32.8467 602.503 31.1167 600.267 29.45 597.98C29.2 597.65 28.96 597.31 28.72 596.98C21.8874 587.531 16.2229 577.29 11.85 566.48C11.71 566.15 11.58 565.81 11.46 565.48C10.1267 562.047 8.91004 558.557 7.81004 555.01C7.36004 553.53 6.93004 552.01 6.55004 550.53C6.42004 550.09 6.30004 549.64 6.19004 549.2C0.670037 527.47 0.0400391 504.88 0.0400391 482.42C0.0400391 479.8 0.0400391 477.183 0.0400391 474.57C0.200039 438.24 0.760037 401.29 6.12004 365.46C6.12004 365.21 6.19004 364.96 6.23004 364.72C8.024 352.658 10.4642 340.701 13.54 328.9C16.7592 316.518 20.8734 304.386 25.85 292.6C38.18 263.6 56.1101 237.21 76.0201 212.75C100.02 183.32 127.52 156.16 158.15 133.75C162.55 130.53 167.01 127.403 171.53 124.37L173.62 123C174.35 122.51 175.08 122 175.81 121.57C177.31 120.57 178.81 119.63 180.33 118.68L182.03 117.62L185.27 115.62L186.27 115.05L188 114.05L189.71 113.05C191.71 111.87 193.733 110.717 195.78 109.59C204.52 104.717 213.467 100.263 222.62 96.2301C225.32 95.0368 228.037 93.8868 230.77 92.7801C243.18 87.726 255.927 83.5458 268.92 80.2701C273.72 79.0568 278.55 77.9901 283.41 77.0701C289.143 75.9635 294.907 75.0468 300.7 74.3201C309.919 73.1602 319.191 72.4693 328.48 72.2501C393.8 70.6601 459.78 91.9201 510.97 132.67C531.37 148.91 549.7 168.14 572.61 180.59C592.61 191.43 616.02 195.92 637.44 187.39C655.14 180.34 666.66 176.84 686.54 177.91C727.677 180.227 768.232 188.709 806.85 203.07C808.41 203.64 809.97 204.23 811.52 204.82C912.23 243.37 998.82 319.92 1043.8 418.29C1044.99 420.89 1046.14 423.51 1047.27 426.15C1074.1 488.8 1083.78 562.25 1054.17 623.33Z" fill="#FF9B05"/>
<path opacity="0.1" d="M200.17 277.39V656.55L198.87 656.91C190.465 659.274 181.908 661.065 173.26 662.27C153.608 664.782 133.647 663.175 114.65 657.55L113.99 657.36L112.77 657L111.1 656.48C108.3 655.6 105.523 654.637 102.77 653.59L101.1 652.95C98.4333 651.923 95.8234 650.82 93.27 649.64L91.6 648.88C88.9333 647.64 86.3234 646.33 83.77 644.95C82.85 644.47 81.94 643.95 81.04 643.46C78.32 641.94 75.6533 640.347 73.04 638.68C70.2667 636.913 67.5533 635.07 64.9 633.15C63.6733 632.27 62.46 631.367 61.26 630.44C54.3425 625.149 47.8646 619.307 41.89 612.97C41.56 612.64 41.25 612.3 40.94 611.97C39.35 610.25 37.79 608.5 36.28 606.71C35.72 606.05 35.16 605.39 34.61 604.71C32.8167 602.523 31.0867 600.287 29.42 598C29.17 597.67 28.93 597.33 28.69 597C21.8574 587.551 16.1929 577.31 11.82 566.5C11.68 566.17 11.55 565.83 11.43 565.5C10.0967 562.067 8.88001 558.577 7.78001 555.03C7.33001 553.55 6.90001 552.03 6.52001 550.55C6.39001 550.11 6.27001 549.66 6.16001 549.22C0.640007 527.49 0.0100098 504.9 0.0100098 482.44C0.0100098 479.82 0.0100098 477.203 0.0100098 474.59C0.17001 438.26 0.730008 401.31 6.09001 365.48C6.09001 365.23 6.16001 364.98 6.20001 364.74C7.99397 352.678 10.4341 340.721 13.51 328.92H115.63V277.39H135.99V236H179.81V277.39H200.17Z" fill="#FF9B05"/>
<path opacity="0.1" d="M1054.17 623.33C1027.61 678.14 973.65 714.79 917.75 738.96C872.994 758.184 825.684 770.809 777.3 776.44C768.033 777.54 758.737 778.393 749.41 779C725.578 780.553 701.669 780.527 677.84 778.92C663.507 777.967 649.223 776.443 634.99 774.35C585.534 767.135 537.318 753.095 491.72 732.63C478.56 726.703 465.667 720.233 453.04 713.22C431.95 701.531 411.743 688.315 392.58 673.68C388.34 670.44 384.153 667.13 380.02 663.75L378.32 662.36C375.07 659.68 371.85 656.94 368.58 654.28C363.145 649.727 357.375 645.589 351.32 641.9C350.91 641.66 350.5 641.42 350.08 641.19C348.96 640.54 347.82 639.93 346.66 639.35C344.27 638.145 341.82 637.064 339.32 636.11V481H524.91V515.53H606.36V262.95H702.23V363.95H749.65V304.15H788.83V240.27H806.83V203.07C808.39 203.64 809.95 204.23 811.5 204.82V240.27H829.02V304.19H868.17V363.99H925.9V591.82H1017.66V426.13H1047.23C1074.1 488.8 1083.78 562.25 1054.17 623.33Z" fill="#FF9B05"/>
<path opacity="0.1" d="M677.86 300.96H635.01V343.81H677.86V300.96Z" fill="#FF9B05"/>
<path opacity="0.1" d="M677.86 389.78H635.01V432.63H677.86V389.78Z" fill="#FF9B05"/>
<path opacity="0.1" d="M677.86 478.61H635.01V521.46H677.86V478.61Z" fill="#FF9B05"/>
<path opacity="0.1" d="M677.86 567.44H635.01V610.29H677.86V567.44Z" fill="#FF9B05"/>
<path opacity="0.1" d="M677.86 656.26H635.01V699.11H677.86V656.26Z" fill="#FF9B05"/>
<path opacity="0.1" d="M677.86 745.07V778.91C663.527 777.957 649.243 776.433 635.01 774.34V745.07H677.86Z" fill="#FF9B05"/>
<path opacity="0.1" d="M503.44 536.38H353.45V555.79H503.44V536.38Z" fill="#FF9B05"/>
<path opacity="0.1" d="M503.44 595.33H353.45V614.74H503.44V595.33Z" fill="#FF9B05"/>
<path opacity="0.1" d="M503.44 654.28V673.68H392.6C388.36 670.44 384.173 667.13 380.04 663.75L378.34 662.36C375.09 659.68 371.87 656.94 368.6 654.28H503.44Z" fill="#FF9B05"/>
<path opacity="0.1" d="M503.44 713.22V732.63H491.74C478.58 726.703 465.687 720.233 453.06 713.22H503.44Z" fill="#FF9B05"/>
<path opacity="0.1" d="M777.32 416.99H749.43V444.88H777.32V416.99Z" fill="#FF9B05"/>
<path opacity="0.1" d="M173.32 287.01H145.43V314.9H173.32V287.01Z" fill="#FF9B05"/>
<path opacity="0.1" d="M173.32 351.81H145.43V379.7H173.32V351.81Z" fill="#FF9B05"/>
<path opacity="0.1" d="M173.32 416.6H145.43V444.49H173.32V416.6Z" fill="#FF9B05"/>
<path opacity="0.1" d="M173.32 481.4H145.43V509.29H173.32V481.4Z" fill="#FF9B05"/>
<path opacity="0.1" d="M173.32 546.2H145.43V574.09H173.32V546.2Z" fill="#FF9B05"/>
<path opacity="0.1" d="M173.32 610.99H145.43V638.88H173.32V610.99Z" fill="#FF9B05"/>
<path opacity="0.1" d="M883.81 416.99H855.92V444.88H883.81V416.99Z" fill="#FF9B05"/>
<path opacity="0.1" d="M777.32 485.79H749.43V513.68H777.32V485.79Z" fill="#FF9B05"/>
<path opacity="0.1" d="M883.81 485.79H855.92V513.68H883.81V485.79Z" fill="#FF9B05"/>
<path opacity="0.1" d="M777.32 554.6H749.43V582.49H777.32V554.6Z" fill="#FF9B05"/>
<path opacity="0.1" d="M883.81 554.6H855.92V582.49H883.81V554.6Z" fill="#FF9B05"/>
<path opacity="0.1" d="M777.32 623.41H749.43V651.3H777.32V623.41Z" fill="#FF9B05"/>
<path opacity="0.1" d="M883.81 623.41H855.92V651.3H883.81V623.41Z" fill="#FF9B05"/>
<path opacity="0.1" d="M777.32 692.21H749.43V720.1H777.32V692.21Z" fill="#FF9B05"/>
<path opacity="0.1" d="M883.81 692.21H855.92V720.1H883.81V692.21Z" fill="#FF9B05"/>
<path opacity="0.1" d="M749.43 779V761.01H777.32V776.44L749.43 779Z" fill="#FF9B05"/>
<path opacity="0.1" d="M6.1001 364.75V380.75H112.77V364.75H6.1001ZM15.6001 379.75H7.7701V365.75H15.6001V379.75ZM25.1001 379.75H17.2701V365.75H25.1001V379.75ZM34.6001 379.75H26.7701V365.75H34.6001V379.75ZM44.1001 379.75H36.2701V365.75H44.1001V379.75ZM53.6001 379.75H45.7701V365.75H53.6001V379.75ZM63.1001 379.75H55.2701V365.75H63.1001V379.75ZM72.6001 379.75H64.7701V365.75H72.6001V379.75ZM82.1001 379.75H74.2701V365.75H82.1001V379.75ZM91.6001 379.75H83.7701V365.75H91.6001V379.75ZM101.1 379.75H93.2701V365.75H101.1V379.75ZM111.1 379.75H102.77V365.75H111.1V379.75Z" fill="#FF9B05"/>
<path opacity="0.1" d="M6.1001 411.21V427.16H112.77V411.21H6.1001ZM15.6001 426.16H7.7701V412.21H15.6001V426.16ZM25.1001 426.16H17.2701V412.21H25.1001V426.16ZM34.6001 426.16H26.7701V412.21H34.6001V426.16ZM44.1001 426.16H36.2701V412.21H44.1001V426.16ZM53.6001 426.16H45.7701V412.21H53.6001V426.16ZM63.1001 426.16H55.2701V412.21H63.1001V426.16ZM72.6001 426.16H64.7701V412.21H72.6001V426.16ZM82.1001 426.16H74.2701V412.21H82.1001V426.16ZM91.6001 426.16H83.7701V412.21H91.6001V426.16ZM101.1 426.16H93.2701V412.21H101.1V426.16ZM111.1 426.16H102.77V412.21H111.1V426.16Z" fill="#FF9B05"/>
<path opacity="0.1" d="M6.1001 457.66V473.61H112.77V457.66H6.1001ZM15.6001 472.61H7.7701V458.66H15.6001V472.61ZM25.1001 472.61H17.2701V458.66H25.1001V472.61ZM34.6001 472.61H26.7701V458.66H34.6001V472.61ZM44.1001 472.61H36.2701V458.66H44.1001V472.61ZM53.6001 472.61H45.7701V458.66H53.6001V472.61ZM63.1001 472.61H55.2701V458.66H63.1001V472.61ZM72.6001 472.61H64.7701V458.66H72.6001V472.61ZM82.1001 472.61H74.2701V458.66H82.1001V472.61ZM91.6001 472.61H83.7701V458.66H91.6001V472.61ZM101.1 472.61H93.2701V458.66H101.1V472.61ZM111.1 472.61H102.77V458.66H111.1V472.61Z" fill="#FF9B05"/>
<path opacity="0.1" d="M6.1001 504.07V520.07H112.77V504.07H6.1001ZM15.6001 519.07H7.7701V505.07H15.6001V519.07ZM25.1001 519.07H17.2701V505.07H25.1001V519.07ZM34.6001 519.07H26.7701V505.07H34.6001V519.07ZM44.1001 519.07H36.2701V505.07H44.1001V519.07ZM53.6001 519.07H45.7701V505.07H53.6001V519.07ZM63.1001 519.07H55.2701V505.07H63.1001V519.07ZM72.6001 519.07H64.7701V505.07H72.6001V519.07ZM82.1001 519.07H74.2701V505.07H82.1001V519.07ZM91.6001 519.07H83.7701V505.07H91.6001V519.07ZM101.1 519.07H93.2701V505.07H101.1V519.07ZM111.1 519.07H102.77V505.07H111.1V519.07Z" fill="#FF9B05"/>
<path opacity="0.1" d="M6.51001 550.56C6.89001 552.06 7.32001 553.56 7.77001 555.04V551.56H15.6V565.56H11.42C11.54 565.89 11.67 566.23 11.81 566.56H112.81V550.56H6.51001ZM25.1 565.56H17.27V551.56H25.1V565.56ZM34.6 565.56H26.77V551.56H34.6V565.56ZM44.1 565.56H36.27V551.56H44.1V565.56ZM53.6 565.56H45.77V551.56H53.6V565.56ZM63.1 565.56H55.27V551.56H63.1V565.56ZM72.6 565.56H64.77V551.56H72.6V565.56ZM82.1 565.56H74.27V551.56H82.1V565.56ZM91.6 565.56H83.77V551.56H91.6V565.56ZM101.1 565.56H93.27V551.56H101.1V565.56ZM111.1 565.56H102.77V551.56H111.1V565.56Z" fill="#FF9B05"/>
<path opacity="0.1" d="M28.6799 597.01C28.9199 597.34 29.1599 597.68 29.4099 598.01H34.5999V604.72C35.1499 605.39 35.7099 606.05 36.2699 606.72V598.02H44.0999V612.02H40.9299C41.2399 612.35 41.5499 612.69 41.8799 613.02H112.77V597.02L28.6799 597.01ZM53.5999 612.01H45.7699V598.01H53.5999V612.01ZM63.0999 612.01H55.2699V598.01H63.0999V612.01ZM72.5999 612.01H64.7699V598.01H72.5999V612.01ZM82.0999 612.01H74.2699V598.01H82.0999V612.01ZM91.5999 612.01H83.7699V598.01H91.5999V612.01ZM101.1 612.01H93.2699V598.01H101.1V612.01ZM111.1 612.01H102.77V598.01H111.1V612.01Z" fill="#FF9B05"/>
<path opacity="0.1" d="M81.04 643.46C81.94 643.97 82.8501 644.46 83.7701 644.95V644.46H91.6V648.88L93.2701 649.64V644.46H101.1V652.95L102.77 653.59V644.46H111.1V656.46L112.77 656.98V643.46H81.04Z" fill="#FF9B05"/>
<path opacity="0.1" d="M409.96 226.24C409.96 226.24 386.12 224.8 388.96 241.5C388.814 242.349 388.941 243.222 389.322 243.994C389.703 244.767 390.318 245.399 391.08 245.8C391.08 245.8 391.08 244.56 393.52 244.98C394.376 245.121 395.245 245.161 396.11 245.1C397.28 245.023 398.393 244.567 399.28 243.8V243.8C399.28 243.8 405.98 241.03 408.59 230.08C408.59 230.08 410.51 227.69 410.44 227.08L406.44 228.8C406.44 228.8 407.82 231.7 406.74 234.11C406.74 234.11 406.61 228.91 405.83 229.03C405.68 229.03 403.74 230.03 403.74 230.03C403.74 230.03 406.11 235.09 404.32 238.76C404.32 238.76 405 232.54 403.01 230.4L400.11 232.07C400.11 232.07 402.88 237.29 401 241.55C401 241.55 401.49 235.02 399.52 232.48L396.95 234.48C396.95 234.48 399.55 239.62 397.95 243.16C397.95 243.16 397.74 235.55 396.38 234.97C395.404 235.793 394.534 236.733 393.79 237.77C393.79 237.77 395.57 241.5 394.47 243.47C394.47 243.47 393.79 238.41 393.23 238.38C393.23 238.38 391 241.74 390.77 244.04C390.873 241.906 391.535 239.837 392.69 238.04C391.402 238.284 390.213 238.899 389.27 239.81C389.27 239.81 389.62 237.44 393.27 237.23C393.27 237.23 395.12 234.69 395.62 234.53C395.62 234.53 392.01 234.23 389.82 235.2C389.82 235.2 391.75 232.96 396.28 233.98L398.81 231.91C398.81 231.91 394.06 231.26 392.05 231.98C392.05 231.98 394.36 229.98 399.49 231.44L402.25 229.79C400.13 229.326 397.959 229.138 395.79 229.23C395.79 229.23 398.33 227.86 403.06 229.35L405.06 228.46C405.06 228.46 402.06 227.88 401.23 227.79C400.4 227.7 400.31 227.46 400.31 227.46C402.188 227.147 404.117 227.362 405.88 228.08C405.88 228.08 410.03 226.5 409.96 226.24Z" fill="#FF9B05"/>
<path opacity="0.1" d="M347.38 307.51C347.38 307.51 339.23 329.95 356.05 332C356.82 332.379 357.69 332.505 358.536 332.359C359.382 332.214 360.161 331.804 360.76 331.19C360.76 331.19 359.59 330.8 360.67 328.61C361.048 327.832 361.337 327.013 361.53 326.17C361.783 325.024 361.657 323.828 361.17 322.76V322.76C361.17 322.76 360.42 315.55 350.66 309.94C350.66 309.94 348.92 307.41 348.31 307.31L348.81 311.66C348.81 311.66 351.98 311.16 353.99 312.88C353.99 312.88 348.99 311.53 348.86 312.31C348.86 312.46 349.23 314.6 349.23 314.6C349.23 314.6 354.75 313.76 357.76 316.52C357.76 316.52 351.98 314.1 349.37 315.41L350.15 318.59C350.15 318.59 355.94 317.43 359.49 320.43C359.49 320.43 353.37 318.12 350.37 319.28L351.56 322.28C351.56 322.28 357.23 321.28 360.17 323.77C360.17 323.77 352.81 321.77 351.88 322.95C352.392 324.114 353.044 325.212 353.82 326.22C353.82 326.22 357.91 325.58 359.48 327.22C359.48 327.22 354.43 326.43 354.25 326.95C354.25 326.95 356.84 330.05 358.98 330.95C356.97 330.239 355.181 329.015 353.79 327.4C353.658 328.708 353.911 330.025 354.52 331.19C354.52 331.19 352.34 330.19 353.17 326.64C353.17 326.64 351.25 324.15 351.25 323.64C351.25 323.64 349.93 327.01 350.25 329.39C350.25 329.39 348.65 326.9 350.91 322.85L349.65 319.85C349.65 319.85 347.65 324.22 347.79 326.36C347.79 326.36 346.55 323.57 349.39 319.06L348.6 315.95C347.553 317.839 346.757 319.856 346.23 321.95C346.23 321.95 345.63 319.12 348.4 315.01L348.11 312.87C348.11 312.87 346.71 315.55 346.38 316.36C346.05 317.17 345.8 317.14 345.8 317.14C346.03 315.249 346.782 313.459 347.97 311.97C347.97 311.97 347.65 307.51 347.38 307.51Z" fill="#FF9B05"/>
<path opacity="0.1" d="M505.41 288.59C505.41 288.59 497.27 311.07 514.08 313.07C514.853 313.448 515.725 313.573 516.573 313.426C517.421 313.278 518.2 312.867 518.8 312.25C518.8 312.25 517.62 311.86 518.71 309.68C519.092 308.901 519.377 308.078 519.56 307.23C519.816 306.085 519.693 304.889 519.21 303.82C519.21 303.82 518.46 296.61 508.7 291C508.7 291 506.95 288.48 506.34 288.38L506.85 292.72C506.85 292.72 510.02 292.23 512.03 293.95C512.03 293.95 507.03 292.6 506.89 293.37C506.89 293.53 507.26 295.66 507.26 295.66C507.26 295.66 512.78 294.83 515.8 297.58C515.8 297.58 510.02 295.17 507.4 296.47L508.19 299.66C508.19 299.66 513.98 298.49 517.53 301.5C517.53 301.5 511.4 299.18 508.4 300.34L509.59 303.34C509.59 303.34 515.26 302.34 518.2 304.83C518.2 304.83 510.85 302.83 509.91 304.02C510.438 305.189 511.11 306.287 511.91 307.29C511.91 307.29 515.99 306.64 517.57 308.29C517.57 308.29 512.52 307.5 512.34 308.03C512.34 308.03 514.92 311.12 517.06 312.03C515.052 311.322 513.265 310.097 511.88 308.48C511.747 309.786 511.998 311.103 512.6 312.27C512.6 312.27 510.43 311.27 511.26 307.73C511.26 307.73 509.34 305.23 509.33 304.73C509.33 304.73 508.02 308.11 508.33 310.48C508.33 310.48 506.73 308 508.99 303.94L507.73 300.94C507.73 300.94 505.73 305.31 505.87 307.44C505.87 307.44 504.63 304.66 507.47 300.15L506.67 297.03C505.624 298.919 504.827 300.936 504.3 303.03C504.3 303.03 503.71 300.2 506.48 296.09L506.19 293.95C506.19 293.95 504.79 296.63 504.45 297.44C504.11 298.25 503.87 298.22 503.87 298.22C504.107 296.329 504.861 294.54 506.05 293.05C506.05 293.05 505.69 288.6 505.41 288.59Z" fill="#FF9B05"/>
<path opacity="0.1" d="M279.51 472.07C279.51 472.07 271.36 494.52 288.18 496.57C288.951 496.949 289.822 497.074 290.668 496.927C291.515 496.779 292.293 496.367 292.89 495.75C292.89 495.75 291.72 495.36 292.8 493.18C293.184 492.401 293.473 491.578 293.66 490.73C293.918 489.585 293.792 488.386 293.3 487.32V487.32C293.3 487.32 292.55 480.11 282.79 474.51C282.79 474.51 281.05 471.98 280.44 471.88L280.94 476.22C280.94 476.22 284.12 475.73 286.12 477.45C286.12 477.45 281.12 476.1 280.99 476.87C280.99 477.03 281.36 479.16 281.36 479.16C281.36 479.16 286.88 478.33 289.89 481.08C289.89 481.08 284.11 478.67 281.5 479.97L282.28 483.16C282.28 483.16 288.07 481.99 291.62 485C291.62 485 285.5 482.68 282.5 483.84L283.69 486.84C283.69 486.84 289.36 485.84 292.3 488.33C292.3 488.33 284.95 486.33 284.01 487.52C284.522 488.684 285.173 489.782 285.95 490.79C285.95 490.79 290.04 490.14 291.62 491.79C291.62 491.79 286.56 491 286.38 491.53C286.38 491.53 288.97 494.62 291.11 495.53C289.1 494.824 287.31 493.604 285.92 491.99C285.788 493.294 286.041 494.609 286.65 495.77C286.65 495.77 284.47 494.77 285.3 491.23C285.3 491.23 283.39 488.73 283.38 488.23C283.38 488.23 282.06 491.61 282.38 493.98C282.38 493.98 280.78 491.5 283.04 487.44L281.78 484.44C281.78 484.44 279.78 488.81 279.93 490.94C279.93 490.94 278.69 488.16 281.53 483.65L280.73 480.54C279.681 482.428 278.885 484.445 278.36 486.54C278.36 486.54 277.76 483.7 280.53 479.6L280.24 477.45C280.24 477.45 278.84 480.13 278.51 480.94C278.18 481.75 277.93 481.72 277.93 481.72C278.161 479.827 278.916 478.037 280.11 476.55C280.11 476.55 279.78 472.07 279.51 472.07Z" fill="#FF9B05"/>
<path opacity="0.1" d="M247.17 260.48C247.17 260.48 239.03 282.92 255.84 284.97C256.612 285.348 257.484 285.474 258.331 285.328C259.178 285.183 259.958 284.774 260.56 284.16C260.56 284.16 259.38 283.77 260.47 281.58C260.847 280.799 261.132 279.977 261.32 279.13C261.576 277.989 261.453 276.795 260.97 275.73C260.97 275.73 260.22 268.52 250.45 262.91C250.45 262.91 248.71 260.38 248.1 260.28L248.61 264.63C248.61 264.63 251.78 264.13 253.78 265.85C253.78 265.85 248.78 264.5 248.65 265.28C248.65 265.43 249.02 267.57 249.02 267.57C249.02 267.57 254.54 266.73 257.56 269.49C257.56 269.49 251.78 267.07 249.16 268.38L249.94 271.56C249.94 271.56 255.73 270.39 259.29 273.4C259.29 273.4 253.16 271.08 250.16 272.25L251.35 275.25C251.35 275.25 257.02 274.25 259.96 276.75C259.96 276.75 252.61 274.75 251.67 275.93C252.182 277.094 252.834 278.192 253.61 279.2C253.61 279.2 257.7 278.56 259.28 280.2C259.28 280.2 254.23 279.41 254.05 279.93C254.05 279.93 256.63 283.03 258.77 283.93C256.762 283.216 254.973 281.993 253.58 280.38C253.448 281.688 253.701 283.005 254.31 284.17C254.31 284.17 252.13 283.17 252.97 279.62C252.97 279.62 251.05 277.13 251.04 276.62C251.04 276.62 249.73 279.99 250.04 282.37C250.04 282.37 248.43 279.88 250.7 275.83L249.43 272.83C249.43 272.83 247.43 277.2 247.58 279.34C247.58 279.34 246.34 276.55 249.18 272.04L248.38 268.93C247.333 270.819 246.537 272.836 246.01 274.93C246.01 274.93 245.42 272.1 248.18 267.99L247.9 265.85C247.9 265.85 246.49 268.53 246.16 269.33C245.83 270.13 245.58 270.12 245.58 270.12C245.811 268.227 246.566 266.437 247.76 264.95C247.76 264.95 247.45 260.48 247.17 260.48Z" fill="#FF9B05"/>
<path opacity="0.1" d="M307.61 382.68C307.61 382.68 313.9 405.68 328.82 397.68C329.668 397.545 330.451 397.145 331.059 396.538C331.666 395.931 332.065 395.148 332.2 394.3C332.2 394.3 331.02 394.66 330.65 392.25C330.509 391.394 330.267 390.559 329.93 389.76C329.487 388.674 328.695 387.767 327.68 387.18C327.68 387.18 322.91 381.72 311.68 382.76C311.68 382.76 308.8 381.71 308.24 381.98L311.16 385.23C311.16 385.23 313.47 383 316.1 383.23C316.1 383.23 311.21 385.03 311.57 385.72C311.65 385.86 313.19 387.38 313.19 387.38C313.19 387.38 317.19 383.51 321.27 384.02C321.27 384.02 315.16 385.38 313.78 387.96L316.25 390.11C316.25 390.11 320.31 385.82 324.95 386.22C324.95 386.22 318.6 387.86 316.82 390.54L319.54 392.33C319.54 392.33 323.54 388.22 327.44 388.59C327.44 388.59 320.3 391.22 320.19 392.7C321.282 393.357 322.451 393.877 323.67 394.25C323.67 394.25 326.67 391.37 328.86 391.78C328.86 391.78 324.27 394.05 324.43 394.58C324.43 394.58 328.33 395.58 330.58 395.1C328.531 395.681 326.366 395.715 324.3 395.2C324.943 396.344 325.911 397.273 327.08 397.87C327.08 397.87 324.72 398.3 323.36 394.93C323.36 394.93 320.36 394 320.04 393.58C320.04 393.58 320.92 397.1 322.54 398.86C322.54 398.86 319.8 397.75 319.31 393.13L316.54 391.4C316.54 391.4 317.45 396.11 318.77 397.78C318.77 397.78 316.15 396.22 315.87 390.9L313.43 388.82C313.668 390.978 314.185 393.096 314.97 395.12C314.97 395.12 312.86 393.12 312.75 388.2L311.28 386.61C311.28 386.61 311.68 389.61 311.87 390.46C312.06 391.31 311.87 391.46 311.87 391.46C310.969 389.78 310.554 387.883 310.67 385.98C310.67 385.98 307.84 382.53 307.61 382.68Z" fill="#FF9B05"/>
<path opacity="0.1" d="M478.25 403.22C478.25 403.22 484.54 426.22 499.45 418.22C500.3 418.088 501.087 417.69 501.696 417.083C502.305 416.475 502.706 415.69 502.84 414.84C502.84 414.84 501.65 415.2 501.28 412.84C501.147 411.984 500.908 411.147 500.57 410.35C500.12 409.266 499.326 408.359 498.31 407.77V407.77C498.31 407.77 493.54 402.31 482.31 403.36C482.31 403.36 479.43 402.3 478.88 402.57L481.79 405.82C481.79 405.82 484.1 403.59 486.73 403.82C486.73 403.82 481.84 405.62 482.21 406.31C482.28 406.45 483.83 407.97 483.83 407.97C483.83 407.97 487.83 404.1 491.91 404.61C491.91 404.61 485.79 405.97 484.41 408.55L486.89 410.7C486.89 410.7 490.89 406.41 495.58 406.81C495.58 406.81 489.24 408.45 487.46 411.13L490.18 412.92C490.18 412.92 494.18 408.81 498.07 409.18C498.07 409.18 490.93 411.81 490.83 413.29C491.919 413.947 493.084 414.468 494.3 414.84C494.3 414.84 497.3 411.96 499.49 412.37C499.49 412.37 494.91 414.64 495.06 415.17C495.06 415.17 498.96 416.17 501.22 415.69C499.168 416.27 497 416.305 494.93 415.79C495.577 416.932 496.543 417.86 497.71 418.46C497.71 418.46 495.35 418.89 493.99 415.52C493.99 415.52 490.99 414.59 490.68 414.17C490.68 414.17 491.55 417.69 493.17 419.45C493.17 419.45 490.43 418.34 489.94 413.72L487.17 411.97C487.17 411.97 488.08 416.68 489.41 418.35C489.41 418.35 486.79 416.79 486.51 411.47L484.06 409.39C484.297 411.549 484.818 413.667 485.61 415.69C485.61 415.69 483.49 413.69 483.38 408.77L481.91 407.18C481.91 407.18 482.31 410.18 482.5 411.03C482.69 411.88 482.5 412.03 482.5 412.03C481.599 410.35 481.184 408.453 481.3 406.55C481.3 406.55 478.48 403.07 478.25 403.22Z" fill="#FF9B05"/>
<path d="M414.23 634.2C414.23 634.2 466.11 616.73 455.37 554.83L389.47 537.72L374.17 588.51L414.23 634.2Z" fill="#CED7E7"/>
<path opacity="0.1" d="M374.17 588.51L414.22 634.2C414.22 634.2 466.1 616.73 455.36 554.83L374.17 588.51Z" fill="black"/>
<path d="M156.17 131.21C156.17 131.21 163.17 142.6 172.74 136.91C182.31 131.22 173.13 115.5 173.13 115.5C173.13 115.5 154.8 112.99 156.17 131.21Z" fill="#FED253"/>
<path opacity="0.1" d="M172.74 136.91C171.611 137.64 170.345 138.132 169.019 138.356C167.694 138.58 166.336 138.53 165.03 138.21C161.52 137.32 158.82 134.62 157.37 132.85C156.938 132.331 156.537 131.787 156.17 131.22C155.68 124.72 157.7 120.85 160.5 118.57C164.35 115.44 169.68 115.31 171.98 115.41C172.69 115.41 173.1 115.51 173.1 115.51L173.29 115.83C173.56 116.34 174.15 117.47 174.78 118.98C176.92 123.93 179.47 132.9 172.74 136.91Z" fill="black"/>
<path d="M419.33 551.92L455.33 554.83L522.33 555.38L469.54 620.38C469.54 620.38 452.79 621.29 449.34 623.65C445.89 626.01 397.45 624.75 397.45 624.75L389.63 591.43L419.33 551.92Z" fill="#FFA2A2"/>
<path opacity="0.05" d="M419.33 551.92L455.33 554.83L522.33 555.38L469.54 620.38C469.54 620.38 452.79 621.29 449.34 623.65C445.89 626.01 397.45 624.75 397.45 624.75L389.63 591.43L419.33 551.92Z" fill="black"/>
<path d="M382.92 377.16L391.29 391.36L393.11 416.12C393.11 416.12 398.94 437.23 403.31 443.42C407.68 449.61 409.5 466 409.5 466C409.5 466 411.32 481.29 413.5 484.56C415.68 487.83 418.6 511.56 418.6 511.56C418.6 511.56 437.9 550.15 455.37 554.88C455.37 554.88 368.72 583.28 414.23 634.25C414.23 634.25 381.83 642.25 374.18 633.16C366.53 624.07 346.51 489.35 346.51 489.35L352.7 375.75L382.92 377.16Z" fill="#CED7E7"/>
<path opacity="0.05" d="M382.92 377.16L391.29 391.36L393.11 416.12C393.11 416.12 398.94 437.23 403.31 443.42C407.68 449.61 409.5 466 409.5 466C409.5 466 411.32 481.29 413.5 484.56C415.68 487.83 418.6 511.56 418.6 511.56C418.6 511.56 437.9 550.15 455.37 554.88C455.37 554.88 368.72 583.28 414.23 634.25C414.23 634.25 381.83 642.25 374.18 633.16C366.53 624.07 346.51 489.35 346.51 489.35L352.7 375.75L382.92 377.16Z" fill="black"/>
<path d="M277.79 238.77C275.359 251.384 276.08 264.402 279.89 276.67L266.41 315.26C266.41 315.26 163.74 258.1 172.48 244.26C177.43 236.41 178.06 215.64 177.66 199.14C177.37 186.6 176.48 176.54 176.48 176.54C176.48 176.54 302.48 188.93 285.71 217.69C281.915 224.227 279.238 231.351 277.79 238.77V238.77Z" fill="#FFA2A2"/>
<path opacity="0.1" d="M285.71 217.69C281.915 224.227 279.238 231.351 277.79 238.77C259.091 244.752 238.898 244.073 220.643 236.848C202.389 229.623 187.2 216.299 177.66 199.14C177.37 186.6 176.48 176.54 176.48 176.54C176.48 176.54 302.45 188.93 285.71 217.69Z" fill="black"/>
<path d="M336.68 155.79C336.689 169.139 333.547 182.301 327.512 194.207C321.476 206.113 312.716 216.427 301.943 224.311C291.171 232.194 278.69 237.424 265.516 239.576C252.342 241.728 238.846 240.74 226.125 236.694C213.405 232.648 201.818 225.658 192.307 216.291C182.797 206.924 175.631 195.445 171.392 182.788C167.153 170.13 165.96 156.651 167.911 143.445C169.862 130.24 174.902 117.681 182.62 106.79C183.82 105.103 185.083 103.457 186.41 101.85C193.969 92.6623 203.376 85.1668 214.02 79.8501V79.8501C219.795 76.961 225.886 74.7529 232.17 73.2701C243.518 70.5818 255.297 70.2572 266.775 72.3166C278.253 74.376 289.185 78.7752 298.89 85.2407C308.596 91.7061 316.867 100.099 323.189 109.898C329.511 119.698 333.749 130.693 335.64 142.2C336.346 146.695 336.694 151.24 336.68 155.79Z" fill="#FFA2A2"/>
<path d="M370.17 504.6C368.9 511.38 370.49 523.77 372.9 536.38C373 536.93 373.11 537.48 373.22 538.03C373.33 538.58 373.49 539.43 373.63 540.12C374.74 545.54 375.95 550.91 377.13 555.79C378.31 560.67 379.37 564.85 380.27 568.29C381.63 573.44 382.56 576.68 382.56 576.68C382.56 576.68 382.68 579.86 382.84 584.92C382.93 587.84 383.03 591.4 383.13 595.33C383.13 596.47 383.2 597.63 383.23 598.83C383.28 600.92 383.33 603.09 383.38 605.31C383.38 606.03 383.38 606.75 383.43 607.48C383.43 609.87 383.52 612.31 383.56 614.74C383.61 618.08 383.65 621.42 383.67 624.66C383.67 625.9 383.67 627.12 383.67 628.32C383.67 631.42 383.67 634.39 383.67 637.12C383.56 644.87 383.25 650.72 382.59 652.41C382.36 652.99 382.15 653.62 381.95 654.28C381.083 657.384 380.454 660.55 380.07 663.75L378.37 662.36C375.12 659.68 371.9 656.94 368.63 654.28C363.195 649.727 357.425 645.589 351.37 641.9C350.96 641.66 350.55 641.42 350.13 641.19C349.01 640.54 347.87 639.93 346.71 639.35C344.32 638.145 341.87 637.064 339.37 636.11C327.82 631.71 315.45 630.11 302.91 630.38C297.91 632.29 294.66 633.66 294.66 633.66L288.3 635.58L287.24 635.9C280.35 638 270.66 640.98 267.17 642.22C261.53 644.22 212.56 654.41 212.56 654.41C208.086 655.631 203.516 656.468 198.9 656.91C190.494 659.274 181.938 661.065 173.29 662.27C153.637 664.782 133.677 663.175 114.68 657.55C114.113 657.584 113.544 657.567 112.98 657.5C113.33 657.5 113.67 657.42 113.98 657.36L112.76 657L111.09 656.48C108.29 655.6 105.513 654.637 102.76 653.59L101.09 652.95C98.4233 651.923 95.8133 650.82 93.26 649.64L91.59 648.88C88.9233 647.64 86.3133 646.33 83.76 644.95C82.84 644.47 81.93 643.95 81.03 643.46C78.31 641.94 75.6433 640.347 73.03 638.68C72.59 634.91 72.36 632.39 72.36 632.39L68.46 612.97L68.26 611.97L65.46 597.97L65.26 596.97L59.17 566.51L58.97 565.51L56.17 551.51L55.97 550.51L49.8 520.07L49.6 519.07L46.8 505.07L46.6 504.07L40.48 473.57L40.28 472.57L37.48 458.62L37.28 457.62L36.17 452.12L34.5 443.79C34.5 443.79 29.17 436.17 23.17 427.16L22.5 426.16C20.79 423.63 19.03 421 17.32 418.42C16.75 417.57 16.2 416.73 15.65 415.9C14.8167 414.64 14.01 413.41 13.23 412.21L12.69 411.38L12.58 411.21C3.95999 397.87 9.72998 392.07 9.72998 392.07C9.72998 392.07 13.35 387.17 18.02 380.69C18.25 380.36 18.49 380.03 18.74 379.69C20.74 376.89 22.94 373.83 25.1 370.77L26.77 368.39C27.4 367.5 28.02 366.61 28.62 365.73C28.86 365.4 29.09 365.06 29.31 364.73C33.92 358.07 37.72 352.26 38.5 350.2C39.72 346.95 47.5 337.34 55.25 328.91C61.36 322.25 67.44 316.33 70.17 314.91C76.36 311.64 78.91 301.07 78.91 301.07C78.91 301.07 92.38 296.35 94.2 292.71C96.02 289.07 121.51 272.71 121.51 272.71C121.51 272.71 131.82 266.07 135.99 262.07C136.58 261.547 137.095 260.945 137.52 260.28C138.97 257.68 148.44 255.54 152.29 254.77C153.29 254.57 153.91 254.46 153.91 254.46C155.464 251.636 157.429 249.058 159.74 246.81C161.31 245.42 163.27 240.63 164.92 235.99C166.71 230.93 168.1 226.06 168.1 226.06C171.02 216.23 176.84 219.14 176.84 219.14C176.832 220.483 176.959 221.823 177.22 223.14C179.65 235.14 192.85 240.14 199.78 245.75C207.43 251.93 219.44 267.96 228.91 271.23C236.75 273.94 245.84 284.16 248.72 287.57L248.94 287.83C249.42 288.39 249.66 288.71 249.66 288.71C249.66 288.71 255.03 288.43 258.3 288.37H259.49C260.155 288.303 260.787 288.046 261.31 287.63C264.56 285.42 269.4 278.94 271.51 277.45C274.05 275.62 276.61 246.13 276.61 246.13L276.74 246.07C285.81 241.82 295.54 284.36 295.54 284.36C295.54 284.36 312.65 289.46 314.11 293.1C314.39 293.82 315.68 295.1 317.62 296.65C326.453 303.401 335.855 309.373 345.72 314.5C345.94 314.61 346.15 314.72 346.37 314.81C346.568 314.917 346.772 315.014 346.98 315.1C347.35 315.28 347.71 315.44 348.05 315.59C348.59 315.83 349.09 316.03 349.55 316.19L350.15 316.4C351.583 316.877 352.933 317.575 354.15 318.47C354.51 318.73 354.87 319 355.22 319.29C356.582 320.423 357.834 321.682 358.96 323.05C359.13 323.25 359.29 323.46 359.45 323.66C360.21 324.61 360.89 325.55 361.45 326.42C362.369 327.762 363.207 329.158 363.96 330.6C363.96 330.6 378.88 356.09 383.62 358.99C388.36 361.89 391.27 391.4 391.27 391.4L375.27 450.71C375.27 450.71 374.52 465.71 373.12 481.01C372.34 489.59 371.35 498.32 370.17 504.6Z" fill="#CED7E7"/>
<path d="M249.66 290.51C249.66 290.51 238.93 296.33 230.55 296.88C229.453 296.931 228.354 296.868 227.27 296.69C218.49 295.36 205.61 288.14 205.61 288.14L220.72 271.57L239.1 280.68L245.86 286.97L249.66 290.51Z" fill="#63667E"/>
<path opacity="0.1" d="M335.6 142.2C335.22 142.738 334.788 143.237 334.31 143.69C329.05 148.69 319.71 146.62 312.54 145.46C306.31 144.441 300.223 142.682 294.41 140.22C289.35 138.06 283.28 135.42 278.73 138.52C276.98 139.7 275.78 141.59 273.96 142.63C272.14 143.67 269.82 143.74 267.67 143.77C260.67 143.77 253.67 143.85 246.84 142.27C236.65 139.89 226.11 133.9 216.42 137.85C208.84 140.93 204.73 149.18 202.68 157.11C201.68 161 200.94 165.11 198.68 168.41C196.42 171.71 192.05 174.05 188.33 172.5C182.84 170.21 182.03 160.89 175.41 160.42C168.14 159.91 168.23 167.42 170.35 172.85C173.49 180.85 177.6 188.85 177.78 197.19C169.967 183.196 166.275 167.275 167.131 151.271C167.988 135.266 173.358 119.831 182.62 106.75C184.232 105.752 185.494 104.277 186.23 102.53C186.304 102.294 186.364 102.053 186.41 101.81C186.96 99.0201 185.41 96.0901 185.32 93.1701C184.97 86.0401 192.69 81.0701 199.77 80.1701C204.48 79.5701 209.3 80.0301 214.02 79.8801C216.398 79.8277 218.762 79.5124 221.07 78.9401C225.052 77.7469 228.781 75.8317 232.07 73.2901C243.418 70.6018 255.197 70.2772 266.675 72.3366C278.153 74.396 289.085 78.7952 298.79 85.2607C308.496 91.7261 316.767 100.119 323.089 109.919C329.411 119.718 333.649 130.713 335.54 142.22L335.6 142.2Z" fill="black"/>
<path d="M337.31 136.31C336.811 138.288 335.773 140.088 334.31 141.51C329.05 146.51 319.71 144.43 312.54 143.27C306.309 142.274 300.222 140.528 294.41 138.07C289.35 135.92 283.28 133.28 278.73 136.38C276.98 137.56 275.78 139.45 273.96 140.49C272.14 141.53 269.82 141.6 267.67 141.62C260.67 141.67 253.67 141.71 246.84 140.13C236.65 137.74 226.11 131.76 216.42 135.7C208.84 138.78 204.73 147.04 202.68 154.97C201.68 158.86 200.94 162.97 198.68 166.26C196.42 169.55 192.05 171.91 188.33 170.36C182.84 168.07 182.03 158.75 175.41 158.28C168.14 157.77 168.23 165.28 170.35 170.71C174.07 180.18 179.13 189.6 177.47 199.64C175.82 199.64 173.09 199.58 171.47 199.54C172.73 197.39 170.33 194.83 167.94 194.1C165.55 193.37 162.76 193.38 160.94 191.64C159.12 189.9 159.11 187.21 159.3 184.8C159.715 179.649 160.975 174.602 163.03 169.86C164.34 166.86 166.03 163.61 165.03 160.47C164.43 159.047 163.707 157.678 162.87 156.38C160.79 152.38 161.28 147.38 163.06 143.25C163.82 141.49 164.37 139.83 165 138.25C165.796 136.004 166.947 133.901 168.41 132.02C170.7 129.17 172.94 124.88 170.41 122.23C169.77 121.56 171.05 121.1 170.64 120.23C170.567 120.082 170.517 119.923 170.49 119.76C170.372 118.707 170.627 117.645 171.21 116.76C171.328 116.53 171.458 116.306 171.6 116.09C171.715 115.862 171.845 115.641 171.99 115.43C174.204 111.733 177.147 108.525 180.64 106C182.81 104.43 185.35 102.92 186.21 100.38C187.21 97.3801 185.45 94.1901 185.3 91.0201C184.95 83.8901 192.67 78.9201 199.75 78.0201C206.83 77.1201 214.17 78.6101 221.07 76.7801C230.86 74.2001 237.74 65.5601 246.63 60.7101C251.493 58.1097 256.887 56.6551 262.398 56.4576C267.909 56.26 273.393 57.3246 278.43 59.5701C288.81 64.3101 296.64 73.8901 307.48 77.4901C311.32 78.7701 315.48 79.2801 318.94 81.4001C322.94 83.8601 325.37 88.1601 327.45 92.4001C330.62 98.8301 331.26 105.29 333.45 112.1C335.19 117.5 337.6 124.56 337.8 130.78C337.912 132.638 337.747 134.501 337.31 136.31V136.31Z" fill="#896363"/>
<g opacity="0.1">
<path d="M171.71 123.78C171.87 123.14 171.886 122.472 171.756 121.826C171.626 121.179 171.354 120.569 170.96 120.04C171.22 120.82 170.09 121.27 170.71 121.92C171.204 122.439 171.549 123.082 171.71 123.78Z" fill="black"/>
<path d="M170.93 117.75C170.812 118.099 170.741 118.462 170.72 118.83C170.91 118.51 171.17 118.18 170.93 117.75Z" fill="black"/>
<path d="M334.59 139.07C329.32 144.07 319.99 142 312.8 140.83C306.574 139.828 300.492 138.071 294.69 135.6C289.62 133.44 283.56 130.8 279 133.9C277.26 135.08 276.06 136.97 274.23 138.01C272.4 139.05 270.09 139.12 267.94 139.14C260.94 139.14 253.94 139.23 247.1 137.64C236.92 135.26 226.38 129.29 216.69 133.22C209.11 136.31 205 144.56 202.95 152.49C201.95 156.38 201.22 160.49 198.95 163.79C196.68 167.09 192.31 169.43 188.6 167.89C183.11 165.59 182.3 156.28 175.68 155.81C170.51 155.44 169.07 159.14 169.42 163.25C169.72 160.11 171.42 157.69 175.68 157.99C182.3 158.46 183.11 167.78 188.6 170.07C192.31 171.62 196.69 169.29 198.95 165.97C201.21 162.65 201.95 158.56 202.95 154.68C205 146.75 209.11 138.49 216.69 135.41C226.38 131.47 236.92 137.41 247.1 139.83C253.9 141.42 260.96 141.37 267.94 141.32C270.09 141.32 272.36 141.26 274.23 140.2C276.1 139.14 277.23 137.27 279 136.08C283.56 132.99 289.62 135.63 294.69 137.78C300.493 140.25 306.574 142.009 312.8 143.02C319.99 144.18 329.32 146.27 334.59 141.25C337.45 138.52 338.31 134.57 338.12 130.25C337.96 133.68 336.96 136.79 334.59 139.07Z" fill="black"/>
<path d="M185.65 89.21C185.595 89.7079 185.575 90.2092 185.59 90.71C185.69 92.79 186.48 94.87 186.73 96.9C187.1 94.41 185.95 91.81 185.65 89.21Z" fill="black"/>
<path d="M165.33 160.16C165.412 160.459 165.476 160.763 165.52 161.07C165.682 160.038 165.617 158.984 165.33 157.98C164.734 156.551 164.011 155.179 163.17 153.88C162.419 152.401 161.973 150.785 161.86 149.13C161.657 151.519 162.11 153.919 163.17 156.07C164.013 157.365 164.736 158.734 165.33 160.16Z" fill="black"/>
<path d="M177.74 197.14L171.89 197.05C172.026 197.403 172.081 197.783 172.05 198.161C172.019 198.538 171.903 198.904 171.71 199.23C173.36 199.23 176.1 199.29 177.71 199.33C177.99 197.618 178.087 195.882 178 194.15C177.977 195.151 177.89 196.15 177.74 197.14Z" fill="black"/>
<path d="M168.17 191.61C165.78 190.89 163 190.88 161.22 189.13C160.172 187.984 159.581 186.493 159.56 184.94C159.41 187.24 159.56 189.72 161.22 191.32C163 193.07 165.78 193.08 168.17 193.8C168.948 194.026 169.671 194.409 170.295 194.925C170.919 195.441 171.431 196.079 171.8 196.8C172.81 194.73 170.49 192.3 168.17 191.61Z" fill="black"/>
</g>
<path opacity="0.1" d="M350.1 641.19C348.98 640.54 347.84 639.93 346.68 639.35C344.29 638.145 341.84 637.064 339.34 636.11C327.79 631.71 315.42 630.11 302.88 630.38C297.88 632.29 294.63 633.66 294.63 633.66L288.27 635.58L287.21 635.9C287.14 635.2 287.06 634.5 286.99 633.79C286.92 633.08 286.84 632.4 286.76 631.7C284.52 610.49 282.76 588.7 282.76 588.7V569.88V567.69L282.64 512.24L281.64 493.96L281.17 485.87L281.08 484.33L280.9 481.17L280.8 479.29C280.579 478.694 280.392 478.087 280.24 477.47C280.17 477.22 280.1 476.94 280.04 476.65C279.79 475.65 279.52 474.36 279.24 472.96C277.41 463.76 275.12 448.25 274.98 445.1C274.8 440.9 271.16 415.78 271.16 415.78C270.79 401.95 259.16 375.91 256.23 371C253.3 366.09 250.03 336.59 251.13 335C251.7 334.15 252.07 329.12 252.3 324.48C252.3 323.95 252.35 323.43 252.37 322.92C252.52 319.29 252.59 316.26 252.59 316.26L264.03 314L267.1 313.4L267.34 313.35L267.44 313.55C267.77 314.16 268.8 316.11 270.01 318.67C270.15 318.94 270.28 319.23 270.42 319.52C270.48 319.66 270.55 319.8 270.62 319.94C272.86 324.84 275.45 331.29 275.34 335C275.16 341.56 282.63 357.4 282.63 357.4C283.35 361.04 299.19 397.26 299.19 397.26C299.19 397.26 312.12 432.76 311.39 438.59C310.66 444.42 317.58 483.01 317.58 483.01L324.68 522.7C328.13 530.52 332.68 548.54 332.68 548.54L334.41 558.76L334.74 560.71L339.35 587.98L341.61 601.34C341.61 601.34 342.56 608.44 344 616.34C344.12 617.05 344.26 617.77 344.4 618.49C345.287 623.69 346.547 628.82 348.17 633.84C348.975 636.245 349.62 638.7 350.1 641.19V641.19Z" fill="black"/>
<path d="M351.34 641.9C350.93 641.66 350.52 641.42 350.1 641.19C348.98 640.54 347.84 639.93 346.68 639.35C344.29 638.145 341.84 637.064 339.34 636.11C327.79 631.71 315.42 630.11 302.88 630.38C297.88 632.29 294.63 633.66 294.63 633.66L288.27 635.58C288.19 634.88 288.12 634.18 288.04 633.47C287.96 632.76 287.9 632.19 287.84 631.55C285.6 610.39 283.84 588.7 283.84 588.7V569.7V567.51L283.72 512.2L282.72 494.74L282.52 491.12L282.38 488.67L282.2 485.43L282.02 482.14L281.89 479.77V479.25C281.89 479.2 281.89 479.14 281.82 479.08C281.63 478.54 281.4 477.72 281.15 476.68L281.03 476.18C280.98 475.95 280.92 475.7 280.87 475.45C278.99 466.92 276.23 448.53 276.08 445.08C275.9 440.88 272.26 415.76 272.26 415.76C271.89 401.93 260.26 375.89 257.33 370.98C254.4 366.07 251.14 336.57 252.23 334.98C252.86 333.98 253.23 327.91 253.47 322.9C253.47 322.5 253.47 322.11 253.47 321.74C253.6 318.65 253.65 316.24 253.65 316.24L264.29 314.14L266.99 313.61L267.41 313.53L268.41 313.33C268.41 313.33 269.72 315.75 271.29 319.08L271.49 319.5C273.78 324.44 276.49 331.16 276.41 334.98C276.23 341.54 283.7 357.38 283.7 357.38C284.42 361.02 300.26 397.24 300.26 397.24C300.26 397.24 313.19 432.74 312.46 438.57C311.73 444.4 318.65 482.99 318.65 482.99L325.75 522.68C329.2 530.5 333.75 548.52 333.75 548.52L335.36 558.04L335.69 559.97L339.32 581.49L342.67 601.32C342.67 601.32 343.67 608.39 345.05 616.32C345.18 617.04 345.31 617.76 345.45 618.49C346.336 623.714 347.596 628.867 349.22 633.91C350.107 636.522 350.815 639.192 351.34 641.9V641.9Z" fill="#63667E"/>
<path d="M342.32 128.31C342.32 128.31 338.5 133.23 335.05 133.23C331.6 133.23 318.17 132.68 311.17 130.5C304.17 128.32 269.85 126.67 269.85 126.67C269.85 126.67 221.25 126.85 219.61 125.21C217.97 123.57 189.39 114.83 186.48 115.38C185.87 115.5 184.38 115.76 182.39 116.09L180.11 116.46C176.66 117.01 172.35 117.65 168.41 118.12C163.54 118.69 159.26 118.98 157.9 118.48V114.29C157.9 114.29 163.54 106.09 163.9 103.74C164.26 101.39 169 67.32 181.38 55.13C186.494 45.3531 194.771 37.598 204.86 33.13C221.61 25.84 238.36 19.66 238.36 19.66L241.29 19.24L250.74 17.84C251.027 17.554 251.338 17.2931 251.67 17.06C254.29 15.06 262.23 10.71 272.58 20.06L274.41 22.98C274.41 22.98 306.26 30.44 321 56.47C335.74 82.5 336.48 107.99 337.57 119.64C337.57 119.64 336.84 122.92 338.3 124.19C338.828 124.657 339.332 125.151 339.81 125.67C339.94 125.8 340.07 125.93 340.19 126.07C340.61 126.49 341 126.93 341.32 127.29C341.358 127.318 341.392 127.352 341.42 127.39C341.498 127.485 341.581 127.575 341.67 127.66L342.32 128.31Z" fill="#FED253"/>
<path opacity="0.05" d="M342.32 128.31C342.32 128.31 338.5 133.23 335.05 133.23C331.6 133.23 318.17 132.68 311.17 130.5C304.17 128.32 269.85 126.67 269.85 126.67C269.85 126.67 221.25 126.85 219.61 125.21C217.97 123.57 189.39 114.83 186.48 115.38C185.87 115.5 184.38 115.76 182.39 116.09L181.87 112.89L181.74 112.1C181.74 112.1 236.9 100.27 273.67 106.47C310.44 112.67 337.57 119.57 337.57 119.57C337.57 119.57 336.84 122.85 338.3 124.12C338.829 124.587 339.333 125.081 339.81 125.6C339.94 125.73 340.07 125.86 340.19 126C340.61 126.42 341 126.86 341.32 127.22C341.358 127.248 341.392 127.282 341.42 127.32C341.498 127.415 341.582 127.505 341.67 127.59L342.32 128.31Z" fill="black"/>
<path opacity="0.1" d="M337.31 136.31C330.5 136.84 317.95 135.18 312.46 134.37C310.9 134.14 309.37 133.86 307.83 133.52C301.94 132.24 283.83 128.65 272.83 130.31C259.54 132.31 222.04 128.67 222.04 128.67C222.04 128.67 198.92 123.94 189.63 120.12C186.22 118.71 180.52 118.27 174.85 118.97C173.404 119.15 171.969 119.407 170.55 119.74C162.81 121.57 156.28 125.74 157.41 132.85C156.977 132.331 156.577 131.787 156.21 131.22C155.72 124.72 157.74 120.85 160.54 118.57L161.2 118.3C164.62 117.328 168.101 116.583 171.62 116.07C172.17 115.98 172.74 115.9 173.32 115.83C183.27 114.49 197.66 114.19 209.8 120.3C209.8 120.3 221.08 125.59 228.73 125.59C236.38 125.59 298.63 126.14 313.2 130.32C316.1 131.158 319.058 131.783 322.05 132.19C327.362 132.875 332.76 132.366 337.85 130.7C337.954 132.587 337.772 134.478 337.31 136.31V136.31Z" fill="black"/>
<path opacity="0.1" d="M342.32 128.31C342.32 128.31 338.5 133.23 335.05 133.23C331.6 133.23 318.17 132.68 311.17 130.5C304.17 128.32 269.85 126.67 269.85 126.67C269.85 126.67 221.25 126.85 219.61 125.21C217.97 123.57 189.39 114.83 186.48 115.38C185.87 115.5 184.38 115.76 182.39 116.09L180.11 116.46C176.15 116.44 172.208 116.999 168.41 118.12C163.54 118.69 159.26 118.98 157.9 118.48V117.65C158.948 117.041 160.042 116.513 161.17 116.07C167.918 114.18 174.867 113.099 181.87 112.85C190.6 112.53 200.81 113.55 209.78 118.07C209.78 118.07 221.06 123.36 228.71 123.36C236.36 123.36 298.61 123.9 313.18 128.09C316.082 128.92 319.039 129.542 322.03 129.95C328.592 130.777 335.256 129.82 341.32 127.18C341.358 127.208 341.392 127.242 341.42 127.28C341.498 127.375 341.582 127.465 341.67 127.55L342.32 128.31Z" fill="black"/>
<path d="M157.55 132.68C157.55 132.68 145.35 123.39 161.19 117.2C161.19 117.2 188.86 108.65 209.8 119.2C209.8 119.2 221.08 124.47 228.73 124.47C236.38 124.47 298.63 125.02 313.2 129.21C316.102 130.041 319.059 130.663 322.05 131.07C329.802 132.01 337.654 130.518 344.52 126.8C345.52 126.25 346.42 125.97 346.69 126.29C347.6 127.39 346.88 133.76 338.87 135.03C332.62 136.03 318.42 134.14 312.45 133.27C310.9 133.04 309.36 132.75 307.83 132.42C301.94 131.14 283.83 127.55 272.78 129.21C259.5 131.21 221.99 127.57 221.99 127.57C221.99 127.57 198.88 122.84 189.59 119.01C180.3 115.18 154.09 118.48 157.55 132.68Z" fill="#FED253"/>
<path opacity="0.1" d="M260.4 35.07C259.4 33.63 246.55 23.34 241.31 19.18L250.76 17.78C251.047 17.494 251.358 17.2331 251.69 17C258.56 24.21 260.4 35.07 260.4 35.07Z" fill="black"/>
<path opacity="0.1" d="M218.72 90.26L214.53 96.45L230.55 95.91L230.91 88.99L218.72 90.26Z" fill="black"/>
<path opacity="0.1" d="M316.47 97.73L318.29 103.37L328.49 105.01L324.12 98.27L316.47 97.73Z" fill="black"/>
<path opacity="0.1" d="M141.35 287.07C142.44 288.89 178.3 336.07 187.77 334.76C197.24 333.45 141.35 287.07 141.35 287.07Z" fill="black"/>
<path opacity="0.1" d="M261.5 330.19C261.5 330.19 270.24 338.57 268.96 341.84C267.68 345.11 261.5 330.19 261.5 330.19Z" fill="black"/>
<path opacity="0.1" d="M166.11 387.72C166.11 387.72 158.46 423.58 162.47 424.72C166.48 425.86 166.11 387.72 166.11 387.72Z" fill="black"/>
<path opacity="0.1" d="M264.41 526.98C265.68 530.62 276.24 554.29 278.61 555.56C280.98 556.83 264.41 526.98 264.41 526.98Z" fill="black"/>
<path opacity="0.1" d="M387.11 429.77C386.74 431.04 377.64 438.51 379.64 441.24C381.64 443.97 387.11 429.77 387.11 429.77Z" fill="black"/>
<path opacity="0.1" d="M316.47 496.21C316.29 497.13 314.47 516.21 317.93 519.88C321.39 523.55 316.47 496.21 316.47 496.21Z" fill="black"/>
<path opacity="0.1" d="M409.75 595.33C407.11 596.8 404.38 598.22 401.6 599.58C398.6 601.04 395.6 602.43 392.54 603.74C391.32 604.27 390.1 604.79 388.89 605.29C387.05 606.05 385.23 606.78 383.43 607.48C377.96 609.62 372.69 611.48 368 613.05C366.18 613.66 364.44 614.22 362.82 614.74C354.66 617.33 349.24 618.74 349.24 618.74C348.002 618.475 346.735 618.371 345.47 618.43C345.12 618.43 344.76 618.43 344.39 618.43C342.697 618.553 341.011 618.766 339.34 619.07C328.17 621.07 312.39 626.68 302.88 630.35C297.88 632.26 294.63 633.63 294.63 633.63L288.27 635.55L287.21 635.87C280.32 637.97 270.63 640.95 267.14 642.19C261.5 644.19 212.53 654.38 212.53 654.38C208.056 655.601 203.486 656.438 198.87 656.88C187.495 657.924 176.061 658.184 164.65 657.66C153.19 658.4 134.65 655.88 123.86 654.18L122.14 653.91C117.97 653.23 115.32 652.74 115.32 652.74L116.72 650.81L145.43 611.2L145.6 610.96L172.35 574.07L173.35 572.73L175.78 569.38C175.78 569.38 177.24 567.38 182.86 567.25C183.52 567.25 184.24 567.25 185.03 567.25C189.751 567.63 194.408 568.58 198.9 570.08L200.2 570.47C219.57 576.02 249.51 574.63 249.51 574.63C249.51 574.63 268.14 571.63 282.78 569.83L283.87 569.69C288.654 569.014 293.471 568.597 298.3 568.44C307.22 568.62 326.52 563.89 326.52 563.89C330.67 563 332.42 562.25 334.76 560.58C335.07 560.36 335.4 560.12 335.76 559.86C336.76 559.11 337.91 558.19 339.39 557.05C342.09 554.98 345.88 552.17 351.84 548.23C352.36 547.89 352.91 547.55 353.5 547.23C354.09 546.91 354.84 546.48 355.56 546.12C361.332 543.387 367.417 541.372 373.68 540.12C378.875 539.003 384.147 538.278 389.45 537.95H390.24C405.24 537.15 420.56 539.72 429.52 548.15C431.087 549.632 432.452 551.313 433.58 553.15C434.128 554.023 434.615 554.931 435.04 555.87C435.857 557.661 436.465 559.54 436.85 561.47C436.923 561.83 436.983 562.19 437.03 562.55C437.03 562.66 437.03 562.76 437.03 562.87C437.03 563.16 437.09 563.45 437.11 563.74C437.91 575.71 425.49 586.53 409.75 595.33Z" fill="black"/>
<path d="M115.32 650.59C115.32 650.59 147.72 656.59 164.65 655.5C164.65 655.5 195.78 657.14 212.53 652.23C212.53 652.23 261.53 642.03 267.14 640.03C272.75 638.03 294.63 631.47 294.63 631.47C294.63 631.47 337.23 613.63 349.24 616.54C349.24 616.54 443.54 592.15 436.8 559.2C430.06 526.25 370.54 533.72 351.8 546.09C333.06 558.46 335.8 559.75 326.5 561.75C326.5 561.75 307.2 566.48 298.28 566.3C289.36 566.12 249.49 572.49 249.49 572.49C249.49 572.49 218.18 573.95 198.89 567.94C179.6 561.93 175.77 567.21 175.77 567.21L115.32 650.59Z" fill="#FFA2A2"/>
<path opacity="0.1" d="M185.58 565.07C185.585 565.11 185.585 565.15 185.58 565.19C185.51 565.933 185.317 566.66 185.01 567.34C181.17 576.76 159.37 602.17 159.37 602.17C158.376 605.188 157.177 608.135 155.78 610.99C152.776 617.092 149.316 622.958 145.43 628.54C139.669 636.89 133.38 644.863 126.6 652.41H126.55C125.687 653.05 124.789 653.641 123.86 654.18C121.51 655.58 117.98 657.31 114.65 657.52C114.083 657.554 113.514 657.537 112.95 657.47C113.3 657.47 113.64 657.39 113.95 657.33L112.73 656.97L111.06 656.45C108.26 655.57 105.483 654.607 102.73 653.56L101.06 652.92C98.3932 651.893 95.7832 650.79 93.2299 649.61L91.5599 648.85C88.8932 647.61 86.2832 646.3 83.7299 644.92C82.8099 644.44 81.8999 643.92 80.9999 643.43C78.2799 641.91 75.6132 640.317 72.9999 638.65C70.2266 636.883 67.5132 635.04 64.8599 633.12C62.8599 629.41 61.2099 626.12 60.3099 624.35C58.6699 621.06 58.5299 616.35 58.7299 612.94C58.7299 612.59 58.7299 612.26 58.7899 611.94C58.9599 609.8 59.2199 608.33 59.2199 608.33C57.7381 606.349 56.4013 604.264 55.2199 602.09C54.5411 601.011 54.1551 599.774 54.0999 598.5C54.1451 597.989 54.0977 597.474 53.9599 596.98C53.1899 593.82 49.8799 588.39 46.8199 584.98C44.5399 582.47 44.3999 573.09 44.6199 566.44C44.7499 562.44 44.9999 559.5 44.9999 559.5C44.5518 559.211 44.2164 558.777 44.0499 558.27C43.2458 556.081 42.7021 553.806 42.4299 551.49C42.4299 551.16 42.3399 550.83 42.2899 550.49C41.6499 545.9 41.3599 541.29 41.3599 541.29C33.9599 535.9 30.4399 527.49 28.7999 519.99L28.5899 518.99C27.6892 514.38 27.3068 509.685 27.4499 504.99C27.4499 504.54 27.4499 504.2 27.4499 503.99C27.4499 503.78 27.4499 503.74 27.4499 503.74C27.4499 503.74 28.4299 482.07 31.1699 473.61C31.2799 473.25 31.3999 472.92 31.5199 472.61C31.7217 472.079 31.9834 471.572 32.2999 471.1C33.2999 469.77 34.0099 467.26 34.5999 464.29C35.0099 462.23 35.3499 459.94 35.5999 457.66C35.8299 455.76 36.0099 453.87 36.1499 452.12C36.5399 447.44 36.6599 443.79 36.6599 443.79L34.8099 434.67C34.2999 432.18 33.9099 429.67 33.6399 427.16C33.6399 426.83 33.5599 426.5 33.5199 426.16C33.0522 421.525 32.9686 416.859 33.2699 412.21C33.2699 411.87 33.2699 411.54 33.3299 411.21C34.1107 400.621 36.879 390.274 41.4899 380.71L41.9899 379.71C42.6565 378.377 43.3565 377.067 44.0899 375.78C44.6199 374.83 45.1799 373.89 45.7599 372.96C47.2974 370.47 48.9665 368.063 50.7599 365.75C51.0199 365.41 51.2899 365.08 51.5599 364.75C54.6803 360.881 58.148 357.307 61.9199 354.07C72.0199 345.39 81.2899 341.62 89.7099 341.33C126.53 340.03 147.18 405.15 150.52 416.56C150.84 417.66 151 418.26 151 418.26C151 418.26 165.92 433.19 161.55 439.74C160.703 441.182 160.187 442.794 160.04 444.46C158.84 453.27 162.28 467.78 162.28 467.78C162.28 467.78 163.5 471.78 167.06 481.36L168.11 484.16C170.34 490.16 170.86 500.23 169.58 509.25C168.35 517.89 165.46 525.53 160.83 527.49C151.36 531.49 153.91 535.49 156.09 538.78C157.385 541.138 158.466 543.608 159.32 546.16C160.69 549.85 161.96 553.73 162.44 555.24C162.58 555.66 162.65 555.89 162.65 555.89C163.976 555.377 165.354 555.008 166.76 554.79C168.55 554.54 170.32 554.72 170.66 556.25C170.84 557.07 171.87 558.04 173.32 559.01C177.62 561.97 185.58 565.07 185.58 565.07Z" fill="black"/>
<path d="M183.4 565.07C183.339 565.831 183.146 566.575 182.83 567.27C179.01 576.7 157.19 602.17 157.19 602.17C156.192 605.187 154.993 608.134 153.6 610.99C151.187 615.918 148.458 620.684 145.43 625.26C139.161 634.716 132.217 643.706 124.65 652.16L124.42 652.41C124.42 652.41 123.54 653.08 122.14 653.94C119.639 655.537 116.882 656.693 113.99 657.36L112.77 657L111.1 656.48C108.3 655.6 105.523 654.637 102.77 653.59L101.1 652.95C98.4334 651.923 95.8234 650.82 93.2701 649.64L91.6001 648.88C88.9334 647.64 86.3234 646.33 83.7701 644.95C82.8501 644.47 81.9401 643.95 81.0401 643.46C78.3201 641.94 75.6534 640.347 73.0401 638.68C70.2668 636.913 67.5534 635.07 64.9001 633.15C63.6734 632.27 62.4601 631.367 61.2601 630.44C59.9101 627.88 58.8301 625.72 58.1601 624.38C56.5201 621.09 56.3801 616.38 56.5801 612.97C56.5801 612.62 56.5801 612.29 56.6401 611.97C56.8101 609.83 57.0701 608.36 57.0701 608.36C57.0701 608.36 56.2601 607.27 55.2801 605.79C54.7301 604.97 54.1401 604.02 53.6101 603.08C52.6101 601.32 51.8301 599.54 51.9801 598.53C52.0004 598.357 52.0004 598.183 51.9801 598.01C51.9651 597.672 51.9148 597.337 51.8301 597.01C51.0601 593.85 47.7401 588.42 44.6801 585.01C42.4001 582.5 42.2601 573.12 42.4701 566.47C42.4701 566.13 42.4701 565.8 42.4701 565.47C42.6101 562.02 42.8201 559.53 42.8201 559.53C41.6901 559.04 40.8201 555.41 40.2601 551.53L40.1101 550.53C39.4701 545.94 39.1801 541.33 39.1801 541.33C31.7801 535.94 28.2601 527.53 26.6301 520.03C25.4945 514.777 25.0574 509.397 25.3301 504.03C25.3301 503.87 25.3301 503.78 25.3301 503.78C25.3301 503.78 26.1901 482 28.9301 473.53C29.0401 473.17 29.1601 472.84 29.2801 472.53C29.5201 472.011 29.8187 471.521 30.1701 471.07C31.6901 468.95 32.7001 463.85 33.3601 458.63L33.4801 457.63C34.3101 450.63 34.5401 443.76 34.5401 443.76L32.6801 434.64C32.1734 432.14 31.7834 429.637 31.5101 427.13C31.4601 426.8 31.4301 426.46 31.3901 426.13C30.9225 421.495 30.8389 416.829 31.1401 412.18C31.1401 411.84 31.1401 411.51 31.2101 411.18C31.9862 400.59 34.7547 390.242 39.3701 380.68C39.5301 380.34 39.6901 380.01 39.8701 379.68C41.1559 377.083 42.5847 374.559 44.1501 372.12C44.6901 371.27 45.2401 370.43 45.8201 369.6C46.7301 368.28 47.6801 366.98 48.6701 365.72L49.4701 364.72C52.5638 360.866 56.0013 357.302 59.7401 354.07C70.7401 344.64 80.7401 341 89.7401 341.33C125.19 342.6 145.09 405.38 148.36 416.56C148.68 417.66 148.84 418.26 148.84 418.26C148.84 418.26 163.77 433.19 159.4 439.74C158.553 441.182 158.037 442.794 157.89 444.46C156.68 453.27 160.13 467.78 160.13 467.78C160.13 467.78 161.35 471.78 164.91 481.36C165.23 482.25 165.58 483.18 165.91 484.16C168.14 490.16 168.66 500.23 167.38 509.25C166.15 517.9 163.27 525.53 158.63 527.49C149.17 531.49 151.71 535.49 153.9 538.78C155.196 541.138 156.277 543.608 157.13 546.16C158.86 550.87 160.45 555.89 160.45 555.89C161.105 555.637 161.772 555.42 162.45 555.24C163.841 554.783 165.315 554.629 166.77 554.79C167.173 554.821 167.555 554.979 167.863 555.242C168.17 555.504 168.386 555.857 168.48 556.25C168.75 557.45 170.82 558.94 173.33 560.35C176.589 562.124 179.952 563.7 183.4 565.07V565.07Z" fill="#CED7E7"/>
<path opacity="0.1" d="M51.78 468.91C55.24 468.73 92.38 454.35 100.03 459.26C107.68 464.17 155.03 496.03 155.03 496.03C155.03 496.03 125.36 457.26 99.51 448.16C73.66 439.06 51.78 468.91 51.78 468.91Z" fill="black"/>
<path opacity="0.1" d="M105.17 527.53C105.17 527.53 142.31 534.99 147.95 540.09L105.17 527.53Z" fill="black"/>
<path opacity="0.1" d="M98.02 583.07C97.48 583.62 84.02 613.83 85.1 613.83C86.18 613.83 97.66 595.83 97.66 595.83L98.02 583.07Z" fill="black"/>
<path opacity="0.1" d="M123.33 546.82C123.33 546.82 112.41 550.65 113.68 551.01C114.95 551.37 122.96 548.46 123.33 546.82Z" fill="black"/>
<path opacity="0.1" d="M112.41 592.52C114.23 596.34 120.05 607.81 121.33 605.99C122.61 604.17 112.41 592.52 112.41 592.52Z" fill="black"/>
<path opacity="0.1" d="M248.73 289.74L247.17 291.96C247.17 291.96 234.78 283.23 229.69 278.86C224.6 274.49 212.58 294.51 203.11 299.97C193.64 305.43 177.63 306.89 177.63 306.89C177.63 306.89 165.25 294.51 165.63 290.89C166.01 287.27 159.81 286.16 159.44 283.61C159.07 281.06 156.89 273.78 153.98 270.14C152.44 268.22 152.22 262.21 152.36 256.98C153.36 256.78 153.98 256.67 153.98 256.67C155.534 253.846 157.499 251.268 159.81 249.02C163.09 246.11 168.18 228.27 168.18 228.27C171.09 218.44 176.91 221.35 176.91 221.35C176.91 236.28 192.21 241.74 199.85 247.93C207.49 254.12 219.51 270.14 228.98 273.42C236.75 276.07 245.84 286.32 248.73 289.74Z" fill="black"/>
<path d="M248.73 287.55L247.17 289.78C247.17 289.78 234.73 281.07 229.64 276.67C224.55 272.27 212.53 292.32 203.06 297.78C193.59 303.24 177.58 304.71 177.58 304.71C177.58 304.71 165.2 292.32 165.58 288.71C165.96 285.1 159.76 283.98 159.39 281.42C159.02 278.86 156.84 271.59 153.93 267.95C152.39 266.03 152.17 260.02 152.31 254.79L153.93 254.49C155.484 251.666 157.449 249.088 159.76 246.84C163.04 243.92 168.13 226.09 168.13 226.09C171.04 216.26 176.86 219.16 176.86 219.16C176.86 234.09 192.16 239.56 199.8 245.75C207.44 251.94 219.46 267.95 228.93 271.23C236.75 273.92 245.84 284.13 248.73 287.55Z" fill="#CED7E7"/>
<path opacity="0.1" d="M249.66 290.51C249.66 290.51 238.93 296.33 230.55 296.88C229.453 296.931 228.354 296.868 227.27 296.69C227.27 296.69 236.52 289.78 245.11 288.37L249.66 290.51Z" fill="black"/>
<path opacity="0.1" d="M271.51 320.18C271.51 320.18 257.98 314.91 253.51 322.84C253.66 319.2 253.72 316.18 253.72 316.18L268.47 313.26C268.47 313.26 269.89 315.89 271.55 319.43C271.51 319.9 271.51 320.18 271.51 320.18Z" fill="black"/>
<path d="M227.27 296.69C227.27 296.69 243.48 286.96 251.27 287.78C259.44 288.63 275.27 289.23 275.27 289.23C275.27 289.23 269.81 301.61 270.54 304.16C271.27 306.71 271.45 319.09 271.45 319.09C271.45 319.09 255.07 312.72 252.34 324.55C252.34 324.55 243.42 311.26 237.41 307.25C233.422 304.369 229.987 300.792 227.27 296.69Z" fill="#63667E"/>
<path opacity="0.1" d="M318.84 307.99C314.11 307.99 297.36 297.42 293.72 290.51C290.08 283.6 284.98 291.23 280.25 293.79C277.25 295.43 265.36 292 258.95 289.51C262.2 287.3 269.4 281.08 271.51 279.59C274.05 277.76 276.61 248.27 276.61 248.27C285.71 243.54 295.54 286.5 295.54 286.5C295.54 286.5 312.66 291.6 314.11 295.24C314.39 295.96 315.68 297.24 317.62 298.79C319.62 303.83 320.72 307.99 318.84 307.99Z" fill="black"/>
<path d="M318.84 305.8C314.11 305.8 297.36 295.24 293.72 288.33C290.08 281.42 284.98 289.05 280.25 291.6C277.25 293.24 267.72 290.07 261.31 287.6C264.56 285.4 269.4 278.92 271.51 277.42C274.05 275.6 276.61 246.11 276.61 246.11C285.71 241.38 295.54 284.34 295.54 284.34C295.54 284.34 312.66 289.44 314.11 293.08C314.39 293.8 315.68 295.08 317.62 296.63C319.62 301.64 320.72 305.8 318.84 305.8Z" fill="#CED7E7"/>
<path d="M383.53 624.77L541.84 492.77C543.42 491.436 545.433 490.724 547.5 490.77L606.56 492.32C606.56 492.32 610.65 495.32 604.65 501.88L455.31 624.43C453.696 625.749 451.693 626.501 449.61 626.57L385.03 628.71C384.566 628.725 384.109 628.594 383.723 628.337C383.337 628.08 383.041 627.708 382.876 627.275C382.711 626.841 382.685 626.367 382.802 625.918C382.92 625.469 383.174 625.068 383.53 624.77Z" fill="#FF9B05"/>
<path d="M460.11 608.53C460.11 608.53 494.69 658.05 533.11 611.99C571.53 565.93 560.42 541.73 548.77 540.45C537.12 539.17 471.57 589.6 460.11 608.53Z" fill="#FFA2A2"/>
<path opacity="0.1" d="M693.34 54.6699C693.34 54.6699 737.91 -31.8301 790.59 12.78C790.59 12.78 802.09 16.9699 801.22 29.1299C801.22 29.1299 796.79 26.6999 793.27 35.9899C791.977 39.2863 790.299 42.4181 788.27 45.32C785.573 49.2401 781.679 52.1804 777.17 53.6999V53.6999C777.17 53.6999 753.53 71.41 709.74 57.75C709.74 57.75 697.36 59.5299 695.36 57.9899L709.75 47.47C709.75 47.47 717.06 58.3199 727.75 59.5599C727.75 59.5599 709.75 48.2599 711.81 45.8099C712.23 45.3099 719.69 40.58 719.69 40.58C719.69 40.58 732.48 59.3899 749.06 60.7799C749.06 60.7799 725.83 50.1899 722.5 38.7799L734.17 32.2699C734.17 32.2699 746.71 52.82 765.54 55.12C765.54 55.12 741.64 43.2099 736.82 31.0199L749.17 26.1999C749.17 26.1999 761.8 45.9999 777.47 47.8099C777.47 47.8099 751.25 31.26 752.07 25.28C752.07 25.28 763.68 21.54 767.24 22.03C767.24 22.03 776.63 36.0299 785.83 36.2799C785.83 36.2799 769.48 23.36 770.56 21.37C770.56 21.37 786.98 20.52 795.56 24.49C795.56 24.49 783.36 17.7 770.56 18.8C770.56 18.8 776.35 11.9899 783.9 10.4899C783.9 10.4899 774.85 6.76996 766.58 19.05C766.58 19.05 753.81 20.22 752.23 21.64C752.23 21.64 758.69 8.35995 766.64 2.70995C766.64 2.70995 754.79 4.79996 748.92 22.8L736.4 27.37C736.4 27.37 744.01 9.36995 750.72 3.80995C750.72 3.80995 738.96 7.80995 733.34 28.8099L721.82 35.07C721.82 35.07 727.19 19.07 733.32 11.26C733.32 11.26 723.21 17.32 718.58 36.98L711.38 42.05C711.38 42.05 715.51 30.4299 717 27.1999C718.49 23.9699 717.74 23.3 717.74 23.3C712.735 29.2171 709.471 36.4073 708.31 44.07C708.31 44.07 694.17 55.4699 693.34 54.6699Z" fill="#FF9B05"/>
<path opacity="0.1" d="M877.67 100.93C877.67 100.93 897.81 61.84 921.61 82C921.61 82 926.81 83.89 926.41 89.38C926.41 89.38 924.41 88.29 922.82 92.49C922.244 93.9777 921.492 95.3911 920.58 96.7C919.363 98.467 917.61 99.7958 915.58 100.49V100.49C915.58 100.49 904.89 108.49 885.1 102.32C885.1 102.32 879.51 103.12 878.61 102.43L885.11 97.67C885.11 97.67 888.41 102.58 893.25 103.13C893.25 103.13 885.13 98.03 886.05 96.92C886.23 96.7 889.6 94.56 889.6 94.56C889.6 94.56 895.38 103.06 902.88 103.69C902.88 103.69 892.38 98.9 890.88 93.69L896.16 90.76C896.16 90.76 901.82 100.05 910.33 101.09C910.33 101.09 899.53 95.71 897.33 90.2L902.91 88.02C902.91 88.02 908.61 96.97 915.69 97.79C915.69 97.79 903.84 90.31 904.22 87.61C904.22 87.61 909.46 85.92 911.07 86.14C911.07 86.14 915.31 92.47 919.47 92.57C919.47 92.57 912.08 86.74 912.57 85.84C912.57 85.84 919.99 85.46 923.85 87.25C923.85 87.25 918.34 84.18 912.57 84.68C914.162 82.8697 916.247 81.563 918.57 80.92C918.57 80.92 914.48 79.24 910.74 84.79C910.74 84.79 904.97 85.32 904.26 85.96C904.26 85.96 907.18 79.96 910.77 77.41C910.77 77.41 905.41 78.35 902.77 86.49L897.17 88.59C897.17 88.59 900.6 80.46 903.64 77.94C903.64 77.94 898.32 79.75 895.78 89.23L890.58 92.05C890.58 92.05 893 84.81 895.77 81.29C895.77 81.29 891.2 84.03 889.12 92.91L885.86 95.2C885.86 95.2 887.73 89.95 888.4 88.49C889.07 87.03 888.73 86.73 888.73 86.73C886.468 89.4131 884.994 92.6702 884.47 96.14C884.47 96.14 878.02 101.29 877.67 100.93Z" fill="#FF9B05"/>
<path opacity="0.1" d="M659.44 146.41C659.44 146.41 679.58 107.32 703.44 127.48C703.44 127.48 708.63 129.37 708.24 134.87C708.24 134.87 706.24 133.77 704.65 137.97C704.07 139.456 703.318 140.869 702.41 142.18C701.18 143.956 699.408 145.285 697.36 145.97V145.97C697.36 145.97 686.68 153.97 666.89 147.8C666.89 147.8 661.3 148.61 660.4 147.91L666.9 143.15C666.9 143.15 670.2 148.06 675.03 148.62C675.03 148.62 666.91 143.51 667.83 142.4C668.02 142.18 671.39 140.04 671.39 140.04C671.39 140.04 677.17 148.54 684.66 149.17C684.66 149.17 674.17 144.38 672.66 139.17L677.94 136.25C677.94 136.25 683.61 145.53 692.12 146.57C692.12 146.57 681.32 141.19 679.12 135.68L684.7 133.5C684.7 133.5 690.41 142.45 697.49 143.27C697.49 143.27 685.64 135.79 686.01 133.09C686.01 133.09 691.26 131.4 692.87 131.62C692.87 131.62 697.11 137.95 701.27 138.06C701.27 138.06 693.88 132.22 694.37 131.32C694.37 131.32 701.78 130.94 705.65 132.73C705.65 132.73 700.13 129.66 694.36 130.16C695.952 128.35 698.037 127.043 700.36 126.4C700.36 126.4 696.28 124.72 692.54 130.27C692.54 130.27 686.77 130.8 686.06 131.44C686.06 131.44 688.97 125.44 692.57 122.89C692.57 122.89 687.21 123.83 684.57 131.97L678.9 134.07C678.9 134.07 682.34 125.94 685.37 123.43C685.37 123.43 680.06 125.23 677.52 134.71L672.31 137.53C672.31 137.53 674.74 130.29 677.51 126.77C677.51 126.77 672.94 129.51 670.85 138.39L667.59 140.68C667.59 140.68 669.46 135.43 670.13 133.97C670.8 132.51 670.47 132.21 670.47 132.21C668.204 134.89 666.729 138.149 666.21 141.62C666.21 141.62 659.79 146.77 659.44 146.41Z" fill="#FF9B05"/>
</g>
<defs>
<clipPath id="clip0_214_52">
<rect width="1072.34" height="780.14" fill="white"/>
</clipPath>
</defs>
</svg>
