<svg width="834" height="529" viewBox="0 0 834 529" fill="none" xmlns="http://www.w3.org/2000/svg">
<g clip-path="url(#clip0_214_157)">
<path d="M799.071 511.492C795.355 516.5 790.748 520.782 785.482 524.122C784.361 524.832 783.212 525.502 782.042 526.122H754.512C754.841 525.462 755.162 524.792 755.472 524.122C764.008 506.109 766.684 485.875 763.126 466.263C759.567 446.651 749.952 428.647 735.631 414.782C752.272 419.922 767.651 429.942 777.712 444.152C782.6 451.072 786.076 458.887 787.942 467.152C789.604 450.624 786.962 433.946 780.272 418.742C793.781 429.732 804.302 444.782 808.312 461.722C812.321 478.672 809.412 497.482 799.071 511.492Z" fill="#F0F0F0"/>
<path d="M583.569 15.9922H0.248779V292.788H583.569V15.9922Z" fill="#E6E6E6"/>
<path d="M566.889 39.728H16.929V270.667H566.889V39.728Z" fill="white"/>
<path d="M583.32 0H0V24.7812H583.32V0Z" fill="#FF9B05"/>
<path d="M18.4156 16.0553C20.9523 16.0553 23.0087 13.9989 23.0087 11.4622C23.0087 8.92554 20.9523 6.86914 18.4156 6.86914C15.8789 6.86914 13.8225 8.92554 13.8225 11.4622C13.8225 13.9989 15.8789 16.0553 18.4156 16.0553Z" fill="white"/>
<path d="M35.8494 16.0553C38.3861 16.0553 40.4425 13.9989 40.4425 11.4622C40.4425 8.92554 38.3861 6.86914 35.8494 6.86914C33.3127 6.86914 31.2563 8.92554 31.2563 11.4622C31.2563 13.9989 33.3127 16.0553 35.8494 16.0553Z" fill="white"/>
<path d="M53.284 16.0553C55.8207 16.0553 57.8771 13.9989 57.8771 11.4622C57.8771 8.92554 55.8207 6.86914 53.284 6.86914C50.7473 6.86914 48.6909 8.92554 48.6909 11.4622C48.6909 13.9989 50.7473 16.0553 53.284 16.0553Z" fill="white"/>
<path d="M432.524 87.9565H151.749C149.7 87.9565 147.736 88.7703 146.287 90.2188C144.839 91.6672 144.025 93.6317 144.025 95.6801C144.025 97.7286 144.839 99.6931 146.287 101.142C147.736 102.59 149.7 103.404 151.749 103.404H432.524C434.573 103.404 436.537 102.59 437.986 101.142C439.434 99.6931 440.248 97.7286 440.248 95.6801C440.248 93.6317 439.434 91.6672 437.986 90.2188C436.537 88.7703 434.573 87.9565 432.524 87.9565V87.9565Z" fill="#E4E4E4"/>
<path d="M432.524 147.474H151.749C149.7 147.474 147.736 148.287 146.287 149.736C144.839 151.184 144.025 153.149 144.025 155.197C144.025 157.246 144.839 159.21 146.287 160.659C147.736 162.107 149.7 162.921 151.749 162.921H432.524C434.571 162.918 436.533 162.104 437.98 160.656C439.426 159.207 440.239 157.244 440.239 155.197C440.239 153.15 439.426 151.187 437.98 149.739C436.533 148.291 434.571 147.476 432.524 147.474Z" fill="#E4E4E4"/>
<path d="M432.524 206.991H151.749C149.7 206.991 147.736 207.804 146.287 209.253C144.839 210.701 144.025 212.666 144.025 214.714C144.025 216.763 144.839 218.727 146.287 220.176C147.736 221.624 149.7 222.438 151.749 222.438H432.524C434.573 222.438 436.537 221.624 437.986 220.176C439.434 218.727 440.248 216.763 440.248 214.714C440.248 212.666 439.434 210.701 437.986 209.253C436.537 207.804 434.573 206.991 432.524 206.991Z" fill="#E4E4E4"/>
<path d="M297.589 103.858H152.018C149.909 103.889 147.867 103.119 146.303 101.704C144.739 100.289 143.769 98.3342 143.589 96.2328C143.51 95.1138 143.663 93.9906 144.04 92.934C144.417 91.8774 145.009 90.9106 145.779 90.0945C146.545 89.2782 147.469 88.6271 148.496 88.1814C149.523 87.7356 150.63 87.5046 151.749 87.5024H281.687C285.903 87.5072 289.945 89.1841 292.926 92.1652C295.907 95.1462 297.584 99.1881 297.589 103.404V103.858Z" fill="#FF9B05"/>
<path d="M373.007 163.375H152.018C149.909 163.406 147.867 162.636 146.303 161.221C144.739 159.806 143.769 157.851 143.589 155.75C143.51 154.631 143.663 153.508 144.04 152.451C144.417 151.395 145.009 150.428 145.779 149.612C146.545 148.795 147.469 148.144 148.496 147.698C149.523 147.253 150.63 147.022 151.749 147.02H357.106C361.322 147.024 365.363 148.701 368.344 151.682C371.326 154.663 373.002 158.705 373.007 162.921V163.375Z" fill="#FF9B05"/>
<path d="M342.113 222.892H152.018C149.909 222.923 147.867 222.153 146.303 220.738C144.739 219.323 143.769 217.368 143.589 215.267C143.51 214.148 143.663 213.025 144.04 211.968C144.417 210.912 145.009 209.945 145.779 209.129C146.545 208.312 147.469 207.661 148.496 207.216C149.523 206.77 150.63 206.539 151.749 206.537H326.211C330.427 206.541 334.469 208.218 337.45 211.199C340.431 214.18 342.108 218.222 342.113 222.438V222.892Z" fill="#FF9B05"/>
<path d="M577.852 225.217C578.473 226.404 579.346 227.439 580.411 228.252C581.475 229.064 582.705 229.633 584.013 229.918C585.321 230.204 586.676 230.199 587.982 229.905C589.288 229.61 590.514 229.033 591.573 228.213L618.831 245.997L618.748 229.084L592.876 214.789C591.381 213.102 589.319 212.021 587.081 211.752C584.843 211.483 582.584 212.045 580.732 213.33C578.88 214.616 577.564 216.536 577.033 218.727C576.503 220.918 576.794 223.227 577.852 225.217L577.852 225.217Z" fill="#FFB6B6"/>
<path d="M714.639 514.364H702.945L697.381 469.257L714.641 469.258L714.639 514.364Z" fill="#FFB6B6"/>
<path d="M717.621 525.7L679.914 525.698V525.221C679.914 521.329 681.461 517.596 684.213 514.844C686.965 512.091 690.698 510.545 694.591 510.545H694.592L717.622 510.546L717.621 525.7Z" fill="#2F2E41"/>
<path d="M656.783 514.364H645.089L639.526 469.257L656.785 469.258L656.783 514.364Z" fill="#FFB6B6"/>
<path d="M659.766 525.7L622.058 525.698V525.221C622.059 521.329 623.605 517.596 626.357 514.844C629.11 512.091 632.843 510.545 636.735 510.545H636.736L659.766 510.546L659.766 525.7Z" fill="#2F2E41"/>
<path d="M643.285 284.19L631.632 400.468L637.459 500.835H659.986L664.54 406.424L682.256 354.799L692.568 434.356V499.132L718.197 500.318L726.702 341.718C726.702 341.718 729.591 297.358 723.826 291.922C718.061 286.487 643.285 284.19 643.285 284.19Z" fill="#2F2E41"/>
<path d="M742.641 179.268L719.09 170.402L714.944 161.998L685.336 162.428L678.628 169.167L655.572 176.719L640.913 289.03C640.913 289.03 686.036 321.279 726.09 298.997L742.641 179.268Z" fill="#3F3D56"/>
<path d="M598.495 236.073L637.248 258.856L669.539 215.663V188.571C669.542 186.067 668.801 183.618 667.412 181.535C666.131 179.61 664.348 178.071 662.257 177.085C660.165 176.099 657.844 175.702 655.544 175.938C653.244 176.175 651.052 177.034 649.204 178.425C647.357 179.816 645.924 181.684 645.06 183.829L628.291 225.496L604.505 218.468L598.495 236.073Z" fill="#3F3D56"/>
<path d="M711.108 296.834C711.343 295.516 711.865 294.265 712.637 293.171C713.408 292.076 714.41 291.164 715.572 290.499C716.734 289.833 718.027 289.431 719.361 289.32C720.696 289.208 722.038 289.391 723.294 289.854L743.95 264.703L748.952 280.859L728.57 302.267C727.652 304.325 726.01 305.975 723.956 306.904C721.902 307.833 719.578 307.976 717.426 307.306C715.273 306.637 713.441 305.201 712.277 303.27C711.112 301.34 710.696 299.05 711.108 296.834L711.108 296.834Z" fill="#FFB6B6"/>
<path d="M741.917 292.873L728.864 279.819L750.421 241.193L719.156 206.15L720.961 192.012C721.376 188.757 722.68 185.68 724.729 183.117V183.117C726.511 180.888 728.8 179.119 731.406 177.957C734.011 176.794 736.857 176.273 739.706 176.435C742.554 176.598 745.322 177.441 747.779 178.892C750.235 180.344 752.308 182.363 753.824 184.78L778.269 239.135L778.147 239.316L741.917 292.873Z" fill="#3F3D56"/>
<path d="M721.821 132.819C720.917 139.411 717.433 145.375 712.135 149.401C706.836 153.426 700.156 155.183 693.563 154.286C686.969 153.388 681.002 149.91 676.972 144.615C672.942 139.32 671.179 132.642 672.07 126.048L672.118 125.691C673.159 119.186 676.714 113.35 682.019 109.442C687.323 105.535 693.951 103.869 700.472 104.804C706.993 105.739 712.886 109.201 716.878 114.441C720.871 119.682 722.643 126.282 721.813 132.818L721.821 132.819Z" fill="#FFB6B6"/>
<path d="M715.431 145.749C716.72 143.131 718.045 140.319 717.682 137.423C717.32 134.526 714.48 131.758 711.691 132.618C710.023 133.133 708.762 134.78 707.019 134.864C704.62 134.98 703.244 132.235 702.498 129.952L699.457 120.656C696.536 122.932 693.15 124.535 689.539 125.351C685.927 126.167 682.181 126.176 678.566 125.377C675.742 124.731 672.89 123.472 671.233 121.096C669.577 118.72 669.587 115.035 671.859 113.238C672.973 112.357 674.455 112.022 675.52 111.082C676.18 110.499 676.635 109.719 676.818 108.857C677 107.995 676.9 107.097 676.533 106.297C676.165 105.496 675.55 104.835 674.777 104.411C674.005 103.987 673.117 103.823 672.244 103.944L679.901 102.987L677.62 98.8605C678.487 99.4507 679.468 99.8533 680.499 100.043C681.531 100.232 682.591 100.204 683.611 99.9597C685.671 99.5888 687.612 98.7406 689.627 98.1749C694.512 96.9275 699.67 97.3087 704.319 99.2607C708.967 101.213 712.851 104.629 715.381 108.99C717.265 108.36 719.296 108.319 721.205 108.87C723.113 109.421 724.809 110.539 726.068 112.075C728.118 114.677 728.675 118.149 728.755 121.46C728.904 127.988 727.48 134.457 724.605 140.32C723.78 142.182 722.595 143.863 721.118 145.266C720.374 145.961 719.488 146.486 718.52 146.802C717.552 147.118 716.527 147.219 715.516 147.098" fill="#2F2E41"/>
<path d="M831.672 528.091H196.224C195.878 528.098 195.54 527.991 195.261 527.786C194.983 527.581 194.78 527.29 194.685 526.958C194.625 526.731 194.618 526.495 194.664 526.265C194.711 526.036 194.809 525.82 194.951 525.635C195.094 525.45 195.277 525.299 195.487 525.196C195.697 525.093 195.928 525.039 196.162 525.039H831.547C831.911 525.026 832.27 525.137 832.563 525.354C832.857 525.57 833.068 525.88 833.163 526.232C833.212 526.456 833.211 526.687 833.159 526.91C833.107 527.133 833.006 527.341 832.863 527.519C832.72 527.698 832.539 527.842 832.332 527.941C832.126 528.04 831.901 528.091 831.672 528.091V528.091Z" fill="#CCCCCC"/>
</g>
<defs>
<clipPath id="clip0_214_157">
<rect width="833.198" height="528.091" fill="white"/>
</clipPath>
</defs>
</svg>
